<?xml version="1.0"?>
<!-- Created with xTool Creative Space (https://www.xtool.com/pages/software) -->
<svg xmlns="http://www.w3.org/2000/svg" xmlns:xlink="http://www.w3.org/1999/xlink" xmlns:xcs="https://www.xtool.com/pages/software" version="1.1" preserveAspectRatio="xMinYMin meet" width="56.20381036673629mm" height="22.48200070328747mm" viewBox="140.1504784396732 106.48144417007694 56.20381036673629 22.48200070328747" xcs:version="1.1.10"><style></style>
<path transform="matrix(0.0549074,0,0,0.0549074,140.139662,106.473906)" stroke="#000000" fill="none" vector-effect="non-scaling-stroke" data-view-type="laser" d="M88.40196357862573 0.37294673065133566C85.29590701415435 1.098944839489775 81.95494965698538 0.19070966119335253 78.93107774592136 1.2516481519584204 76.56592405711655 1.4289468950576634 74.3127645553752 1.9152758402273662 72.04555968386043 2.432389157503451 69.98451069758912 2.7449467355444312 68.05111424098487 3.3800668125608695 66.13428041791491 3.9112254996103957 63.725242965331574 4.268452484259683 61.80485290594223 5.546132194885047 59.55373607555839 6.227557098278055 56.708734193253235 7.451139688337548 53.72337481437626 8.421873555420405 51.07958407754498 10.130726877858592 47.88745312598243 12.58007261766852 43.87414263507554 13.746255180571666 40.60185046123058 16.103760876931347 38.2768158640321 17.260643994094096 37.267223140575965 19.232575429823328 35.360150528828 20.91632024876236 32.84044646522821 21.93332687516738 31.112195781657704 24.145889486193653 29.285409453703863 26.09579085563439 27.475798240020936 28.455220575250735 24.88225978394763 29.944125972400798 22.939676116292986 32.18259876328307 20.946577218035287 33.98781358382456 19.84625397120689 36.414455849206206 18.226274489698312 38.53123416910603 15.145332842136952 43.15549579822067 11.949132581386635 47.7429123819706 9.750378043932216 52.87226218300714 8.509629959718012 54.83556758113588 8.056686024756374 57.37553481633347 7.045842686183391 59.254952800472665 6.387009022528787 60.70630767706393 6.220529703542695 62.40518814562188 5.223783042030021 63.61767553490148 4.482963540704617 66.3106988201647 3.5994969551320253 69.07834214073125 3.1035992009659026 71.87317832332496 2.1736033196368965 74.27666817551835 1.705712930676583 76.88920315454561 1.5885591545798263 79.56519883398755 0.640214504793363 82.0581878346689 1.1442476706296247 84.78529839862892 0.46691452336244765 87.31346495785249 0.08615994098988722 92.66340402526282 0.14970401574584002 98.0538758492795 0.4014143582956251 103.41045279692526 1.3564225419609102 105.89946548287617 0.3466694832333701 108.75904504805578 1.406049515160504 111.22824029446338 1.5770021882182732 113.56952006135873 1.8020776354853467 116.03855497249492 2.7528561746914875 118.1111448916007 3.5396309715017082 120.84345031835369 3.5603591153865466 123.80894736381128 4.933425485665225 126.29622842883123 5.573333173885345 128.68711592869363 6.176219447942287 131.18042559991784 7.045842686183391 133.62313345949224 8.06695068883053 135.8179950565575 8.834408292144104 138.46606033172384 10.06415417003575 140.47878106049393 10.257290831242585 142.6282357087024 11.738538615831203 144.18942024619355 12.65744250308569 146.1896668908496 14.341373310939503 148.94926138079256 15.93936441333014 151.84090800024956 17.284753709062045 154.72758422629352 18.753803186203584 156.64673329068228 19.845920473842398 158.8197892908389 21.367806836316674 160.84283561108612 22.750660071560787 163.41814074009733 24.42452182437154 165.95227177141658 26.99227195539501 167.49767931820315 28.4433799156684 169.62641864934858 29.592008973060132 171.7784707289535 30.872151433454007 174.02563369154495 31.17223813408654 175.8155204601419 30.917452561031553 177.73611254197317 31.001936422230585 179.57679352454534 30.953646645194368 197.85950385021408 31.144173048183035 216.14535674720207 30.788854053263236 234.42530930620296 30.60323390957899 237.46411163773848 28.668125072276382 240.06689823226543 26.770214017935473 242.31303504912 24.765186175486576 244.3256916437815 22.932614950941115 246.62499563662777 21.630840055731795 249.11811290552623 20.37292006395208 251.56912613215877 18.564690940308537 253.6563706950692 17.305696702210554 256.21525749229033 15.647666454096537 258.5204618231238 14.65349477704234 261.2479892587895 13.011677631570905 263.5741975101745 11.697486372945377 265.1385246189848 11.63222991749106 267.0919854314503 10.79969222752166 268.7850938302382 9.94453764417051 269.989853059437 9.755855096802776 271.594969461288 8.969865942822338 272.8215342873955 8.394467547691903 274.31329365237616 7.704621835845728 275.7271942095716 7.147806298668968 277.19336406523894 6.783229545179324 279.72489766516173 5.075386334950906 281.95416721146637 5.002318345074599 284.60232868779565 4.253921398823479 286.92773526282383 3.496882381444607 289.11390668817967 3.2260953483052504 291.6328700028257 2.243984090364762 293.96343937359256 1.6544088505383172 296.4225655649569 1.4937016013221012 298.9903990703216 0.7985135182333352 301.41508524539233 1.029088465308945 303.9993691496012 0.5382348587806405 306.4638826060842-0.000004233853246660146 311.5653661369539 0.261755923507053 316.74807551630795 0.28284321839981885 321.8816261014548 0.26026159877773125 324.50868745606965 1.0820632389750813 327.0220711032714 0.8719278322958246 329.6675389470414 0.9950268402555764 332.20401087332266 1.9459304409733988 334.53076426463053 2.141587572646415 337.067717196726 2.416071937143954 339.39860723803565 3.3611136803398836 341.6639522204023 4.065610829285362 343.8220008391571 4.79183661420916 346.38544115808577 5.7854663580460794 349.13092614414666 6.630975171470624 351.67842913709944 7.3260381930477365 353.15017866021105 7.8386172288489036 354.62205645153983 8.781471998943118 355.8752048656431 9.252235595966681 357.44649052523164 10.163016898372689 358.7172758191874 10.79969222752166 360.17619852058806 12.037005930222762 362.60306525534963 13.24019708046734 365.2512908657875 15.048576919265997 367.4611919113087 16.857976490390683 370.00475065658543 18.463769507086994 372.630401060812 20.419808510716393 375.0873787595399 21.9719148651416 377.41733885627536 23.993104502946238 379.4231651683758 25.999289966054533 381.40824409635877 28.188972733853888 383.59842390349945 30.365344467422744 385.8268276393386 32.929124697126696 387.56021225829886 35.11921471651539 389.6041021638264 37.55971956946104 391.2849930149348 39.900178419766945 393.11656695409215 41.81709241047258 395.04953691887454 44.45260984730035 395.94587522003405 46.44472749369717 397.4984978540332 48.509672627063196 397.98966892439887 49.90494222572346 399.89804345855043 51.97779830137972 400.35419730564524 53.92227713194217 401.61998013913376 56.56925854067407 402.4202134786241 58.680755416734456 403.70645509274163 61.396090958363885 404.70681891797676 64.11844597817458 405.49759247645534 66.83681826984403 406.327455774098 69.26238308220195 406.36224852798875 71.31235931463132 407.66798691110694 73.71998261012101 407.64191639597937 76.0345280738654 408.15457239271086 78.39665142604102 408.5082399343353 80.78045210690811 408.89282011628325 83.80319846436703 408.80117247515864 86.65174054946442 409.8068273643496 89.70143605933796 409.54743696230037 93.16531926237363 409.49340397584297 96.67279441899382 409.7376907953277 100.10643838984598 409.2387915648811 102.70462336208405 408.9750400434501 105.20218191799992 408.4847027164958 107.78624776623971 408.2705268609776 110.03815023945339 408.07161492329544 112.03560063697651 406.99576525229145 114.35162759862851 406.8999168270565 116.18756265716763 406.02894356583045 118.51479064087869 406.2255146085504 120.22425644405357 405.2662286798444 122.327566601157 404.68254415788874 124.38986940925057 404.1390075878883 126.4459544155198 403.2402321906037 128.6436571535939 402.6216266465399 130.43377801168702 400.96359960513144 132.6544984813214 400.58068691000597 134.2806989713598 399.69650202241746 136.17610558876163 398.8291844053789 137.78522716569194 398.0153225678207 139.89359109054942 397.39206730088677 142.06031384748627 396.0210083282059 143.87796747838195 394.80861714008904 146.09568005832506 393.50172434301714 148.47979820302953 392.1311784432047 150.59861919428693 390.43309965100366 152.73662590411834 388.7886369735544 154.80100986403454 387.0554126898654 157.17739664195273 385.7286383191415 159.23890739380568 383.9760455346691 161.36678412119096 382.3487387312581 163.4161254259456 380.58796884794504 166.91757518306713 377.36343413803525 170.35343178066444 373.9981891939566 173.3796574135124 370.3267038815296 174.8098255873427 368.18202722440856 176.40479597322042 366.04164755256056 178.43365605040816 364.3771750332422 180.39361044136484 362.4076165595294 182.04134716505587 360.0646372387572 183.5088381833595 357.7368897687669 184.81312072221334 355.343276569291 187.29535122618466 354.45049771115634 188.26277897997159 351.87775794648724 189.28723478308524 349.5840015540309 190.98441569776645 347.3823096744046 193.37359402363586 346.5835193523567 195.7542200661295 346.2908112809133 198.0165507453941 345.67647065506856 200.2853589696228 345.12940670909745 202.8161870943514 345.09689071606033 205.21624577173708 344.4070642444468 207.64593440727498 343.87696377018847 210.07308974552507 343.8008365833341 212.41488258528886 343.318516019949 214.66602186261065 342.6327941312828 217.18014305206083 342.5728928738928 219.4312823293826 341.75492645338704 221.96124464364573 341.7037153677062 224.34453225164435 341.16059566941124 226.81709453875112 340.6308158656958 229.3444273545635 340.57072220598 231.74839821257098 339.88221048359185 234.21563736866761 339.6058886768841 236.64795550265632 339.06690562859114 239.40806306546773 339.5164536625048 241.01984941460847 337.7174598504931 243.7086398487071 337.9557501308277 246.06155995630513 337.17879747274264 248.62599435391633 337.43450016355007 251.01162285687724 336.7737905772201 253.5802901056531 336.7545182775996 256.00763784622876 335.7470997004233 258.61581170587425 335.85292097953857 261.5487606912403 335.9223140849946 264.2505703493756 334.65101571817047 267.1739633525671 334.82167658103435 269.6352380365682 334.3594299936268 272.13486491748495 333.98331551400827 274.66559684105073 333.9100743620388 281.44604719977195 333.2609089152488 288.2141838096508 332.4299553377607 295.0043504858182 331.87429742124345 297.55993437644884 331.06146172942204 300.28252348575575 331.38126646172975 302.9305566938679 331.3158496710039 302.50826565609 329.8781232924805 303.57369353445375 329.9280837630446 304.6942446791203 330.0331674999113 306.9420810498516 330.01341419447647 309.24523308921124 330.1759620926082 311.40135768470935 329.4860073527775 314.2330068456135 329.68402141293996 316.7993973335356 328.6358135427231 319.6054249180721 328.75048532881874 322.10566107302014 328.9736399595346 324.36577912553963 327.8390434450946 326.87233249018027 328.1076691587756 329.3530077420192 328.165293655312 331.64233888098533 327.16509016534826 334.1596347088088 327.4619990209019 336.70643222656753 327.3786567468352 339.1180991776016 326.55264149570576 341.7173904632123 326.81257703767767 344.45588483144076 326.6467903670639 347.12601223995 325.9481133884699 349.90879121013546 326.1851209866335 352.7935434129228 326.4353081441051 355.5583648327129 325.66278073951014 358.4054703137787 325.5573442650465 361.2339127692551 325.7546849170691 363.96859115802454 325.14047255944126 366.7548975041806 324.9381294469515 369.86937808381055 324.86783846397554 373.0207357758594 325.0389482655993 376.0663683899561 324.3500196715055 379.3838654902157 324.15989410669533 382.7499441777056 324.4653007316325 386.0042050469304 323.72849602550264 390.38504566702596 323.4557977959282 394.8287056464507 323.91147063720894 399.15246690993246 323.10912087213615 404.67800516656536 322.89286065809006 410.20953996234806 323.00759657829417 415.73796425386587 322.9784155589018 415.79558875040215 321.7239844626275 416.9490086257029 322.0350348891176 417.8634327454749 322.0044749863912 435.38227377120376 321.7551857064393 452.89306596630894 321.08658762475727 470.415626770334 321.0910128782476 503.26656018945874 320.85634617504616 536.1185838884287 320.83630426612285 568.9700624474763 320.73019438351923 569.8505596238228 319.1505071557102 571.2021859616116 316.8166028112985 569.4656587713321 315.37778615292973 566.9186047171393 314.3806931672307 564.0320567593124 314.80439515539695 561.3105258627966 314.65319899447945 556.2903002474659 314.5725503529719 551.2238660069213 314.8312673468814 546.250554491998 314.1810436873003 530.1401626242375 313.90863406121434 514.0226839374816 313.94358715037674 497.9115865945269 314.1530170818619 491.22255940755025 314.7273380239685 484.48594471202597 314.5888404165448 477.7699811994565 314.63892915532597 469.99891540000027 314.72935824838805 462.20100947611405 314.46528605641436 454.4473881541847 314.96165198957294 447.93828920875814 315.54767740649083 441.3578410675644 315.1363533012758 434.82170959538195 315.32984590678507 432.08190047792806 315.20898517921387 429.410522454302 315.75059772595773 426.6949560298818 315.8743765554682 422.16509980855966 316.0159846671568 417.5932998802428 315.69608373368635 413.1197534062316 316.5116451251213 398.23522088938427 317.1846363932393 383.3802862636348 318.36759002552935 368.50668861229605 319.22740395186713 365.7045090742727 319.23420216737395 362.9420926835534 319.624362016766 360.1941706013674 320.0405923812855 357.73687223209663 320.123774320081 355.24446043839237 319.9876496746738 352.86482847458126 320.6425230571251 350.13569768620175 320.8243111878231 347.35814564586354 320.5589563136783 344.69924170635136 321.3011803519812 340.1150318280291 321.78500806691727 335.4579976694431 321.57621947651774 330.90268020702473 322.2583498551047 328.44644005054516 323.01869177907406 325.5976991497113 322.43122334471377 323.07687594591715 323.24428350591506 319.9757031938123 323.0121821670559 317.1606006329153 324.157553211733 314.07126062383867 323.99539011825266 311.8052101662779 324.6531174685347 309.38119739934706 324.45064608782775 307.16061802475144 325.1718020714703 304.1584683362549 324.9382897822229 301.4671125378141 326.0691344513124 298.48032296831633 325.95863138227276 295.8690065373517 326.8193752531844 293.0123450741113 326.30117165606305 290.4150419458658 327.1235312630048 287.52547968493695 326.9179173109786 284.854582667125 328.09016054714016 281.95552855812997 327.8402299261028 279.5025592411867 328.6788475295632 276.7703500155966 328.2178194902183 274.318150307956 329.0468490444496 271.2306060539189 328.8843332133721 268.3351113879487 330.1176321208777 265.2677693781063 330.28034035428084 262.736620582835 330.1160929022725 260.74240254438297 331.5487206191658 258.36575281661976 331.6618211196019 255.99176465436153 332.48716296259147 253.38721437184938 332.1353873771693 250.99049066810846 332.893901479045 248.56686270582895 332.98654319885213 246.18665353504093 333.4959283560472 243.86172796582701 334.00573038494804 241.41353663997103 334.1823877869617 239.0662924009801 334.65053471235626 236.71208961121096 335.16389618428184 234.24151548146943 335.59968745191054 231.67743382145528 335.70547666397147 229.21410684598044 336.4040253743484 226.0450160729162 337.04674534322874 222.8052174451704 337.32152793133105 219.64398310040406 337.9564556060219 217.16099902065724 338.25067082901626 215.30470138265196 339.48114783574545 213.01630018825983 340.09847069763805 210.57490707791072 340.29741470237445 208.3865230258096 341.0587827720807 206.08805277637447 341.57730703974494 203.70014751255985 342.154898821388 201.26414166732928 342.7352804367531 198.7401438251618 343.05614338185194 197.01086378914897 343.9053431132238 194.92871788786857 343.7478297426137 193.29929465887534 344.689831529064 191.17671220215124 344.8712027880566 189.52801026012645 346.56139308490526 187.34421821019788 346.70803572411546 184.98890590035074 347.7163201117571 182.46032246942156 348.5656801784004 179.86874651707 349.2339575895396 177.28683878158307 350.30618368341027 174.52473985470107 350.42072720128886 171.87600437810022 351.0729069511808 169.3703136172196 351.8856143747852 166.4696305018673 351.40246006798884 163.8110247859599 351.44918176607086 161.48194973992247 351.09657243723757 159.16279303377303 350.8011707332348 156.97260039981063 350.2101107887954 155.06387954147283 349.26031670815553 152.59749978243082 349.0135286584374 150.75410592706675 347.58644854193403 148.85463641388793 346.0949777804418 146.7289466596044 345.1700677339212 144.67964383531483 343.8220008391571 142.52084805419537 342.25991842414624 140.29801757238954 340.5229102280525 138.9234857377304 338.18785146968696 136.35024252030917 336.4901574821374 134.29334621756675 334.0255798915457 132.37487376802324 331.6188833339246 130.50497649229897 328.8199746354376 128.24217442733647 326.32265658242875 126.3672490375015 323.517975814172 125.05147366639468 321.0731194619608 123.43662170686508 318.7246246078531 122.61951468341391 316.05533094275506 121.44326627217313 314.4553452695884 120.73580933411787 312.32202034968134 119.56111938171497 310.4201233604938 118.38654487070744 308.11055791027866 117.72772724057998 305.67038334799213 116.74548130101152 303.4681142613889 115.59197163795878 301.65132323425337 115.31854548625242 298.7786282438742 114.02917733434296 296.98938281636276 113.13538515729303 294.1375955453726 111.80407650509429 291.44194276165854 111.61475261664103 288.3735104719708 110.51221674306748 285.87154269609175 110.13495746961115 283.032069173944 109.58882667491963 280.3093838634742 108.63656663780588 277.55331674950185 108.66829378130785 274.60728440599064 108.06197953914864 271.7843574838498 107.62915447404058 269.5712497329009 107.15264446089051 267.34659784241217 107.00085505946885 265.07846302632333 107.11206039699718 263.9581042839825 107.1470198995703 262.9140009967132 105.71817288837622 263.3336946030946 105.6622030518406 261.0930412525214 105.9662500336764 258.74762483562426 105.13069162719407 256.6608292114737 105.24705655375561 254.1528328293905 104.18370341380356 251.83974000320495 104.43401242608141 249.3160628315802 104.50233769863007 246.8591492669608 103.4944284955235 244.59281020591163 103.79257834607768 242.10136042383544 103.87689545859448 239.4402759246325 103.00928923806742 236.9022006456372 103.19351125818517 234.22732731309497 103.01861433745123 229.50452362618603 103.4048267324618 224.73496617414105 102.83213800341781 220.04317132871836 102.29311968136497 217.4858558171568 103.40566688928388 214.99713173469434 102.5924367726949 212.31202901183747 102.53994621154831 208.31153572252526 102.1857078763577 204.2112176932477 103.06257826886545 200.29499662257626 103.0382874752504 197.78664750289613 103.56877916757088 195.02237122302859 102.60566443258426 192.6885630797799 102.56554854768333 190.0581026174117 103.37897748000887 187.46298004885705 103.13592844881939 184.7548211139749 103.26130742433827 181.02417208640622 102.93465316923695 177.24244024137386 103.47347908896413 173.54594262661055 104.20780180509291 170.89383690260513 103.34211640111707 167.96627518235755 104.29562063993677 165.33642399402072 104.58290937920725 162.8922089828951 104.17391334213266 160.33559894652763 105.02466191222615 158.01978042072847 104.74398539954765 155.49741799832907 105.89726097310418 153.28193728536348 105.71817288837622 150.78955755871345 105.53345382891715 149.50366868219317 105.7639261614191 148.62698748530556 106.86476889452678 147.9634880652536 107.29716426110753 145.60402627858298 107.45309993264726 143.15564255040147 108.19006176734308 140.91768283238753 108.2692000505941 138.25130726922873 108.99295987904395 135.7834267720466 109.30194839394389 133.12096338950948 110.10522489688523 129.89787169704232 110.33291060237045 126.55497748979496 111.3874613359234 123.39598783882798 112.00442184010265 120.34948941426592 113.0765228724616 117.42497406417476 114.21594227186489 114.65864549283356 115.41035666935377 112.38605335620014 115.95177681377197 109.63527730618341 117.14067888463057 107.2258550489488 118.41128460308238 105.34297382294767 118.91457701996484 103.28988067284251 119.74911248741572 101.39507050265024 120.96525552088292 99.11202450632243 121.73664454505086 96.54223491064693 123.1511223092233 94.31421597945894 124.73370839873908 91.08570495481888 126.45761078974954 87.85578297979043 128.80645196804352 85.14348739490657 130.68739955067178 83.03456550330463 131.4464010717724 80.34183082152987 133.55068606732584 78.37419637107377 135.5959612695982 76.58915172767274 136.6841599632043 73.97450032306324 139.06229760228604 72.56056769881354 140.92758363560523 70.38414465795785 143.0708685825707 68.48112532187054 145.48132019224772 67.08332242592235 147.50975377761358 65.80346215560616 150.0007129337592 65.1093066316651 152.11002925012872 63.83541083344443 154.11381609757706 62.4359404506738 156.57898692867292 62.374788578167 158.6312335085451 61.33655356183033 161.37306285041842 60.98362356245417 164.09796078763333 60.3963795974737 166.93267876563175 60.615333444079226 169.71839507798904 60.40894988275045 172.21127505068586 61.691760322060134 174.98641885524785 61.78228561628504 177.7531803318218 62.36282756692151 180.16967337452462 63.76807001946207 182.99756748337285 64.07277116920511 185.09007745659568 64.94105079787204 187.22674055685292 65.49135351632503 189.4301384037667 65.89485326029649 191.6226045918773 66.84076722736876 193.95692580799448 67.40097866559347 196.32555877218846 67.74996441729348 198.31426127730475 68.43001043735251 200.39041063943523 68.74910969446609 202.40034153448312 69.32801622533447 205.0711423511322 69.79927365499384 207.81880789688404 70.41864880836027 210.49348882710063 71.13448166099272 213.191386304614 71.91169085551206 216.0613876624338 72.11544491839015 218.6740829767324 73.09506135950784 221.08700054288323 73.0958630358648 223.16036007129168 74.23437173092663 225.46970105212682 74.45874490970499 228.10625425480777 74.74577711254119 230.58811598765482 75.62364479043708 233.24743679887268 75.83564008626433 235.5154112796901 76.61169486682968 237.98842250555668 76.6851925552333 240.37081223603553 77.22026342290457 242.45039277297377 77.80070917237828 244.6932908173464 77.9009507840492 246.832131270589 78.30679142298288 249.1941904886561 78.74027386270359 251.59040111952856 79.00492326165431 253.92741596820503 79.56510263282473 256.41107345609163 79.50013478085884 258.6976147613356 80.37934927503431 261.1779372755775 80.42696885063611 263.6417131898122 81.00690152724138 266.2443073820134 81.13173856954302 268.7637517024736 81.51349685071443 271.4522535330837 81.9361726931437 273.94540286903646 82.67432421555321 276.7959074578556 82.79617902180706 279.3712446539211 83.09196553046098 281.9103460786533 83.681229719861 284.52275278946337 83.76473232919915 287.0328655971288 84.27501536391401 289.6362293986326 84.26436910189398 292.1085351493051 84.94665981575241 295.1111017095073 84.80306354669858 297.9031801254332 85.90376518476751 300.9069331666436 85.705622856388 303.209475931972 85.91149334484828 304.0308093931769 87.30608953536876 306.2655624057631 86.32791611169353 308.82435300182146 86.13070372788798 311.1892661877192 87.28492527954575 313.77393489657936 86.97073228173656 316.43922017989274 87.21389675432147 318.99990273215354 87.74377275919983 321.71992647711835 87.80239133441876 324.270187236739 88.60573517817409 327.08320543910787 87.9650354337133 329.6100893161604 88.83818925463027 332.3329670289558 88.63613474562896 334.86732252965487 89.39987577735178 337.53299261761964 89.52448835027349 339.0144905252316 89.53612869097606 340.4961167010607 89.5276950557012 341.977646675727 89.53026042004342 341.91771335128266 90.90061391753022 342.97637508119396 90.88233569659212 344.061139393287 90.83160561672537 357.6766182371096 91.37090933556135 371.2321637564879 92.85388232767002 384.8412291894551 93.5162914678765 395.7381914398639 94.19960832747188 406.6417595034539 94.7993905106747 417.54750812673484 95.31239924500335 423.15132206285847 95.56463869394861 428.802627306367 95.35998675355074 434.35894993510607 96.13424577907654 440.51316279084557 96.46315755479895 446.719035671026 95.96557307357784 452.8440354403189 96.5850123610528 459.42829956097165 97.14929631517077 466.07737119831876 96.78126273323005 472.6874172306105 96.93871196973168 477.12908905266994 96.86742690807307 481.5094486669513 97.56215963899115 485.9533010487017 97.45383712964235 505.8415125808729 97.61106189676411 525.7354961828139 97.68420684757064 545.6208216801001 97.27666665476022 547.9502687039671 97.05883515505445 549.6977948938638 97.44671824359284 552.1317163805663 96.97828271470985 559.2482294681138 96.77516999291731 566.3807760828001 97.10905216205276 573.488182126933 96.65751597077383 577.7688773365205 96.01768203677852 582.165366679103 96.38680589856472 586.4918215751443 96.2586659496726 590.1543601794281 96.27043455859234 593.8178928623943 96.19969463685652 597.4368202728606 95.6597816439895 616.2962565697069 95.05692102357591 635.12500469561 93.77231482922662 653.9665155091152 92.78814486640147 656.5244723617623 92.51374708295054 659.3821599707396 92.84583349704644 661.760894057031 92.4583031461051 664.2600399321336 91.67952266592613 667.1137512263804 92.4952764596868 669.6325862728092 91.55693031742396 674.717555270726 91.13300385987793 679.8226623787289 91.01804347029372 684.91875864448 90.77638614925979 684.9224784227761 89.60228302395024 685.6036147226805 89.30540623545085 686.6875773584168 89.53026042004342 688.9879395640542 89.5040616366988 691.3569252658451 89.70191536158984 693.5425836183329 88.97614172213139 696.0357329542855 88.76562151080077 698.613507246476 89.1316669353763 701.0160671540955 88.34179125441744 704.0793045809903 88.51828832115984 706.8615704783072 87.39552454974819 709.9143219784535 87.58103245874247 712.6322292978359 86.96797451506882 715.4826056184381 87.12103056513445 718.1989095851065 86.64422553508496 720.8434474843025 86.34930483689652 723.4374156389031 85.71893068391296 726.1354413846336 85.67567222769287 728.867329939681 85.21534966354204 731.6799633373987 85.1923255185709 734.3738203660732 84.59568590668715 737.0951588602632 84.47065646205994 739.754126933884 84.18564448364316 742.4095355644799 83.75819065012655 745.1412958513101 83.29985624334086 747.89127022497 83.07253289556894 750.6879983637662 82.92691640209569 753.2572428195188 82.35625110417652 755.881899145063 82.33819735261841 758.317039179828 81.51349685071443 760.9061331421785 81.08395865866976 763.4918600638298 80.39573553977004 766.2112104006549 80.3242580757859 768.4528257628563 79.42269284477919 771.0330050841176 79.97331623377494 773.1839027497685 79.04234551399588 775.8061219791875 78.54174672967275 778.4785261485504 78.44830333350865 781.0793245857121 77.86160450845085 783.5380018383169 77.37226126017907 785.9539337075698 77.0689389937699 788.425758452428 76.70343870911705 790.7975981220497 76.06325203752476 793.3512900564779 75.86594345255645 795.7324612388943 75.12538690107607 798.0532501581065 74.7018773152356 800.4350306145541 74.45916178141056 802.6766780438099 73.81740382415865 805.1108239998925 73.29846268478883 807.4850045644762 72.75931930122431 809.921844153118 72.07481596062081 813.7506825008838 71.24678048507195 817.4940300819462 70.02300549268676 821.367056830506 69.42101068273865 823.775452942004 68.60589823006359 826.4440090648536 68.73333270376168 828.8077999038517 67.8188765169354 831.010870666812 67.46950596058412 833.2164747270599 66.92237788050454 835.2436576973089 66.15626388676515 837.3009836985786 65.405670347296 839.5163040762727 64.96606310020832 841.5811658352977 64.32180391272277 843.8755315017854 63.30896600337377 846.5209672785011 62.36901650839707 849.1020444772821 61.85838073608511 851.7166638148374 61.037175543097305 854.5283672679811 60.64538027393712 857.3342024501919 60.62379914640843 860.1478619936463 60.44720587850321 862.9095729091716 60.73362880730821 865.5804378599294 61.33655356183033 867.6134570340569 62.07810419199325 869.6641451550913 62.33185079248966 871.6737553795963 63.434668856140775 873.7227118796998 64.70324152335144 876.2991714226648 65.1895704685212 878.1117937327444 66.69101408389366 880.606899159008 67.85764558555672 882.4733620532193 70.0052724116714 884.4893536215254 71.89338056751973 886.9363263993189 73.98354323236941 889.1396216316591 76.38854023611384 891.0591234336448 78.95573240039289 893.1061238434374 80.79003203916392 893.9916234802511 83.36668398445477 895.9693911198588 85.28916802248841 897.9974719676277 87.56342764594422 899.3480400926253 90.28989686881869 900.5841929679618 93.05795706109086 901.6086712180133 95.39615839077567 903.1698557555044 97.42186627652791 903.8671538507647 99.86739603687886 904.9323572597486 102.19164819795299 905.7498426744401 104.4917859342105 906.910670039279 106.89803355307185 907.9766109905113 109.70540795388797 909.6177707613701 112.14593525377165 910.2805647062278 115.02356857050938 911.2276010201999 117.8702251128152 912.2591660892467 120.75080859854654 912.9433808263618 123.77309639712928 913.5371664704148 126.31825849511984 913.8433106376003 128.88278909389385 914.6074364739745 131.3540366317751 915.1041551447302 134.1192428562166 915.4613821293794 136.91330942950776 915.9912902013123 139.6681579954177 917.6003508508393 141.26214712943454 917.3769396836892 144.2246619388443 917.6803581512613 146.53945431890656 918.4003917880041 148.67149655664252 918.1376022782015 151.03121487974738 918.886496263794 153.15700404189909 918.7475176505559 156.15152177147775 919.8593144894048 158.85775668310328 919.6741913850619 161.86843620803756 920.520312679223 164.30450618737666 920.0074001460575 166.94182899936015 920.4103547501061 169.45857968726102 921.2511529132576 171.8829772588433 920.6525251440085 174.58786535418915 920.9321177902525 177.12356767116785 921.6582762343623 182.0655176070078 921.3190388671626 187.12201106072632 921.4728003924222 192.11606995976695 921.5027189540629 205.60449913454283 921.6336808037315 219.09879658025147 921.2612540353548 232.58324944029687 920.3851179783899 236.13028251507365 921.4063253889053 239.9598263380334 920.3088304562643 243.45208888410457 920.2181127597137 246.05506788095715 920.2703820581858 248.6682442010698 919.6036117985975 251.15757755756363 919.8022030657369 253.9958966657574 918.7034254509247 256.6138189099032 918.8477271951726 259.4503101960031 918.0997631541543 261.80675767957166 918.1141612615247 264.39854527448153 917.6306862841857 266.8432092243669 917.0741946242572 268.4853630739083 916.9393205939668 270.2218261300791 917.0146461044642 271.973200366489 916.1016329350803 273.12694091233266 915.1520312567663 274.88033537316187 915.3100256331907 276.9196717569821 914.7968244965364 279.5089901887126 914.3439414889779 282.03661160801335 913.6357405952635 284.5599039749868 913.3934098660898 287.29432582732204 912.1379205570242 289.7684594000883 912.0084337918524 292.4907919729611 911.2119202306583 294.21009915509353 910.8580923537622 295.91048677520246 910.0844105352135 297.5948408681728 909.3637355573851 299.57514180506837 908.9447153591434 301.8884270335798 907.5067645112399 303.68623436458324 906.2249481506128 306.1580270423873 905.1530106602308 308.74381809814713 904.3123407652968 311.38444381672116 903.3840636780769 312.64740474943335 902.9513829147131 314.2030096194802 902.0780366914705 315.6119077162083 899.7117125551845 319.46530942755055 898.0196944362419 323.7462932406265 895.0090149113075 327.1847472696202 893.4093819757379 329.4578524791219 892.0382588689486 331.7551683146031 890.3113517949521 333.93175169073027 887.6628696480802 336.8276632284061 884.984885811273 339.754455339351 881.9268753142253 342.21864812529134 879.8334738768935 343.4222208734817 877.9877583667997 345.1466587842988 875.7587774239835 346.0666946385692 873.6957434870526 347.1104131211873 871.9434713731227 349.0979291452953 869.3950705026502 349.5940706090739 867.1141088648506 350.428262959044 864.9449650453157 350.9093970414208 862.609425281136 351.4117595137293 859.165840523458 351.4706025583282 855.6382400835732 351.76985230884407 852.2391964642864 351.1974233229397 849.8390736527922 350.548995418398 847.2881074179772 350.18420060893925 844.8637739805038 349.2734000663007 842.4727902794784 348.53059882102093 840.3015621014158 347.91064646067775 838.2746356676009 346.70803572411546 835.9000382313113 345.9238038447095 833.3118421464806 345.5002301247604 831.0749406412579 344.4633419247034 829.318371542055 343.57870809835515 827.1955325488968 343.69366848793925 825.300658244596 343.05614338185194 823.0357622009892 342.7372685941183 820.9602541799441 341.89990160577474 818.7102051824677 341.57730703974494 816.5324673923867 341.0884127302329 814.3744829077405 340.72162976340906 812.2312813351161 340.09847069763805 810.7120725716741 339.51629332723337 808.8952174104297 339.56657446834026 807.5758184621898 338.40266866629065 805.066475263827 338.2161346115596 802.6801733527261 337.331693187537 800.1302332636483 337.09786022774676 796.956973773528 336.6123008918796 793.8015114985315 335.9675286315256 790.6415919029905 335.48456672705504 788.2785706732952 334.93573909309873 785.8567384660553 334.6164474336596 783.4553650394441 334.20188455596235 781.0104766201787 333.57304962158423 778.3989677868883 333.7694923960871 775.9801498827505 333.01338332328226 773.7189415503856 333.05401228105154 771.6428242553093 332.486297152126 769.5119684985816 331.89081195419624 770.8021543603752 330.2675455996242 771.7017635010709 328.4936282240574 772.8091992205382 326.83021391753016 774.1238843117994 324.85619812327286 775.0977607502016 322.58482453470197 775.8254263458623 320.54532781561045 776.4025371216912 319.04019648899623 777.0980715289663 317.64774879111224 777.6474763698996 316.14313053736635 778.1169701115737 313.50462124437445 778.9314412231631 310.96317892468016 778.9002720464057 308.17504475643045 779.2621487539252 305.688180563116 778.652746454439 303.0467852352392 778.0397847119282 300.78275500209793 777.5789811419631 297.9753164671731 776.0692642265872 295.4222979408846 774.508753097236 293.1170294759427 772.7983284891382 290.50035784691374 770.2588101927004 288.6328688069658 767.3962483914729 287.4610745095641 765.1933379637842 286.2158787249217 762.6052060130619 286.40975613508215 760.2539533922863 285.78717427628817 757.7134410171661 286.071384578348 755.2071121219053 286.52285663551845 752.7147003282009 287.15749570672074 750.2978705814282 288.2312610191966 747.8411494191346 289.06590230792654 745.6500396674198 290.6777207241216 743.575237121569 292.4332316105332 741.0934074557761 293.8718558665764 739.2475957445195 296.0354520857212 736.0011271694841 299.29426647665343 732.5547846451382 302.4415837198634 730.1438873034067 306.383714970391 729.0813775269821 308.26948223127715 728.2993903413756 309.9377065959459 727.7248449298888 311.8872231607353 726.7626729662979 313.21643462758436 726.1254364636993 314.73262908792435 725.6083231464233 316.38382584677186 725.1220262683078 319.0123302188291 723.9523483964883 321.495314298576 723.6503088122502 324.1084585516344 723.3886737164016 326.6563142821843 722.5934428373785 329.1903811793949 723.1924233442244 331.80589839447 723.6564336196172 334.39996275023327 724.3161170602102 336.64577889654515 725.5743320688891 339.00745330996085 726.5963732228158 341.86052326312233 729.3862390119966 343.7429876174177 731.7972966889995 345.375296881296 734.6566838518534 346.7612029001074 737.7873903609477 347.5735896531688 740.9352848111346 347.86620152344926 742.8014591018573 348.8385708103003 744.9882077341902 347.6714262357689 746.7419869996711 347.12288720530114 749.4209649151608 346.8794341292278 751.8217290677405 345.48159916622535 754.2771675478632 344.3713736130361 757.0300279564078 343.1107856423405 759.6994498897232 341.9915171798451 761.8569533685552 339.8255479986839 763.8660505201917 338.4306311376205 765.5486088581224 335.1513258990051 768.267446122079 335.75841937058317 770.9064684879393 336.48852206236916 773.599908644908 337.1067748688357 776.3887482883522 337.2117303374855 778.935353403785 337.522492160487 781.4025284257732 338.1150913235317 783.9493259435319 338.3049282848534 786.2322757386969 339.72880169592906 789.5372346207341 338.6676708028384 792.1281884722328 339.81182329945307 794.5240784325624 340.4687810404324 797.2777725845181 340.15147753835845 799.487737764148 341.0622460139426 802.0113187346099 341.1347175566094 804.3488145891006 341.88220059181367 806.858702927386 341.9921585209306 809.1688455845781 342.58517455568096 811.477577291382 342.9891553054666 813.8538742815483 343.2059606594355 816.4789474787979 343.7764656220834 819.0801627876651 344.2483643928283 821.7479813682664 344.6594960957177 824.0696360979441 345.3168707084027 826.5180198261257 345.4412267448902 828.8302468418458 346.0666946385692 831.3368964076492 346.57184694459977 834.6256934943308 346.80157532144244 835.5001941315277 349.87276537779803 837.381728541249 351.9253133879804 838.294292771873 354.27207662115734 840.0537158389063 356.3858727050093 841.6498213985055 358.57400022067634 843.0250811552967 361.04649837367447 844.998423541414 363.01836567529506 846.57936138434 365.129468126588 848.3943566564362 367.04557082082033 850.3155900793529 368.87095581850235 851.9724306397534 371.109236207059 853.3089213279234 373.48941331079266 855.7075369878664 375.13701855956117 858.3509204731085 377.5941886606148 860.5874051066257 380.4783957234795 863.5031340838448 382.62172556432097 865.4107390086938 384.74655271484437 868.1257602931914 385.7904315327339 870.2283649751005 387.5807351730364 872.801842282018 389.19604889814764 875.1785240768354 391.20088113156544 877.8758443473719 392.7122013996552 880.2097166247293 394.7700404737934 883.3215997729628 395.7853154792675 885.7773268565738 397.61637634555666 887.3532622390326 398.05473297752746 888.6188526701953 398.99038548723104 890.078320511519 399.6186752816865 891.981788786366 400.2996191792653 893.9437473682151 401.2829553986792 895.9743294462176 402.1259982556297 898.12516297776 403.42227685773594 900.8681146665328 403.64379606868374 902.9085413301987 404.9758935704176 905.4407483382611 405.34530603569226 907.7882491136863 406.3681167989216 910.282777332973 406.79794359445475 912.4969753637672 407.3838407431556 914.7861141004078 407.5550788129965 917.0146461044642 407.95610939378855 919.5249513144554 408.3507586307795 922.0717808992683 409.0489866706138 924.7013755511709 408.9417223740562 927.3771146941788 409.5565760727693 930.1636134426603 409.58575709216166 932.9358423519886 409.5591093700573 935.9807374238369 409.53473840880656 939.0747592228379 409.67387735731575 942.0298665427097 408.94342192793283 944.4959512848525 408.910841800787 946.7317945772838 408.08117090547 949.232030732232 408.08344766632376 951.2150573687411 407.2756144349696 953.5756094352571 407.3631895602009 955.572360770997 406.44693761833526 958.2149105128278 406.2930478248584 960.5215578611037 405.1373832557581 963.049788554436 404.4287334232838 965.6453600617504 403.65251830744717 968.2414767089874 402.14620049982443 970.8575069969309 400.98405838576025 972.5158547088822 400.46332149135094 973.8087983373437 399.3562064424267 975.5089614880726 398.8831532577276 977.2292627488878 397.6935296781479 978.9169197484487 396.4498089780021 981.0527779656436 395.9209911859149 983.4302293697638 394.5407610357106 985.3771805702111 392.58168848874664 987.5039638110454 390.82595313295496 989.6058630177606 389.3032490605967 991.7193384310699 387.83505898050987 993.4550960120469 385.87059916842725 995.2453355182408 383.81340143537454 998.2859977389244 383.08147092149466 999.3508163432568 380.4175003874068 1001.309664420841 378.29145468882064 1002.8020971939616 375.83024413892826 1004.822257479324 373.77455355742654 1006.1676307415287 371.50103147621917 1007.5586995560786 369.3652373931328 1009.2309002354777 367.2621196383552 1010.9755403904896 365.3218704522519 1011.8514840451287 362.96670565085435 1013.1653353929789 360.85233236002523 1013.912465690586 359.05442882785906 1014.667773087034 357.1904350968272 1015.5850191075822 355.61090820428956 1015.9291948011407 353.4759799316686 1017.1923160691242 351.74884838829234 1017.7808747833299 349.55841204471756 1018.7667443000316 347.4221369558171 1018.8625285911583 344.4291905118981 1020.4761427623926 342.91658756163713 1020.85187243736 340.37777474039353 1021.660411143908 337.96941069594993 1021.8992144971114 335.4043349572531 1022.6845045893085 333.2726454571142 1022.4402819039326 330.9230923902154 1023.1312948565544 328.75904723231065 1023.1474887189645 326.19198333624877 1023.9808793925774 323.7511353658224 1023.7641381727174 321.14754709493855 1023.7396710103037 316.579018006158 1024.0000234239812 311.96184319603856 1023.4772663051524 307.4258942344037 1023.0171361433272 304.71651675145915 1023.1389268154724 301.915972633204 1022.5217963559055 299.2322808607354 1022.536996139633 296.6347532631099 1021.6029469826433 294.2836609776058 1021.2391141848127 291.7430844683769 1021.2153845646476 289.26070966266127 1020.2335875638391 287.31372639515985 1019.3085492491014 285.2996267830558 1018.190338999397 282.72800936528654 1018.1272951706878 279.5748238511437 1016.743184906916 277.1225279423404 1016.4782789715312 275.46498190674595 1015.2952291380782 274.2608640186327 1015.1145312872254 272.5802938380672 1014.4570284063234 271.12922756496437 1013.5963486695202 269.8790613869089 1013.1216279979988 268.33214668857124 1012.0637358773902 266.6951556347684 1011.3851970088822 264.1926427189668 1010.2052576796941 262.64175170589874 1009.3172247455923 260.31858982466997 1007.6677596076759 258.18138479119546 1006.5293471137768 255.87887409292125 1004.8275485432796 253.40063593720754 1003.3835690891722 250.85887294697034 1001.9076508490045 248.26400691485003 1000.6564905922664 246.07392330887217 998.8140138546546 244.30600247245525 997.3382880168126 242.22812148939374 995.5992275292451 240.8867886760279 994.4224949054849 238.9002346635482 993.6549058272487 236.89665304524715 993.6005842373029 219.70079139019947 993.8068074633604 202.50124202390987 993.4416919833589 185.30852294018132 992.7676104353955 181.35446274546257 993.0877679053001 177.30622161233146 993.0135647417023 173.30383636681677 994.7854939599042 171.49605618193323 995.6212575955337 168.90455719051192 997.7306925600042 167.31220347626322 999.4114551428954 165.24243545793388 1001.3925256890936 163.36433222302003 1002.594238548136 160.95176739446617 1004.0202604518483 158.67093402488365 1005.69877834094 156.55624006351172 1007.0273163996492 154.32017230170027 1008.7137548511475 151.21944848835517 1010.4025662646625 148.11054757616932 1012.1169671874904 145.02095103065858 1012.909440299846 143.5637599501888 1013.3966029884268 142.06436862629005 1014.3023369364896 140.77395829511659 1014.8591492669609 138.14093246840616 1016.0586815663125 135.68520538479515 1017.0132536380397 133.15796877014554 1017.6615853414185 131.3191476767214 1017.965997887673 129.4286986259109 1018.667208163555 127.69005501004904 1019.3634159789699 125.45456445521461 1020.3187897270539 123.31107427910172 1020.6854123586065 120.97604758779039 1021.60929625939 118.71009333139239 1021.4743901620454 116.12500775082663 1022.3191005058186 113.83577281302337 1022.3933998705791 111.20938486654836 1023.3023084570154 108.76795968914485 1023.1804215837074 106.12438380157721 1023.7748165017915 103.61356551871779 1023.7804603033444 100.98018695441033 1023.7942491366837 98.37191689360202 1023.7570834207763 94.62632461874011 1023.9462790410123 90.84068059308584 1023.4772663051524 87.1252313492447 1023.0464454309367 84.41165308218967 1023.1139465801905 81.62903444727561 1022.3985305992635 78.94813250852917 1022.3810861217366 76.10070635692068 1021.2881126437487 73.49881763991351 1020.911901962967 70.77103366781364 1020.2312146018226 68.13630828722654 1019.0754217645053 65.6713779590379 1018.3465376207819 63.05602107923431 1017.6517086887011 61.67530992321588 1017.5619530037789 59.989031806988976 1016.5173366436409 58.80758532624981 1015.9752430910828 55.142353089406924 1013.4405669198409 52.13606675090858 1012.4802869124526 48.62700106839617 1010.9731674284731 46.93277032270851 1009.8472290186878 44.63757091280962 1008.3248456168724 42.787526350388475 1006.9367269713159 40.68918658669804 1005.6636007823979 38.482524313658814 1004.0674631557445 36.54798306321686 1002.8583748742183 34.301236972331026 1001.002301705593 32.407709484309805 999.3179476126227 30.47999851642902 996.0223202433801 27.45979507637429 992.9924966870421 24.170003911010213 989.7931987488487 21.05440098448048 987.0034291608308 20.006417583643497 985.9803618611672 17.42999010773258 983.3973927061838 16.08121773777441 981.369889065392 14.564189534023171 978.9004372825502 13.632224735561522 976.6531460517415 12.389690516424139 974.3257833864027 10.891549807642207 972.2089088653399 9.260843896477866 969.5319832413238 8.3574829104316 966.8983802076364 7.101063656792064 964.1030950862828 6.147229127313324 961.4085967165227 5.193907670703027 959.4773583726715 4.510943548704745 957.5581131071199 3.6402588909670612 955.3347759658564 3.3952665962883657 953.2740829238876 2.4678232524798887 950.9826353593392 2.3497202915764888 948.7632424657518 1.791048071957107 946.5635708105451 1.1974227631754388 944.2020887994549 1.1188584801959678 941.9337295139862 0.7387356187927026 939.1969667666888 0.6027713086568838 936.2446172134848 0.9772183014530924 933.6906366755679 0.13728594876738498 930.7249472277847 1.1488411759453356 927.455197971344 0.482295385737018 924.3652166211818 0.7551539505826668 922.1141735450228 1.0945837201080622 919.7733106498331 1.1885401891406104 917.6031727516158 1.791048071957107 915.0473323245508 1.9893828026623055 912.6603570053103 2.552736812206149 910.223581550777 3.2929406260894325 907.9454738808081 3.3952986633426576 905.8580048485176 4.203773235782307 903.8671538507647 4.873237127929826 901.3579709876733 5.799654326001473 898.6308604237133 6.803673795424231 896.0107255528224 7.759272012888289 893.3157141101938 8.41658249146468 891.2149372503784 10.298886510488842 888.7733838047579 11.2805552430803 884.9343802007861 13.239210918338756 881.098326765808 15.254400810288075 877.4703243789811 17.57676101515989 876.5033423572486 19.57877134780125 874.0203262104474 19.73311008003793 872.5228909768596 21.54810535213403 870.400244386027 23.31076719164946 867.8744507888198 24.497344401073065 865.7763675615638 26.219377282819153 864.3445415210274 28.824280302928344 861.4157612527172 30.057899880976663 859.5129343189556 32.27636282998992 856.7211124394639 35.026080667215524 853.8113158672859 37.68803097688402 851.2749401421675 40.67417920529624 849.7630426671005 42.96434408767357 847.6082969549363 44.77007198108345 846.025916094568 47.01194387971918 843.3138770461183 48.7418973238718 842.6628196431259 52.083797452436556 840.3362907211979 54.20868873706854 838.3987672347084 56.09458426617181 837.9950109543026 59.318830372593084 835.7075076374304 60.53138189598121 835.0198296584533 62.2982765866613 834.3714338209661 64.44346631665093 832.0593992075717 64.74441562104352 829.5086574421368 65.0848394692515 827.1072840155257 65.93391093240626 824.5331333004685 66.15074835342944 822.438609516237 67.28467145972962 819.8489062798553 67.64802325174588 817.3676217539851 67.94778607513024 814.8765567765604 67.97417726080045 812.7267173237005 68.91553770616537 810.3916906323893 69.32801622533447 807.8898831917816 69.86081033215203 805.2580117790253 69.9869941907333 802.8269442601534 70.73521476818593 800.3682670075486 71.2245580164577 797.9523351382957 71.52788028286687 795.4805103934375 71.89338056751973 792.9842505532197 72.2919099180782 790.4577194137644 72.95415872301334 787.8484232072192 72.90807836601681 785.5205154019575 73.50458970968344 783.122669351317 73.81506292919642 780.7296654258723 74.13807436693185 778.045075775884 74.54282472602006 775.3806242359817 74.86371973817319 772.6126923119268 74.96934861496266 770.3632525884816 75.64115340207246 767.8467905040693 75.61517908810777 765.4978146441472 76.10538814684514 762.6064886952331 76.32430992639638 759.7939835657326 77.1551031686131 756.8846359323145 77.35398303924103 752.816930097237 78.002571279054 748.6428257760674 77.91262319180612 744.6361756123338 78.8868523678052 737.6105084895539 79.36596622576263 730.6346735691209 80.3954148692273 723.6093271168838 80.89190907060294 720.8821524188152 81.8921766946753 717.8679455179104 81.08078402029633 715.1372755109257 81.96044745323167 712.7912177529429 82.43670734335831 710.246825264255 81.73738902367865 708.0128739280258 82.6626518077963 705.1981882388343 82.92059919240302 702.3176368201573 82.58498540233666 699.5883777635606 83.41215506742003 695.1000804445821 83.96944840370548 690.4981054181901 83.60904678068277 686.0848129391661 84.63166514158632 683.4962641167383 84.63326849430024 680.9608504032481 84.83259730368803 678.4569906711667 85.31257697211083 675.4944117276482 85.42404205277882 672.4828022581398 85.18591210771547 669.5951640204676 85.91264775880222 666.7000541591487 86.09251186624374 663.756971984631 85.82564984054795 660.9292991384573 86.53455620945647 657.1539165701718 86.83075958981613 653.2876880371186 86.30168526129466 649.5921203669293 87.17948880508197 645.3449352290618 87.47258168117662 641.017710723718 86.94671405808288 636.8404958982835 87.82163156698516 632.3281162215424 88.11241561517193 627.7582082494278 87.63791941303043 623.280428924252 88.24757824895073 619.0173064604085 88.97732820313956 614.5811501716846 88.15156948844447 610.3180597748956 88.99204698105291 600.888197324728 89.46987815683917 591.4421730792048 89.58432547355494 582.0079174426016 89.97599247449807 573.0996576973089 90.20094286025346 564.1882553806972 90.1553114420168 555.2780716121479 90.1716015055897 555.2189399640606 91.4402383069089 554.0719334996152 91.12687905251096 553.1452918321638 91.1336131339092L469.7478624320632 91.1336131339092C469.6883459793244 89.86571387483832 468.5419487889105 90.17705290481683 467.6150826520789 90.16906820830172 450.3788165086418 90.16303960209768 433.13594455202343 89.86821510507207 415.91988065278105 89.02497984579566 410.91722778319416 88.3003926873455 405.79855631123183 88.91402783799617 400.8170035633595 88.01294361280361 397.4200443026005 87.80918954992558 393.96905205538434 88.16131787294478 390.63170544852704 87.41726601254823 385.8307543503444 87.08373658100982 380.977437752527 87.57788988742323 376.20377571753437 86.96489607785816 372.9054867827868 86.23578746475482 369.39924300105076 87.11455302017032 366.13892145856755 86.14035591122547 363.4454813015987 85.77751719207765 360.6112667763524 86.38057021481688 358.01967158376834 85.49324275590925 354.7091009672325 85.17725400306063 351.31268684639633 85.67358786916486 348.07891682485473 84.81175371840772 345.623927283492 84.60181071405412 343.07613568705074 84.96432876265919 340.7343749143411 84.16608358053395 338.16596420199954 83.99228014635094 335.5402496636644 84.25846876390693 333.0525517269388 83.52955255312929 330.4568519514072 83.41956255695806 327.8463692638538 83.48930840001123 325.32900930192164 82.85098161756702 322.38820388825764 83.10100843976721 319.6361451560698 82.05879710870016 316.7193900331137 82.15483793626078 313.9612064935589 82.29753632779477 311.38583723043917 81.228645207569 308.6115880966915 81.45853391968313 306.0957352863104 80.72429457789542 303.4425072154053 80.98859123924905 300.8498858770843 80.67709187399919 298.02429738943863 79.75141221817597 294.8963165799579 80.69899367207063 292.07120909812636 79.67583017124429 288.2766183643288 79.16673361753766 284.35680578357824 79.38312209980097 280.6641882823825 78.357457368741 277.85578773582944 78.53623119633704 275.2665975723162 77.43338106563164 272.46679099630944 77.41561591756198 267.69184627914575 76.84751598398503 262.89326814297965 76.422435112485 258.1277832068278 75.82416008083311 255.5485658971947 75.3441804124102 252.94391941351978 75.15264389721182 250.35950724109375 74.77941545247813 247.85834114157166 74.43289886395746 245.2012970912076 74.31729713328775 242.81483484483545 73.69208577604297 239.96477919477616 73.49368691122919 237.34621560954486 72.63804170194754 234.4404274191516 72.76117919037245 232.01375308671578 72.21805949207754 229.55751293023621 71.81494455275742 227.07305376599265 71.57271002474658 224.63528423277683 71.31255001339468 222.2523172953209 70.87916377483674 219.8590247663878 70.31532875947875 217.1713887462431 70.17465059236417 214.67621918587082 69.14831245316435 211.9908278595256 69.00150947868286 209.35084348203702 68.42715646952189 206.67837517856555 67.71122741572651 203.9436326556875 67.34736255084175 201.19914174830922 66.78541949168607 198.7616287515276 65.84316116880143 195.9811265421958 65.27999956158328 193.6998442338533 64.93505425872218 190.47178535467845 64.66039993883692 189.65794596405817 62.09769716215675 187.519371667366 60.41116250949557 187.68543090794105 57.592083633868185 185.36154110458028 56.270664461208526 184.1016489889625 53.868457291186246 181.69122303292897 52.14668094587432 180.6485884167455 49.62592187618884 178.84838567678753 47.1074716344113 176.348460572266 45.15593484520247 174.40028761705082 42.74016331122084 172.59675952356434 40.43216914666533 170.71594982926945 38.198442279816106 168.55021794430985 36.20284535803012 166.0259282919484 33.720214015880345 163.50343118792102 31.19778745937242 160.65315427518726 29.117244910805937 158.9541743987611 27.124534023904914 157.3675638939335 25.439025516980735 155.13013007560977 24.038945860178785 152.49217233595152 22.642618048727343 150.18263253937982 20.61325451878747 147.89379523304962 18.761799005978048 146.3494523124649 17.10736347464848 143.84321320495616 16.133166365703687 141.81284918292278 14.788915450398633 139.03406576770027 13.204578499719275 135.98300099460909 12.09771998722914 133.2939155436111 10.376905653545577 131.11592121709583 8.860037785065686 128.4085126512838 7.957446408322085 125.89552342884966 7.06732911569236 123.22790045727945 6.059686069136262 120.73492428341979 4.762926461215841 117.90706224162588 4.468615037058669 116.1577595369223 3.1975411396144295 113.57576522038886 3.791936057698763 111.77732937512158 2.6513109370546317 109.33187978240633 2.310983290009517 106.98507486205898 1.4762778671709498 104.4807052638146 1.3458611574251336 101.61230405200331 1.1181530050018864 98.80603275785427 0.2991925058135507 95.87634499190813 0.3684252759982769 93.39598079049577 0.31214759574157824 90.86241734603729 0.000006889406222398975 88.40196357862573 0.37294673065133566zM647.1703843608523 206.57500853224576C644.7400864512831 207.1068726944893 642.2194235827603 207.7119780087022 640.2955285943385 209.46104341720422 638.3820233315025 211.03771634191128 636.9268845425065 213.4782757088492 634.5590532546696 214.71167081751764 632.6486905631527 216.49081512293162 631.5601423386549 218.78348123554258 630.6370601142282 221.1828344377342 629.316506752034 223.36419580494862 628.7032243389804 225.8867826967279 627.8201617982916 228.17473495236004 626.7138163586701 230.3919472862566 625.8278036489878 232.89215137415033 625.8392515873647 235.40566328956913 625.2637120971954 238.1631734209841 625.0990798405358 240.9971314097961 625.2099997812809 243.84365968388488 625.0001850451445 246.62990189593222 626.0666390692452 249.16207683694063 625.9344907385685 251.94257904627227 626.289569230581 254.47747968689407 627.8077518482864 256.6460462994519 628.5053385470351 258.9524050442393 629.594944984324 261.4024241921891 630.4759873005933 264.1395717441378 632.2592041219004 266.2447417903893 633.6631959593242 269.1459123249666 636.3330026972908 271.23674839795615 638.6143491397418 273.4593159299169 640.5701187801153 275.1923478112801 642.8861938423486 276.3868776501645 645.4256159376237 276.8018573995672 647.6654996788939 277.69181435692553 650.2926572346717 277.4527865343424 652.7420350415359 277.3561043656963 654.4497339500201 276.91540683876315 656.113597195307 276.4617862889562 657.521308811027 275.51917522847464 660.0471986093969 274.1434665329234 662.3935770379223 272.2231630545807 664.1503064723966 269.818935660139 665.8237256998584 267.80313649415837 666.5994277428265 265.53901005985415 668.5102073060489 263.823101985475 670.1496995900852 261.20171649946735 670.824743149677 258.12408096520187 671.6780795310506 255.1960382391402 672.2330640394282 252.86700808697879 673.0487536990802 250.584539297628 673.0785439925039 248.1074555558681 673.9937377215786 245.00435878050655 673.5412074516171 241.63844042828805 673.5373914721581 238.4249367850498 673.1312301626815 235.78350939011875 672.6904364345855 233.20804392583614 672.1699881436648 230.59868358518236 671.3605836266509 228.15741874305036 671.0409392296147 225.37162546976288 669.7776576263598 223.2498767564499 668.9436897457697 222.05262121795204 668.7150516487725 220.23233488190021 667.5329638269477 219.40183024317207 666.4547411939272 217.73411895137167 665.2223722309957 215.30523199219067 663.3662349282617 213.78576669231438 661.564323014311 211.89688892716333 659.6327319328627 210.0825029290986 657.3821377954634 208.81970233165782 656.0388488917868 208.04480196504653 654.6921608803566 207.1005554847967 653.0499428967066 206.87037816919417 651.3448414196189 205.95588991531372 649.0528166480935 206.1371008390347 647.1703843608523 206.57500853224576zM714.992204157375 217.7984775293063C712.4371654066672 218.1206872906847 711.0323398258322 219.9950707473024 708.3981275181134 220.63391060261506 705.920274167051 221.75119090774524 703.8284440153789 223.59597647326507 701.7040337365609 225.3052466674087 699.9071563501316 227.31687711633333 698.3338504661237 229.53113928123628 696.5229597769751 231.55710370342285 694.33874444193 234.7617247726264 692.1001433828305 238.02913313410488 690.8477325109757 241.73175555623516 689.6387083635582 243.1202590064429 689.4211013332322 245.31348518373989 688.6972196499762 246.97949692166355 688.0330147547302 249.14485682879354 687.7659282596544 251.4114203592228 687.1488298671418 253.6598018698768 687.2343527008993 256.24334823183733 686.2036213752635 258.645940206511 686.4525258505639 261.2493360750691 686.4584903226596 263.98488027430403 686.8145308263006 266.7726296379026 687.6410270832441 269.30980703937803 688.3752343579777 271.5632872116621 688.5543288561164 273.91694486150845 690.1125311575597 275.765770875867 690.7425846400004 278.41842173979524 692.9769849149895 280.3772377503251 694.8313264626838 282.33182090969024 696.6402610615216 284.3969712722038 699.2842538207947 285.3193159543822 701.6673490264677 286.076002234164 703.9196427177435 286.3717246087094 706.4799404653529 287.4461953963794 708.676405415132 286.19548407840125 711.6618161012959 286.18887826522007 714.1749752791177 284.47835745595955 716.9581069869 283.57005814355466 719.6053385186553 282.03404624367124 721.6086956675763 279.5419871875639 724.0450863174583 277.60728560185055 726.4137513487065 275.39799383036063 728.770070564058 273.1324243786139 730.2521136115927 270.21669540139476 731.5371687447018 268.7551432015432 732.1235468992168 267.1370075756556 732.9497545526717 265.5783884025067 733.8011669107889 264.2248701085156 734.0300294771662 262.606061074488 734.7492614375519 261.13960261533214 735.8847558295117 259.44931611732056 736.2398343215245 257.08626282057094 736.6732846941909 254.9984731177376 737.5536536023203 252.7421710446771 737.7609350411688 250.19341743660755 737.7377184938721 247.71194050841166 737.6954861833888 244.1591032968107 737.9582115590829 240.55508706658338 737.4391421514961 237.0387100956957 736.9473938741535 235.30301664882745 736.6791208980694 233.45678806586534 735.8357894376302 231.90798141132518 734.9838319395903 230.1596535450717 733.985392137612 228.37999616678917 733.270425095445 226.33633073064163 732.0061494135075 224.33909838908755 730.5119208853475 222.13875332574094 728.2172666153713 221.18649008192176 726.0328909450548 219.78836651543088 724.3391412051812 218.2480896973285 721.8866208269978 217.7984775293063 719.6871736411711 217.3050617651412 717.205215707161 217.37769364307928 714.992204157375 217.7984775293063zM584.3189579773134 254.35491940544625C581.5200172117723 254.79173681881184 578.5898580601281 255.39639319426487 576.561264139491 257.6144713386268 573.8521752600348 259.0959371791846 572.3350508551207 261.85880250866376 570.3316937061995 264.0571914816993 568.6840243233225 266.1871814279615 567.8262947555131 268.6821585860081 567.2876003107083 271.2760626065002 566.6680006879619 273.64511244239975 566.2713312265516 276.317452477654 566.2226213711044 278.89618878147303 566.2671304424414 281.93322742502323 565.9945284140299 285.0314500081347 566.5217428534031 288.02532639662775 566.8706644709946 290.6702811675293 567.5140257809605 293.2274363438196 568.5502085058233 295.721932496052 569.8814081300375 297.7896802899618 570.0385366959965 300.46609284110946 571.3318009950005 302.337814732222 572.6782966041051 304.68396869136757 574.3318021908606 306.7187836205346 575.9991607450638 308.86891167688293 578.3750087964702 311.76617003083834 580.9683676770396 314.5628661025803 583.908179012021 316.8856752462119 586.1762496940014 318.8206333683594 589.2980094949523 319.4176898519488 592.0150510038693 320.41305121671655 594.3433436137823 320.7708874753971 597.1106341967518 321.0684697390907 599.3034755693975 320.2885348449578 601.7657763991353 319.91976372076863 604.0876235311387 318.7120863896307 605.9756354858243 317.07913578466696 608.3124258651208 315.65401175847444 609.8783883936992 313.12639033917367 611.465899982752 310.9260132087727 612.2832571292265 308.9931073780989 613.1822890629455 307.319656083583 613.6603126410573 305.1622808729679 614.3986886328469 303.1695379190128 614.9358117919919 301.0286772413506 615.0371757505625 298.77888478030843 615.9511188645201 295.6638590607556 615.5002240143269 292.28761511706 615.4991658015356 289.06272766955317 614.995713049382 286.6969166061356 614.6133775612334 284.2377262806626 613.9809831838304 281.93258608393774 613.2974739219096 279.9688317470492 612.8248376089161 277.6675075297834 611.7615902902432 275.8926922766967 611.4740770815927 273.7392933808122 609.628810510259 272.1145840087977 608.7786167002046 270.166766997885 607.196107571619 268.1610368869474 606.0308228862355 265.80253711190517 604.0917922481947 264.0271767188958 602.5132594343397 261.8752208404537 599.8032726773638 260.7088138081707 598.4778771899737 258.5604494398076 596.0199695466717 256.968095725559 593.3923951191884 255.8555292774074 590.5006522985686 255.21175109573608 588.6146605683027 254.6510586516972 586.1536103536816 254.1118832010784 584.3189579773134 254.35491940544625zM668.4949754552672 287.38398531108135C666.0017940522603 288.1198921396915 663.1708824336044 287.218936182716 660.7545978267544 288.32069603357604 658.0626648213367 288.7980462035482 655.4112645725254 289.7728205194701 652.8518967694899 290.83523409473185 650.8010803802385 292.5034584594006 647.8869226886789 292.8492054386186 645.7024508171996 294.4846893408703 643.1897405781376 296.00194201400143 639.5641432203815 296.49968683049394 638.306922290385 299.26130154485645 636.2681951805962 300.56700786092006 634.0039084110206 301.4749865027824 632.1057953342379 303.1529592519514 630.2293916532005 305.087468435339 627.8240419118592 306.34424042657565 626.0308201696175 308.3879058627232 623.9636495826844 310.6168868055395 621.3400514699317 312.1695735736471 619.3044027973533 314.4320966552373 616.8784018730573 315.7781112585277 615.6339436306632 318.32240754605266 613.5549723677564 320.1768773619642 611.0696794601017 322.50998003001894 609.157488946491 325.3192463870373 606.7558910504999 327.7184392539575 605.2631055397824 330.3049678519659 602.7993296255477 332.13407262794385 601.2257992721597 334.61596642784525 599.8866470184848 336.49179290190546 598.549482922175 338.4764549581829 597.7209664408119 340.48301881253155 597.0251113629943 341.8567714177718 596.8185674663941 343.8544206310314 595.1960707211247 344.3407495762011 594.8060391399497 346.9892317230733 593.4057029467135 349.3415746236943 593.4411370416901 352.1193511334126 593.3562234819638 355.14971982967313 592.9079260631668 358.2481989492187 593.4343388261832 361.2427487458516 593.8791730031182 363.2238513591042 594.13955748385 365.2094754270099 595.0614211602142 366.91027991882436 596.3079316940821 367.7631994284924 596.8745565431623 369.2769247256531 597.6267855023996 370.68745824214943 598.8680049723116 372.6593896778786 600.3661456810935 374.79749258887296 602.5270803347332 375.9451724614581 604.4652451623083 377.57353747766024 606.6138340000514 378.87404893093094 608.6405359644864 380.37844271529696 610.9025139061539 381.54577969215416 613.1571484923918 382.2540447199773 615.6381123477192 382.6484374205339 618.3547049178765 383.58104356008107 621.303879832707 383.8919336512997 624.2262146231071 383.89308806525366 627.5803002322973 383.84492334972913 631.0158682264062 384.1473798056727 634.2794285413713 383.3194405312868 636.828887624635 383.52370766703325 639.0382755972878 382.4132255774099 641.5764791445001 382.5249471945119 645.068709623517 381.58743479566033 648.7818179723959 382.2424043792745 652.3647020138546 382.2032825730563 654.9810209052866 382.0524712167901 657.3899942237613 382.90542279351223 659.8593177383862 383.3586585386679 661.7153588399572 384.29453551775134 663.9827881808519 384.43049982788716 665.4710522369164 385.7356610040282 667.8024232840401 386.5395499877063 669.9394679822433 388.0848934003843 672.0597416110593 389.3686017172139 674.1824202689463 390.96906839619464 676.2261177721482 392.64309689768766 678.553448370433 393.84660551176967 680.3511274332191 394.5347003624522 681.8032519191131 396.3180454519767 683.9657257913582 396.5061507923674 685.7817151421368 397.52283674822957 687.763362895312 398.0672070616413 689.6063847728465 398.9520332903153 691.6937255369198 399.3650248823528 693.6859233509524 400.2192270741921 695.9316753631556 400.2376335633471 698.5815043263074 400.41615085450894 701.1984324917705 400.14338849082617 703.7351609544862 399.5933743758617 705.3553809389018 398.82533635886557 707.1050235543808 398.44373841296556 708.899463844685 398.0752879593192 711.2700208321355 396.6752083025174 713.6544628540883 395.2176324173963 715.5992976289531 393.19128319055835 717.6332146806005 391.47915902858404 719.1259360572094 389.34455142650586 720.5623156194533 387.1472848003699 721.9087791615036 384.817613307123 723.0427022678036 382.4199275917538 723.6205185188267 379.86569051740264 724.0947581845339 376.9852352998886 724.8353147360142 374.1941830296995 724.5967037851367 371.2254151447056 724.5636747192311 368.234937863966 724.7355220631032 365.2074872696446 724.3198689055607 362.2445235214749 723.3812020927551 359.9346374007172 724.067821858941 357.07816833980246 722.7730183413314 354.94785772299747 722.6934599796693 352.3739635443744 721.5270850144407 350.08113709649206 720.9604280983062 347.666359641193 720.750292691627 345.79652970628274 719.9777332199778 344.2484605939911 719.4815917561991 342.5393186680644 718.774000136516 340.82555908632185 718.1120399350693 339.2199937457109 717.6482541290566 337.2717598630926 716.7001916693478 334.7998389170715 715.6428446886619 332.4940573792611 714.6715336146019 330.19350277129786 713.0188617712577 325.9889347485648 710.819671121865 321.91750913519115 708.7112302360772 317.8849487916016 706.993815010147 316.39562652274583 706.3604265540614 314.5092499878285 705.051417331407 312.71695819016077 703.6490609137516 310.58372947141675 702.4499134190512 308.44296499491736 701.0452481734878 306.2004196881418 699.2892242142077 303.9586760577233 696.4416056602736 302.6055425683834 695.1106305054393 300.06105387853256 693.8427953804771 297.92144381598735 691.3695917522848 296.3005504234318 689.2817699823972 294.70729883166337 686.9304211604588 293.48926384199376 684.9403077049544 291.73756893504117 682.4070104170464 290.9642077870352 680.500046833283 289.3597968603783 678.2223881020739 288.8666696997017 675.8703979390498 288.34599693940083 673.5445424252619 287.5693328848042 670.7716721748482 287.9281311551132 668.5835446591811 287.15749570672074L668.4949754552672 287.38398531108135z" fill-rule="nonzero"></path></svg>