<?xml version="1.0"?>
<!-- Created with xTool Creative Space (https://www.xtool.com/pages/software) -->
<svg xmlns="http://www.w3.org/2000/svg" xmlns:xlink="http://www.w3.org/1999/xlink" xmlns:xcs="https://www.xtool.com/pages/software" version="1.1" preserveAspectRatio="xMinYMin meet" width="5.34228515625mm" height="4.7872314453125mm" viewBox="275.4584657667013 188.31230581008046 5.34228515625 4.7872314453125" xcs:version="1.1.10"><style></style>
<path transform="matrix(1.024931,0,0,1.024931,275.419005,188.451391)" stroke="none" fill="#000000" data-view-type="laser" d="M1.825328 0.166562C1.945048 0.182682 2.282358 0.290112 2.225238 0.388132 1.979148 0.232972 1.711978 0.263162 1.478868 0.445272 1.254048 0.576452 1.365088 0.997852 1.268408 1.074812 1.128178 0.978572 1.279368 0.652052 1.231508 0.622142 1.149858 0.882212 1.159718 1.204772 1.335888 1.422492 1.497418 1.670242 1.787518 1.873832 2.095658 1.790242 2.409228 1.738202 2.548688 1.373222 2.573848 1.092952 2.617208 0.667642 2.297738 0.215562 1.864068 0.163642L1.864068 0.163642 1.825328 0.166562Z" fill-rule="evenodd"></path><path transform="matrix(1,0,0,1,275.438693,188.395083)" stroke="#000000" fill="none" vector-effect="non-scaling-stroke" data-view-type="laser" d="M1.971688 0.361822C2.368718 0.501212 2.528098 1.065242 2.239258 1.380672 2.069128 1.605912 1.749238 1.530242 1.557078 1.376562 1.381528 1.305692 1.404568 1.150802 1.588898 1.125402 1.635608 1.001322 1.342408 1.274102 1.379518 1.047792 1.312818 0.773182 1.422078 0.433432 1.715628 0.348582 1.799958 0.327272 1.889228 0.337372 1.971688 0.361822Z" fill-rule="evenodd"></path><path transform="matrix(1,0,0,1,275.438693,188.395083)" stroke="#000000" fill="none" vector-effect="non-scaling-stroke" data-view-type="laser" d="M3.777688 0.358032C3.935588 0.361892 3.873928 0.514352 3.838558 0.529882 3.982138 0.625022 3.535668 1.114882 3.900068 1.181572 4.033578 0.998652 3.992228 0.689152 4.032978 0.531212 4.257158 0.697032 4.159788 1.047222 4.025218 1.241352 3.928108 1.247732 4.039248 1.408302 3.929008 1.314742 3.781068 1.513702 3.448548 1.590902 3.276978 1.381582 3.168058 1.197572 3.012478 0.865202 3.161368 0.694382 3.267978 0.652532 3.118868 0.892092 3.185728 0.935982 3.042908 0.895792 3.363218 1.037192 3.250608 0.859742 3.164758 0.590432 3.418948 0.280102 3.720378 0.349422L3.720378 0.349422 3.777688 0.358032Z" fill-rule="evenodd"></path><path transform="matrix(1.057425,-0.187693,0.187693,1.057425,274.958946,188.425806)" stroke="none" fill="#000000" data-view-type="laser" d="M0.966958 1.558822C1.225948 1.759412 0.747588 1.522092 0.649778 1.615392 0.401838 1.740772 0.207758 1.987212 0.333378 2.235512 0.364748 2.345002 0.437358 2.562032 0.289068 2.356732 0.261468 2.255242 0.232498 1.931202 0.199628 2.196082 0.251068 2.545882 0.545978 2.870842 0.900368 2.920982 1.187348 2.939642 1.464498 2.743702 1.473808 2.443072 1.559358 2.071132 1.341118 1.609942 0.945958 1.537562L0.945958 1.537562 0.956488 1.548222 0.956488 1.548222 0.966958 1.558822Z" fill-rule="evenodd"></path><path transform="matrix(1.368534,0,0,1.368534,273.779103,187.66326)" stroke="none" fill="#000000" data-view-type="laser" d="M4.741408 1.684042C5.028998 1.745572 5.119988 2.111492 4.979418 2.338632 4.850658 2.579042 4.452908 2.791432 4.261418 2.505322 4.109578 2.265792 4.245698 1.934842 4.452198 1.776502 4.539138 1.712432 4.624778 1.649802 4.741408 1.684042Z" fill-rule="evenodd"></path><path transform="matrix(1,0,0,1,275.438693,188.395083)" stroke="#000000" fill="none" vector-effect="non-scaling-stroke" data-view-type="laser" d="M0.878838 1.654012C1.146958 1.753312 1.325918 2.053122 1.284388 2.337582 1.291068 2.622182 0.967388 2.748302 0.731668 2.645652 0.459228 2.513222 0.233558 2.135502 0.417918 1.848812 0.518478 1.703712 0.696108 1.574432 0.878838 1.654012Z" fill-rule="evenodd"></path><path transform="matrix(1,0,0,1,275.438693,188.395083)" stroke="none" fill="#000000" data-view-type="laser" d="M1.774018 1.691162C1.891948 1.694132 2.139678 1.770932 1.863158 1.752632 1.795718 1.768202 1.673588 1.705002 1.774018 1.691162Z" fill-rule="evenodd"></path><path transform="matrix(1,0,0,1,275.438693,188.39084)" stroke="none" fill="#000000" data-view-type="laser" d="M2.699638 1.812792C2.277238 1.883682 1.996868 2.254312 1.753138 2.573662 1.480198 2.941332 1.189948 3.321912 1.121108 3.788282 1.054348 4.149562 1.310498 4.505992 1.659408 4.594352 1.990728 4.677322 2.297138 4.458072 2.621808 4.426382 3.049328 4.326402 3.469628 4.603452 3.892038 4.478052 4.294768 4.356862 4.517448 3.908582 4.456568 3.507232 4.394788 3.226862 4.172218 3.010302 4.031958 2.764112 3.882558 2.553412 3.707988 2.360742 3.538648 2.165882 3.425208 2.178272 3.440698 2.001622 3.271718 1.972832 3.167778 1.791362 2.884768 1.810192 2.699638 1.812792Z" fill-rule="evenodd"></path><path transform="matrix(1,0,0,1,275.438693,188.395083)" stroke="#000000" fill="none" vector-effect="non-scaling-stroke" data-view-type="laser" d="M2.191478 2.898952C2.243638 2.990572 2.428348 3.035792 2.256458 2.921892 2.256608 2.928942 2.186158 2.854912 2.191478 2.898952Z" fill-rule="evenodd"></path><path transform="matrix(1,0,0,1,275.438693,188.395083)" stroke="none" fill="#000000" data-view-type="laser" d="M4.176528 3.122662C4.305568 3.218192 4.128088 3.229832 4.128658 3.138652 4.130788 3.121772 4.164758 3.067532 4.176528 3.122662Z" fill-rule="evenodd"></path><path transform="matrix(1,0,0,1,275.438693,188.395083)" stroke="#000000" fill="none" vector-effect="non-scaling-stroke" data-view-type="laser" d="M1.721778 3.207752C1.859708 3.247352 1.965808 3.439042 1.766888 3.295482 1.602348 3.232772 1.937858 3.488382 1.968668 3.583332 2.039878 3.700282 2.329608 3.611042 2.319338 3.544982 2.278658 3.416482 2.209768 3.414382 2.154368 3.449882 2.038728 3.336912 1.867758 3.250432 1.721778 3.207752Z" fill-rule="evenodd"></path><path transform="matrix(1,0,0,1,275.438693,188.395083)" stroke="none" fill="#000000" data-view-type="laser" d="M4.403758 3.701512C4.412908 3.848992 4.291478 4.090182 4.268498 4.092862 4.256048 3.894582 4.164218 4.131102 4.243078 4.170742 4.187648 4.223552 4.146988 4.132462 4.173418 4.076152 4.094738 4.088532 4.058318 3.946872 4.043308 4.104182 3.821878 4.164892 4.210828 3.859792 4.230388 3.714982 4.209388 3.602032 4.403288 3.830422 4.366558 3.669092 4.173578 3.683962 4.450788 3.558612 4.403758 3.701512Z" fill-rule="evenodd"></path><path transform="matrix(1,0,0,1,275.438693,188.395083)" stroke="#000000" fill="none" vector-effect="non-scaling-stroke" data-view-type="laser" d="M2.230738 3.644262C2.266758 3.785402 2.619958 3.900572 2.353448 3.735862 2.302868 3.721072 2.284448 3.642132 2.230738 3.644262Z" fill-rule="evenodd"></path><path transform="matrix(1,0,0,1,275.438693,188.395083)" stroke="none" fill="#000000" data-view-type="laser" d="M1.194278 3.852802C1.256378 4.131862 1.549918 4.306592 1.825588 4.299682 1.975348 4.222642 1.962218 4.476522 2.013448 4.282942 2.021278 4.189592 2.082128 4.421392 2.108208 4.232172 2.169818 4.217372 2.148988 4.350242 2.278758 4.301372 2.306528 4.131792 2.465858 4.085732 2.638728 4.133552 2.616188 3.985632 2.802718 4.187702 2.913228 4.131542 3.057908 4.074962 2.935218 4.296022 3.073588 4.245992 3.156068 4.263982 3.308898 4.208012 3.342238 4.277672 3.297108 4.447362 3.667098 4.422922 3.572078 4.249682 3.717798 4.315172 3.863608 4.131812 3.917988 4.171292 3.866418 4.299072 3.942258 4.461272 4.083648 4.300582 3.884648 4.556972 3.508908 4.462302 3.234508 4.413632 2.826348 4.307632 2.408528 4.414112 2.019428 4.541682 1.619498 4.683922 1.160028 4.342442 1.163068 3.922402 1.161298 3.908102 1.152478 3.821422 1.194278 3.852802Z" fill-rule="evenodd"></path><path transform="matrix(1,0,0,1,275.438693,188.395083)" stroke="#000000" fill="none" vector-effect="non-scaling-stroke" data-view-type="laser" d="M2.154988 4.324722C2.042298 4.368312 2.062458 4.502942 2.196058 4.404242 2.279808 4.404892 2.187668 4.294092 2.154988 4.324722Z" fill-rule="evenodd"></path><path transform="matrix(1.111785,0,0,1.111785,275.102845,188.371981)" stroke="none" fill="#000000" data-view-type="laser" d="M3.479908 0.249632C3.832428 0.092682 4.243078 0.388412 4.272398 0.756732 4.308558 1.090032 4.124618 1.429042 3.864978 1.629252 3.651888 1.799402 3.325088 1.742492 3.168068 1.526402 2.922038 1.215302 2.993688 0.754192 3.216408 0.452392 3.300158 0.380082 3.379888 0.299712 3.479908 0.249632Z" fill-rule="evenodd"></path><path transform="matrix(1,0,0,1,104.84401,-16.394313)" stroke="#000000" fill="none" vector-effect="non-scaling-stroke" data-view-type="laser" d="M175 205.11Q174.788 204.79 174.432 204.723L174.434 204.724Q173.939 204.622 173.546 205.117 173.544 205.122 173.54 205.128 173.35 205.432 173.318 205.72 173.295 205.438 173.126 205.206 172.962 204.912 172.556 204.82L172.553 204.82Q172.255 204.764 172.04 204.935 171.692 205.139 171.637 205.575 171.589 205.974 171.815 206.273 171.645 206.15 171.425 206.123 171.018 206.043 170.741 206.488 170.508 206.865 170.704 207.265 170.902 207.688 171.331 207.824 171.616 207.92 171.887 207.762 171.95 207.725 172.001 207.682 171.67 208.198 171.616 208.559L171.617 208.559Q171.561 208.865 171.746 209.135 171.928 209.4 172.23 209.476 172.461 209.535 172.879 209.399 173.113 209.322 173.226 209.311L173.239 209.309Q173.425 209.265 173.815 209.341 174.274 209.431 174.515 209.359 174.849 209.259 175.03 208.931 175.202 208.621 175.15 208.277 175.15 208.274 175.149 208.271 175.107 208.076 174.895 207.771 174.96 207.792 175.036 207.801L175.04 207.803Q175.381 207.826 175.655 207.559 175.907 207.31 175.947 206.975 175.989 206.709 175.85 206.479 175.702 206.235 175.436 206.178L175.386 206.167Q175.383 206.166 175.379 206.166L175.327 206.16Q175.32 206.159 175.311 206.159 175.149 206.165 175.011 206.227 175.105 206.033 175.15 205.777 175.206 205.421 175 205.11Z" fill-rule="nonzero"></path></svg>