<?xml version="1.0"?>
<!-- Created with xTool Creative Space (https://www.xtool.com/pages/software) -->
<svg xmlns="http://www.w3.org/2000/svg" xmlns:xlink="http://www.w3.org/1999/xlink" xmlns:xcs="https://www.xtool.com/pages/software" version="1.1" preserveAspectRatio="xMinYMin meet" width="40.940196339254726mm" height="36.57703018188478mm" viewBox="1112.4675363657475 119.66738467315365 40.940196339254726 36.57703018188478" xcs:version="1.1.10"><style></style>
<path transform="matrix(1,0,0,1,1112.467536,119.667385)" stroke="none" fill="#000000" data-view-type="laser" d="M26.897258 0.021801C26.515144 0.140152 26.109544 0.182405 25.718138 0.302544 25.389247 0.379402 25.090183 0.482405 24.81976 0.639436 24.45357 0.797012 24.231986 1.123575 23.921383 1.397723 24.365277 1.135587 24.740512 0.739843 25.246798 0.567628 25.697683 0.372521 26.17334 0.245751 26.670867 0.2256 27.244413 0.168355 27.834035 0.155496 28.378744 0.372145 28.848842 0.502226 29.289558 0.679415 29.708562 0.928938 30.807305 1.596541 31.662942 2.681224 32.009475 3.924128 32.619288 5.603079 32.30403 7.504325 31.479999 9.054234 31.011815 10.074215 30.3008 10.964968 29.539167 11.780623 28.782379 12.47313 27.814816 12.89845 26.84372 13.190792 26.049498 13.327025 25.249886 13.118577 24.518641 12.816788 23.663155 12.599822 23.08711 11.892643 22.51627 11.271857 22.168766 10.82364 21.932319 10.287854 21.731588 9.764368 21.41103 9.346604 21.39793 8.738548 21.301063 8.221672 21.13666 7.236607 21.35797 6.245663 21.556803 5.283055 21.678909 4.826379 21.798596 4.353869 22.047592 3.952203 22.22259 3.762831 22.084723 3.251607 22.063218 3.753042 21.737944 3.952859 21.555225 4.406854 21.352517 4.763185 21.22013 5.275956 20.60349 4.533976 20.61833 5.142272 20.733827 5.518527 21.182488 4.973655 21.160444 5.455872 21.241529 5.73672 20.982605 5.914049 21.037838 6.20028 21.000033 5.681526 20.599632 5.375272 20.345363 4.968498 20.00165 4.612988 19.646482 4.227115 19.182442 4.035646 18.855135 3.720151 18.434442 3.454773 18.250375 3.053769 18.299522 2.539933 17.790591 2.479724 17.498557 2.329992 17.15764 2.071671 17.027167 1.610449 16.688277 1.430614 16.162445 1.312838 15.862887 0.883183 15.442946 0.639436 15.180294 0.476972 14.790264 0.50767 14.531278 0.336892 14.175891 0.202893 13.795215 0.208613 13.421597 0.134099 12.978304-0.038185 12.537257 0.182393 12.096344 0.194678 11.709222 0.266118 11.354009 0.408919 11.016068 0.561486 10.874281 0.726444 10.441589 0.725335 10.462589 1.018025 10.962957 0.707654 11.50784 0.442688 12.061779 0.26669 13.125862 0.112295 14.228424 0.275453 15.208975 0.709622 15.638826 0.843851 15.990333 1.191143 16.394547 1.434864 16.58402 1.72204 17.006566 1.45332 16.922203 1.892869 17.239633 2.269489 17.572415 2.629916 17.806762 3.068063 18.051076 3.472102 18.411157 3.83884 18.491461 4.317288 18.695432 4.750013 18.806746 5.240836 18.887016 5.723508 19.288888 7.662609 18.927572 9.773533 17.764297 11.394309 17.149627 12.272323 16.331632 13.140345 15.215409 13.296772 13.691245 13.588609 12.091757 13.130666 10.843125 12.242026 9.953832 11.489298 9.201385 10.583508 8.602897 9.58611 8.329841 9.196354 8.16756 8.737782 8.031332 8.291702 7.876907 7.824091 7.800169 7.332352 7.709354 6.858727 7.698085 6.331029 7.659561 5.792702 7.750589 5.271694 7.816115 4.843997 7.870214 4.416571 8.080973 4.027637 8.075931 3.715828 8.458505 3.248751 8.402626 3.088055 8.116016 3.403089 8.161064 3.97178 7.811999 4.151363 7.716867 4.490505 7.698113 4.855816 7.582144 5.187472 7.350637 5.556543 7.64517 5.934669 7.580998 6.352544 7.623946 6.661632 7.261563 7.39534 7.615372 7.439823 7.733105 6.996569 7.691145 7.807236 7.586574 7.942042 7.60508 8.279862 7.301491 8.792841 7.581155 9.027537 7.842684 8.537821 7.814065 9.348085 7.806738 9.567061 7.800287 9.76072 7.75758 9.977417 8.021568 9.909757 8.307044 10.018191 8.335388 10.470766 8.307786 10.69223 8.01181 10.761686 7.717091 10.472624 7.493625 10.701241 7.086773 10.513458 6.622912 10.483603 6.210855 10.295722 5.735405 10.277157 5.319934 10.070418 4.85234 10.07415 4.448294 10.079814 3.970464 10.038571 3.642882 10.262646 3.386469 10.390025 3.09937 10.426292 2.865662 10.581049 2.499456 10.651928 2.145298 10.953924 1.879575 11.244437 1.481723 11.436678 1.29737 11.851843 1.036341 12.171807 0.732218 12.275294 0.712319 12.595849 0.56357 12.82368 0.458292 13.077378 0.281491 13.296403 0.226679 13.578373 0.132731 13.997993 0.021534 14.421037 0.008311 14.861778 0.014027 15.383074-0.049876 15.927465 0.105145 16.426291 0.020748 16.918248 0.324843 17.280841 0.446843 17.718375 0.487287 18.063934 0.647894 18.41587 0.876374 18.663133 1.258364 18.905154 1.347079 19.426918 1.682999 19.766631 1.89546 20.130161 2.398321 20.30986 2.641068 20.506659 2.846808 20.756487 3.207276 20.984055 3.489007 21.178891 4.000942 21.320329 4.170831 21.819018 4.507177 22.164657 4.657538 22.502535 5.332146 22.941176 5.444769 22.976748 5.262129 22.634526 4.640631 22.575921 4.692737 22.144345 5.146407 22.402394 5.50085 22.811454 5.994177 23.010242 6.532861 23.285598 7.09492 23.529772 7.691235 23.640896 7.820405 23.682101 8.492026 23.717374 8.061013 23.882895 7.674098 23.74101 7.218548 23.79337 6.855356 23.644737 6.500537 23.375258 5.997237 23.164735 5.640862 23.014094 5.92471 23.341875 6.346004 23.401853 6.65376 23.620702 7.011438 23.891748 7.510386 23.739478 7.883903 23.929533 8.128009 23.998744 8.544109 23.727261 8.255927 24.081471 8.530976 24.428497 7.650072 24.710064 7.790247 25.166136 7.623295 25.430572 7.640375 25.802136 7.474277 26.065491 7.409492 26.400409 7.245769 26.710509 7.210906 27.070179 7.068906 27.426608 7.008457 27.847874 7.020905 28.256343 7.078238 28.732704 6.918866 29.173121 6.909456 29.63733 7.018097 30.010391 6.977137 30.42035 7.116464 30.785718 7.234298 31.234271 7.401699 31.655694 7.501132 32.113344 7.873443 32.153105 7.986268 32.462607 8.204326 32.740145 8.484053 33.259773 9.057324 33.468343 9.45498 33.872572 9.696958 34.22439 10.096404 34.349421 10.443027 34.65119 10.528726 34.591608 10.077263 34.198331 10.451628 34.440328 10.899947 34.817071 11.419709 35.096205 11.877163 35.462218 12.48464 35.861784 13.211545 35.99654 13.879348 36.256584 14.72567 36.31031 15.58115 36.311256 16.425546 36.230454 17.267932 36.060471 18.07257 35.756613 18.900986 35.536942 19.552899 35.420924 20.148894 35.090447 20.819106 35.068151 21.6354 34.956587 22.458555 34.869992 23.281856 34.960588 24.209453 35.0159 25.12929 35.160738 26.044698 35.314215 26.516683 35.424036 27.010044 35.376713 27.485527 35.45886 27.967843 35.484063 28.430412 35.698008 28.924536 35.605684 29.449531 35.494939 29.992623 35.511876 30.51033 35.356705 30.963123 35.278263 31.357528 35.012636 31.804532 34.932663 32.106134 34.612717 32.527501 34.569225 32.743157 34.186895 33.240005 33.766918 33.699351 33.295835 34.092048 32.776724 34.406469 32.145341 34.865068 31.564071 34.95654 30.843376 35.081858 30.337161 35.267468 29.839987 35.178669 29.309242 35.146996 28.464447 35.014592 27.622961 34.698762 26.83487 34.592006 26.714772 34.465111 26.168689 34.70427 26.453749 34.706089 26.672319 35.05672 27.11728 34.853221 26.639626 34.581995 26.255452 34.457559 25.811959 34.239764 25.384676 34.069791 24.965484 33.761226 24.635478 33.607289 24.230382 33.3264 23.955928 33.182711 23.585578 33.172098 23.183503 33.222514 22.926035 33.095568 22.863157 32.867105 22.817224 32.517507 22.670277 32.617777 22.074534 32.989262 22.408594 33.456957 22.560353 33.920986 22.748524 34.429529 22.724319 34.922693 22.7615 35.418839 22.776432 35.890998 22.633189 36.204431 22.471497 36.608802 22.454399 36.934986 22.251093 37.335993 21.974778 37.806165 21.844787 38.143674 21.463894 38.598405 21.205641 38.950451 20.796123 39.331789 20.443211 39.541128 20.07852 39.822208 19.746679 40.07847 19.416226 40.208976 19.123382 40.295316 18.832376 40.451448 18.538321 40.665947 18.156785 40.774106 17.733918 40.838599 17.311636 41.00171 16.885872 40.925488 16.394637 40.900581 15.946023 40.750934 15.573329 40.890553 15.086665 40.592174 14.784022 40.503818 14.48114 40.404407 14.212122 40.30028 13.92349 40.100924 13.629403 39.961979 13.21926 39.684358 12.939493 39.389628 12.657801 39.115061 12.295295 38.852179 12.029842 38.771842 11.585981 38.162456 11.467199 38.121714 11.0633 37.890017 10.763991 37.432395 10.610233 37.22186 10.320656 36.884402 10.150551 36.545494 9.961443 36.203886 9.843706 35.756646 9.754871 35.388418 9.379227 34.898449 9.441312 34.772221 9.393676 34.458682 9.529686 34.503432 9.31441 34.4804 8.675844 34.527716 8.024415 34.369052 7.403677 34.306845 6.938103 34.375716 6.43426 34.190623 5.997976 34.095468 5.592621 33.85952 5.25471 33.657514 4.8705 33.368029 4.514974 33.255867 4.028375 32.808649 3.816313 32.417798 3.596879 32.373042 3.031949 31.955892 2.974874 32.008863 2.691695 31.69584 2.735459 31.731522 2.475108 31.399645 2.260295 31.234529 1.822982 30.881376 1.571695 30.612677 1.21621 30.064527 1.300359 29.926362 0.83724 29.619701 0.753086 29.413967 0.588861 29.218564 0.418468 28.76216 0.45216 28.5166 0.196947 28.132527 0.190247 27.739745 0.09616 27.299198 0.019796 26.908067 0L26.897258 0.021801ZM15.723689 1.472625C16.045403 1.844253 16.60242 2.09914 16.696317 2.621863 16.795975 2.915047 17.591567 3.462802 17.022069 3.628099 16.634273 3.256924 16.063702 3.235806 15.750365 2.753507 15.485776 2.555647 15.429263 2.305015 15.152871 2.273956 14.987525 2.031267 14.04625 1.985823 14.482805 1.652659 14.294472 1.429849 13.991617 1.604037 14.218907 1.832144 13.351259 1.673755 12.409608 1.50331 11.582186 1.916244 10.073996 2.589735 9.104579 4.246339 9.19714 5.888154 9.177842 6.49046 9.231312 7.100195 9.146589 7.697665 8.666957 7.632857 8.38257 7.078947 8.374181 6.617732 8.356354 5.729492 8.450835 4.835205 8.692454 3.979547 8.554497 3.77667 8.488477 4.468005 8.38636 4.605381 8.224281 5.298558 8.115566 6.018694 8.167133 6.731219 8.351542 7.24989 8.405619 7.795648 8.429617 8.342633 8.490117 9.033328 8.953163 9.599512 9.378017 10.112787 9.634678 10.34954 9.602538 10.24151 9.624447 10.000184 9.876178 9.639695 10.158409 9.983958 10.524902 9.932118 10.680709 10.147206 11.053418 10.325076 10.580299 10.347338 10.261128 10.499342 10.80838 10.652705 10.77537 10.872516 10.974647 11.415079 11.440697 10.730636 11.821283 10.956487 12.070819 11.048692 12.547156 11.181435 12.593074 11.347323 11.965226 11.482798 13.078585 11.76815 13.229945 11.426856 13.50016 11.338375 13.668842 11.098187 14.023594 11.184368 14.364803 11.185185 14.71439 11.022614 14.963791 10.85018 15.300587 10.871846 15.282423 11.468856 15.599275 11.104761 15.711005 11.379229 15.069693 11.477697 14.855177 11.520951 14.693048 11.301252 14.833492 11.852175 14.522676 11.613805 14.395618 11.734118 14.32738 11.905421 14.070023 11.832116 13.947187 12.318013 14.765008 11.889151 14.924812 12.254002 15.309335 12.350964 15.712819 12.03794 15.86771 11.872186 15.959277 11.904166 16.179818 11.702537 16.237898 11.766065 16.021411 11.414028 17.220268 11.229521 16.660562 11.681112 16.303968 11.993949 15.932337 12.285768 15.491419 12.454858 14.668932 12.716972 13.794749 12.760872 12.944154 12.630816 12.455869 12.609039 12.018932 12.440999 11.686886 12.080497 11.524336 11.849811 11.231055 11.988676 11.105563 11.999456 11.424846 12.319268 11.897589 12.524238 12.324139 12.730026 13.502681 13.120599 14.82119 13.087077 15.98063 12.639595 16.737323 12.357289 17.275535 11.689356 17.603903 10.973878 17.985859 10.579755 18.091082 10.012379 18.339848 9.547297 18.71825 8.731278 18.712551 7.798813 18.723938 6.916252 18.71245 6.0238 18.604695 5.105596 18.154827 4.317245 17.956005 3.922136 17.76588 3.513205 17.464295 3.205483 17.184608 2.704997 16.701949 2.353924 16.374631 1.887493 16.122018 1.841744 16.002214 1.437056 15.723689 1.472625ZM29.506258 1.692222C29.545366 2.129698 30.21176 1.886044 30.103005 2.299076 30.166627 2.597016 30.60334 2.896816 30.742296 3.016199 30.748119 2.486915 30.25459 2.193597 30.130462 1.751489 30.012174 1.680294 29.423922 1.334686 29.506258 1.692222ZM25.942732 1.825238C25.32608 2.047084 24.749176 2.377737 24.294339 2.855809 23.708883 3.40435 23.187942 4.041823 22.482339 4.44107 22.080523 4.695039 22.092595 5.195491 21.933021 5.593973 21.865996 6.01233 21.794351 6.327054 21.839225 6.729087 21.666832 6.990532 22.062303 7.328348 22.037491 6.887941 22.005902 6.5846 21.833857 5.914189 22.26633 5.891985 22.517269 6.355501 22.630633 5.559784 22.533766 5.339133 22.474428 4.823022 23.008104 4.587216 23.388533 4.400493 23.780399 4.512348 23.209784 5.154782 23.196701 5.475578 23.026065 5.812388 23.285298 6.091486 23.487972 6.280028 23.096313 6.666084 24.221834 6.645077 23.790197 6.18087 23.845526 5.72329 23.488545 5.229678 23.827772 4.867288 23.930518 4.421183 23.52791 3.881953 23.943623 3.518162 24.286029 3.104312 24.644762 2.701351 25.0997 2.405874 25.660181 1.938706 26.419012 1.837213 27.121852 1.933043 27.610755 2.015268 28.248148 1.965776 28.568133 2.416351 28.588914 2.566843 28.768937 3.05856 28.525567 3.053825 28.144296 2.941796 27.975721 3.578466 28.475393 3.315975 28.943722 3.334289 28.576516 4.1019 28.465432 4.364948 28.183499 4.761698 28.042975 5.198197 27.913778 5.654179 27.756174 6.187175 27.555022 6.731078 27.582192 7.294645 27.761413 7.753668 28.15265 8.228062 28.626432 8.364177 28.978838 8.067962 29.028962 7.543813 29.228362 7.143066 29.474669 6.45581 29.427319 5.706099 29.575304 4.995872 29.673676 4.461648 29.635742 3.916982 29.502547 3.392773 29.539161 3.074813 30.258065 3.605506 30.350211 3.856389 30.457146 4.08302 30.631251 4.299334 30.687237 4.541763 30.676855 5.363054 30.71274 6.186603 30.648124 7.005885 30.494574 7.17627 30.551913 7.660722 30.713341 7.242061 30.83844 6.997723 31.118542 6.955031 30.968541 6.660043 31.129508 6.166481 30.960462 5.631176 31.069362 5.13549 30.743565 4.74419 31.364395 4.270675 31.474423 4.879864 31.558343 5.463646 31.537433 6.065043 31.498736 6.652483 31.269666 7.074628 31.255304 7.578825 31.052253 8.019887 30.83027 8.364976 30.687355 8.786274 30.478336 9.154006 30.283489 9.551041 30.036744 9.90832 29.78818 10.266111 29.202124 11.042535 28.588807 11.892573 27.649655 12.261136 26.818554 12.641423 25.874843 12.520781 24.993944 12.447441 24.606906 12.452773 24.462543 12.211394 24.443469 11.875052 24.027992 11.712757 23.63927 11.45604 23.388392 11.056849 23.061372 10.905254 22.618146 10.725474 22.944712 10.328271 22.894818 9.931991 22.284803 9.878003 22.444332 10.384494 22.55385 10.835815 22.828765 11.234649 23.16943 11.546541 23.502846 11.892484 23.873696 12.26562 24.337584 12.387426 24.629692 12.740508 25.158578 12.759268 25.582578 12.860793 26.492236 13.060273 27.415245 12.756049 28.194296 12.293207 29.034239 11.860267 29.669819 11.132025 30.258144 10.410645 30.631914 9.887007 30.892533 9.293429 31.188487 8.725408 31.326781 8.12512 31.653375 7.580155 31.736418 6.962162 31.852281 6.507154 31.993511 6.05219 31.942023 5.575719 31.970783 4.839709 31.601207 4.172179 31.261025 3.549571 31.042107 3.207599 30.681291 3.314813 30.423283 3.410332 30.008743 3.111311 29.665894 2.699991 29.192511 2.493582 28.92653 2.083994 28.415684 2.065272 28.003121 1.895123 27.368766 1.749318 26.704365 1.771 26.057724 1.799549L25.988706 1.811127 25.942732 1.825238ZM13.691503 1.93557C14.567921 2.129398 15.320514 2.678263 15.937986 3.309585 16.489876 4.013247 16.89108 4.838931 17.150031 5.692809 17.244535 6.356326 17.29645 7.045331 17.186865 7.707926 17.084326 8.231523 16.813634 8.701962 16.610769 9.19307 16.44252 9.378904 16.249723 9.734258 16.584862 9.874755 16.523464 10.278041 16.234579 10.828678 15.757328 10.767947 15.625395 11.205587 14.952847 10.748757 15.471638 10.601992 15.806312 10.695613 16.014544 10.564617 16.14573 10.247473 16.191884 10.13728 16.632802 9.868335 16.326107 9.918674 16.013359 9.876739 16.081103 10.386261 15.664121 10.334093 15.234809 10.679481 14.711768 10.950741 14.145498 10.934088 13.763811 10.939065 13.3714 10.975137 12.994278 10.951852 12.305223 10.598807 11.605078 10.262988 10.956073 9.840082 10.512741 9.612593 10.109257 9.283818 9.902153 8.827527 9.738098 8.300261 10.64921 8.220653 10.970554 7.951526 11.34963 7.900218 11.46625 7.364077 10.98865 7.611057 10.565509 7.640589 10.090105 8.290531 9.733342 8.00845 9.510926 7.505311 9.437007 6.96174 9.461684 6.41421 9.475598 5.599462 9.419567 4.740566 9.807913 3.994577 10.084434 3.337398 10.622438 2.833906 11.172885 2.401538 11.890649 1.853299 12.831503 1.808914 13.691503 1.93557ZM17.597423 4.116044C17.705554 4.496498 18.023406 4.928221 17.917358 5.299769 17.323458 5.200887 17.547193 4.556136 17.283463 4.180211 17.213496 3.778805 16.653835 4.258545 16.936611 3.8289 17.145169 3.517661 17.526906 3.868218 17.597423 4.116044ZM22.331311 6.425211C22.332052 6.879641 22.563721 7.30235 22.597511 7.761828 22.820404 8.227293 22.891966 8.77931 23.165825 9.208255 23.430863 9.483737 23.700382 9.860625 24.009328 10.156195 24.328578 10.524633 24.715941 10.813915 25.148286 11.001321 25.43452 11.200388 24.825948 11.356898 25.233407 11.475327 25.523263 11.553391 25.661079 11.100712 25.856179 11.405051 26.190538 11.388242 26.68633 11.539046 26.927449 11.431926 26.857044 11.123574 27.093267 10.730085 27.130179 11.251622 27.025956 11.526627 27.25616 11.4757 27.450703 11.469431 27.673203 11.468765 28.1147 11.562368 28.098725 11.259766 27.706325 11.253607 27.438446 11.041786 27.423303 10.66311 26.925248 10.606649 26.434745 10.979925 25.909711 10.819403 25.401005 10.722745 24.876285 10.585941 24.433778 10.314468 23.866138 9.820845 23.402867 9.194819 23.19884 8.463206 23.044499 8.049964 22.963162 7.609526 22.840859 7.198939 22.693902 6.915289 22.834739 6.102596 22.384343 6.196876 22.348958 6.267677 22.34263 6.348334 22.331311 6.425211ZM28.52158 9.788231C28.269176 10.114873 27.694517 10.236452 27.591507 10.607153 27.959438 10.561503 28.44784 10.473487 28.64837 10.134272 28.74864 9.944007 29.01365 9.315916 28.597027 9.702342L28.558947 9.743794 28.52158 9.788231ZM35.590351 9.717147C36.089927 9.925653 36.619824 10.064567 37.069591 10.38695 37.676984 10.825523 38.20254 11.402124 38.470122 12.111687 38.895543 13.017169 38.89835 14.052366 38.863847 15.032315 38.72032 16.288805 38.07967 17.444558 37.298166 18.418316 36.585186 19.296266 35.649228 20.007417 34.56154 20.345288 33.884259 20.612874 33.137365 20.693981 32.426041 20.515225 31.717423 20.367288 30.956711 20.118043 30.53905 19.481073 30.316696 19.37351 30.183472 18.495776 30.049799 18.992999 29.760409 18.650274 29.77521 18.188537 29.635406 17.783625 29.502086 17.351221 29.454456 16.89552 29.326717 16.467949 29.313444 15.731091 29.272596 14.977027 29.429756 14.252919 29.630375 13.468312 29.995515 12.738598 30.434619 12.063371 30.914813 11.340976 31.561515 10.725557 32.333166 10.320157 32.798244 10.046278 33.309455 9.855664 33.814253 9.680468 34.29863 9.576398 34.796786 9.562879 35.288928 9.647543 35.390484 9.664393 35.493955 9.679282 35.590351 9.717147ZM5.3362 10.210187C5.75453 10.309319 6.13862 10.380991 6.520627 10.485294 6.697556 10.677062 7.26199 10.580482 7.287807 10.768072 7.638006 11.068804 8.082916 11.292659 8.414316 11.639505 8.905729 12.045169 9.262182 12.584169 9.621966 13.096281 10.04911 13.89047 10.478743 14.713387 10.613628 15.614563 10.778975 17.187404 10.616206 18.873946 9.732562 20.226463 9.052321 21.305409 7.739281 21.841992 6.49596 21.832395 5.870123 21.83576 5.209995 21.889593 4.639963 21.576269 4.219029 21.350087 3.733141 21.255332 3.335834 21.006018 2.945938 20.690541 2.69871 20.265912 2.2033 20.110137 1.836981 19.841879 1.602061 19.521655 1.372581 19.191475 1.196067 18.73227 0.82474 18.359684 0.660258 17.971157 0.655643 17.793691 0.468876 17.767426 0.525165 17.546918 0.332025 17.486961 0.447421 17.128863 0.196044 17.008188 0.221558 16.513728 0.079805 16.041829 0.112646 15.547791 0.143831 14.700903 0.131883 13.800767 0.592885 13.053081 0.933522 12.350966 1.400487 11.690087 2.044332 11.240487 2.382492 10.963881 2.698334 10.688765 3.116326 10.52368 3.604336 10.362794 4.072357 10.116168 4.595381 10.131116 4.843704 10.137944 5.092908 10.158221 5.3362 10.210187ZM34.112351 10.828046C33.4868 11.008043 32.833887 11.180776 32.292969 11.553767 31.863275 11.734527 31.457388 12.017212 31.152209 12.387543 30.957733 12.54162 30.959765 12.788118 31.202479 12.545143 31.598439 12.220504 32.020261 11.736821 32.573599 11.780929 33.040975 11.939158 32.424216 11.51383 32.852388 11.523796 33.51146 11.224702 34.277299 10.925826 34.997764 11.196871 35.560171 11.368424 36.092111 11.655151 36.505275 12.07578 36.62148 12.023148 36.100893 11.52636 36.472962 11.720152 36.663418 11.875972 37.000045 12.222616 36.673289 12.204248 36.909719 12.658234 37.137559 13.123784 37.180804 13.645241 37.255701 14.124985 37.182815 14.618986 37.271877 15.094184 37.359172 14.955718 37.349121 14.308671 37.580537 14.760806 37.582351 14.967014 37.694918 14.368765 37.733935 14.760806 37.861438 15.127347 37.84945 14.342468 37.855435 14.214438 37.989209 13.914337 37.688399 13.699351 37.42961 13.885562 37.219738 13.49472 37.661616 12.941054 37.380261 12.667586 37.323422 12.152026 36.811925 11.856916 36.478835 11.508313 35.963879 11.050361 35.246289 10.941646 34.590294 10.826945 34.432219 10.81088 34.268843 10.790293 34.112351 10.828046ZM6.517623 11.125185C6.980208 11.367524 7.426051 11.626922 7.780882 12.024179 8.344473 12.535896 8.699405 13.233461 8.985858 13.926213 9.141586 14.145727 9.522538 14.528782 9.331049 14.840681 9.137184 14.798974 9.204787 14.272061 8.853634 14.2363 8.682055 13.883168 8.237824 13.706122 8.322143 13.282101 8.013775 13.06644 7.602935 12.877491 7.379167 12.528899 7.084605 12.10007 6.584237 11.921641 6.132898 11.718675 5.529817 11.59371 4.907068 11.305522 4.285435 11.524401 2.841423 11.989349 1.798485 13.278151 1.270217 14.657254 1.207061 14.981967 1.484182 14.47663 1.444951 14.845653 1.514705 15.464721 1.484525 16.129299 1.776374 16.693236 1.737929 17.230886 2.202531 17.53004 2.465323 17.933201 2.674145 18.313795 2.95943 18.62934 3.248635 18.941679 3.730923 19.154817 3.675836 19.907309 4.269821 19.844068 4.483073 19.978779 4.480204 20.372316 4.709166 20.420668 4.569312 19.974252 5.046906 19.975655 5.287733 20.188551 5.777449 19.952738 6.350362 20.09595 6.870618 20.113163 6.96739 19.727135 7.65142 19.980448 7.565585 19.641219 7.757602 19.764136 7.711386 19.154847 7.838013 19.537703 7.830158 19.7386 7.812342 20.389066 8.121496 20.105215 7.883931 19.852319 8.617316 19.536621 8.221755 19.552169 7.944465 19.429255 8.087925 19.28074 8.27847 19.255213 7.942331 19.029229 8.540763 18.852867 8.655637 18.61288 8.741584 18.381491 9.126258 18.375572 8.728333 18.302614 8.831629 18.045596 9.351425 18.001132 9.129138 17.593783 9.276888 17.157289 9.481123 16.820223 9.383379 16.300666 9.38613 15.86674 9.489899 15.430091 9.40448 15.028562 9.610528 14.701889 9.532482 15.563458 9.61753 15.607695 9.478506 15.823096 9.895499 16.057924 9.719451 16.364138 9.750568 16.593821 9.476064 16.825208 9.753864 16.894354 9.778879 17.18247 9.760653 17.472386 9.762955 17.76133 9.543672 17.780933 9.178993 17.906404 9.621517 17.957906 9.75373 18.188033 9.488933 18.546278 9.495991 18.826455 9.35147 19.067115 9.475626 19.578691 9.113181 19.817856 8.938009 20.243329 8.615811 20.509421 8.197229 20.672938 7.69772 20.824671 7.213506 21.05119 6.688938 21.115022 6.089636 21.144148 5.439514 21.222418 4.893435 20.916712 4.413668 20.786965 4.076361 20.377899 3.626829 20.220715 3.265244 20.001677 3.124417 19.595548 2.7204 19.405615 2.417917 19.209908 2.000351 18.976151 1.917582 18.55903 1.840928 18.065647 1.412368 17.837805 1.257595 17.368329 0.939378 16.68037 0.987705 15.898919 0.873915 15.169155 0.570179 15.581671 0.584396 16.162657 0.71233 16.639144 0.977093 17.639821 1.478629 18.566669 2.163985 19.340676 2.464745 19.712475 2.820154 20.039319 3.221605 20.283329 3.79103 20.81421 4.514134 21.151444 5.231107 21.433414 5.800527 21.537049 6.395151 21.503214 6.966867 21.428836 7.525636 21.284591 8.093758 21.126154 8.603256 20.851035 9.027858 20.583413 9.244142 20.076859 9.652162 19.823267 9.747317 19.461251 9.983681 19.166621 10.024579 18.758143 10.361409 17.986903 10.321633 17.118036 10.331527 16.293049 10.297546 15.82049 10.338293 15.302562 10.087466 14.881645 10.111851 14.412157 9.776094 14.028128 9.615346 13.623779 9.065449 12.568757 8.161232 11.701758 7.056688 11.246996 6.905868 11.188547 6.658994 11.006176 6.517623 11.125185ZM26.246496 11.665503C26.166815 11.930036 26.242447 12.143334 26.53214 12.047795 26.845236 12.052891 27.226654 12.096657 27.144357 11.673303 27.125451 11.540139 26.837331 11.642024 26.713933 11.600089 26.564448 11.611325 26.361746 11.548023 26.246496 11.665503ZM5.167754 11.722718C6.186498 11.926243 7.157155 12.47722 7.7311 13.361088 8.045712 13.760567 8.348825 14.165252 8.555131 14.632315 8.731371 15.095408 8.882955 15.566596 8.885661 16.069981 8.931658 16.544519 8.871102 17.03884 9.002928 17.498948 8.753375 17.611035 8.699821 18.185221 8.485052 18.487399 8.256859 18.868298 7.971674 19.302832 7.506057 19.433632 6.937423 19.760688 6.268171 19.671958 5.641811 19.65504 4.54254 19.623526 3.524639 18.977634 2.912726 18.081316 2.364441 17.289475 1.809636 16.426536 1.706413 15.446913 1.608086 14.325841 2.143109 13.21542 3.004259 12.509964 3.487222 12.083488 4.085159 11.773797 4.718566 11.651915 4.870122 11.658813 5.019309 11.693656 5.167754 11.722718ZM31.773931 12.444677C31.41353 12.762428 31.301856 13.204605 31.058278 13.602104 30.757075 14.015171 30.677209 14.509386 30.533407 14.985909 30.555108 15.478625 30.276971 15.96936 30.485591 16.449047 30.463906 16.878798 30.732931 17.245064 30.874824 17.596309 30.995358 17.961882 31.103298 18.338534 31.560516 18.335899 31.898171 18.629885 32.249207 18.98393 32.733314 18.924631 32.997336 19.194223 33.378242 19.409086 33.826106 19.208539 33.958089 19.025534 33.978875 18.737915 34.287148 18.764137 34.500894 18.42074 34.645089 18.978876 34.975069 18.72758 35.153402 18.493246 35.676005 18.786106 35.659341 18.440357 35.696949 18.151043 35.761121 17.862619 35.761492 17.570369 35.448834 17.532184 35.411478 17.877753 35.33278 17.972735 34.933019 17.648052 34.522657 18.395834 34.093238 18.436754 33.597222 18.494656 33.101357 18.597849 32.595087 18.560298 32.233502 18.428774 31.885358 18.104957 31.566782 17.845152 31.042225 17.306153 30.720033 16.562641 30.776946 15.803513 30.770438 15.151563 30.843094 14.487503 31.157796 13.904507 31.377679 13.509976 31.571796 13.131785 31.826565 12.749531 31.976566 12.601284 32.205231 11.946418 31.838289 12.365453L31.773931 12.444677ZM37.942696 12.606834C37.86347 12.849105 38.01725 13.219493 37.849321 13.491342 38.109839 13.94789 38.116577 14.540966 37.946682 15.041549 37.758983 15.417832 37.960759 15.95706 37.525804 16.209207 37.33048 16.673229 37.18474 17.136349 36.878517 17.537608 36.599172 18.018569 36.300243 18.542956 35.809443 18.831859 35.407941 19.078505 35.037349 19.480708 34.534656 19.508837 34.340775 19.513344 34.14841 19.944397 33.97244 19.702395 33.674634 19.531827 33.115445 19.453402 32.851074 19.645929 33.015292 19.750298 33.184485 19.848267 32.841602 19.837822 32.401453 19.682088 31.850771 19.599474 31.543565 19.209984 31.722887 18.853632 31.553716 18.269976 31.06912 18.514518 30.74763 18.380205 30.624435 17.937375 30.653975 17.589932 30.747125 17.31413 30.486197 17.240061 30.262445 17.189864 30.050349 16.764128 30.402603 16.242365 30.152978 15.854805 30.024998 15.483968 29.912533 15.125673 29.854009 14.711707 29.513703 14.901228 29.683003 15.599499 29.630251 15.99539 29.618084 17.255818 30.16414 18.467892 30.952623 19.42839 31.543767 20.083553 32.477473 20.239009 33.316805 20.283863 34.154923 20.248712 34.891975 19.782467 35.617549 19.406412 36.03279 19.196603 36.391636 18.91235 36.697915 18.559905 37.035593 18.231044 37.308874 17.84684 37.592098 17.473176 37.798669 17.063104 38.047301 16.641059 38.230193 16.202899 38.584311 15.461699 38.495035 14.612924 38.499959 13.816036 38.447505 13.438783 38.48983 12.535095 37.942696 12.606834ZM21.113953 12.793977C22.11629 12.926527 23.179536 13.088392 23.993084 13.741063 25.039778 14.486476 25.975242 15.375407 26.82536 16.337415 27.630014 17.232033 28.358126 18.191495 29.158041 19.090239 29.3966 19.475844 29.70115 19.819728 29.954616 20.204249 30.723296 21.307409 31.455765 22.436074 32.175225 23.571418 32.654341 24.447018 33.266422 25.307726 33.316636 26.341055 33.365918 27.166376 33.37238 28.004327 33.242862 28.822368 32.87779 30.22082 32.109223 31.515088 31.084202 32.531137 30.459234 33.12338 29.642963 33.457252 28.861684 33.789192 28.219507 34.020628 27.538548 34.163149 26.857898 34.211589 25.824236 34.161188 24.820378 33.871839 23.806256 33.684212 22.834543 33.43469 21.835014 33.325476 20.832643 33.330913 19.410725 33.243792 18.031278 33.652176 16.683291 34.047539 16.026582 34.236116 15.365983 34.412234 14.710291 34.595697 13.666478 34.833002 12.566628 34.884149 11.515757 34.667167 11.081784 34.532843 10.66382 34.30811 10.197494 34.261695 10.057129 33.997164 9.632123 34.196097 9.577883 33.795212 9.224074 33.588239 8.906728 33.346089 8.576552 33.084706 8.219166 32.786229 8.146678 32.06957 7.698315 31.99758 7.286162 31.952484 7.512048 31.238254 7.195151 30.98053 7.114802 30.588076 7.104577 30.171344 6.980916 29.795418 6.908237 29.332626 7.137166 28.900395 7.076806 28.432987 7.061669 27.962962 7.140816 27.503387 7.305056 27.07184 7.355663 26.61803 7.486416 26.188106 7.678062 25.799467 7.821528 25.421738 8.027436 25.071095 8.095083 24.736993 8.369454 24.320397 8.490106 23.828989 8.839047 23.461246 9.809732 22.06293 10.731232 20.629828 11.761901 19.274468 12.334785 18.453779 12.950235 17.661998 13.590885 16.894452 14.258166 16.154368 14.899383 15.383593 15.674609 14.749956 16.638894 13.908256 17.771568 13.248225 19.017797 12.932006 19.694685 12.740745 20.417492 12.691886 21.113953 12.793977ZM19.689576 13.087634C19.215407 13.225619 18.696644 13.223346 18.253694 13.472548 17.30841 13.811988 16.495148 14.43785 15.748007 15.094961 14.63741 16.142154 13.570374 17.245852 12.696185 18.502147 11.660356 19.914769 10.634763 21.343201 9.660596 22.79449 9.536131 23.254334 9.136915 23.530227 9.017565 23.998802 8.497343 25.08498 7.989547 26.190573 7.743414 27.376166 7.553603 27.911219 7.590701 28.499847 7.536326 29.060313 7.549173 30.464527 8.184455 31.83192 9.146404 32.83937 9.984231 33.575933 11.025332 34.085857 12.108512 34.342565 13.432933 34.597182 14.727607 34.077006 15.973943 33.699079 16.396703 33.537809 16.859103 33.467882 17.294771 33.325322 18.852215 32.921748 20.481765 32.662069 22.087065 32.917961 23.381155 33.081494 24.650613 33.401494 25.943192 33.570613 27.176956 33.681313 28.495561 33.607226 29.580548 32.948442 30.713677 32.373595 31.645025 31.425132 32.197134 30.280731 32.888913 29.109166 33.08869 27.712707 32.968678 26.372351 32.912406 25.833457 32.911389 25.252976 32.58767 24.793286 32.209599 24.301974 31.945628 23.73731 31.605811 23.221571 31.224399 22.817831 31.057537 22.272455 30.698085 21.845584 30.417656 21.505614 30.271822 21.088707 30.000938 20.741023 29.772346 20.402359 29.514995 20.081188 29.286021 19.741122 28.977428 19.384202 28.707578 19.013342 28.423191 18.648383 27.91786 18.101885 27.40113 17.545921 26.999914 16.924147 26.708733 16.897083 26.349764 16.188843 26.241487 16.644069 26.515829 16.897853 26.798307 17.281016 27.020448 17.654732 27.404549 17.995967 27.516717 18.527831 27.834221 18.902541 28.274111 18.929678 28.527841 19.298017 28.73367 19.594497 28.809336 19.896248 29.251327 19.991872 29.309177 20.291442 29.576264 20.665931 29.73667 21.150161 30.017317 21.540611 30.488724 22.122678 30.75219 22.84898 31.260991 23.407631 31.746082 24.208168 32.139408 25.069657 32.432273 25.958579 32.567861 26.417587 32.612769 26.898783 32.60625 27.381443 32.605975 28.55978 32.168184 29.696102 31.590426 30.707255 30.95145 31.74432 29.980826 32.567917 28.85622 33.033067 28.413893 33.206569 27.945782 33.281314 27.466094 33.310652 26.190319 33.454274 24.933427 33.135357 23.687384 32.911239 21.994711 32.55044 20.218035 32.367157 18.516115 32.777383 17.989762 32.845154 17.490556 33.041169 16.966106 33.108024 16.417107 33.29924 15.851618 33.458758 15.28838 33.591364 14.894183 33.804967 14.437269 33.837603 14.015694 33.984065 12.834036 34.250941 11.564617 34.058562 10.516761 33.450266 10.05559 33.204168 9.623308 32.932859 9.248011 32.57457 8.919002 32.218756 8.670556 31.789033 8.437966 31.377143 8.038149 30.485334 7.700993 29.48058 7.931309 28.498054 8.056549 28.062145 7.984106 27.612498 8.197903 27.20706 8.277207 26.762391 8.41339 26.341851 8.538354 25.9063 9.014494 24.161726 10.059206 22.662788 11.016955 21.15627 11.376968 20.584724 11.778015 20.041652 12.190427 19.50829 12.549609 18.959357 12.966114 18.44421 13.353556 17.91272 14.25985 16.737712 15.256954 15.624299 16.42878 14.706992 16.83857 14.384918 17.290695 14.090097 17.768957 13.897184 18.393599 13.612571 19.073817 13.411531 19.768729 13.394763 20.524427 13.347468 21.307677 13.367428 21.999692 13.713346 22.420565 13.864071 22.797984 14.058528 23.141423 14.331718 23.267774 14.580813 23.935072 14.715201 23.50202 14.353055 23.165364 14.102016 22.385287 13.830929 22.370592 13.513156 22.598073 13.542779 22.978036 13.416731 22.532969 13.379533 22.06734 13.25558 21.592828 13.161106 21.103375 13.089792 20.635685 13.058045 20.152555 13.003863 19.689576 13.087634ZM40.709811 17.512087C40.566873 17.778653 40.615391 18.14376 40.38941 18.359228 40.271762 18.696316 40.153636 19.057359 39.990884 19.372086 39.681954 19.675937 39.406843 20.024935 39.13765 20.375665 38.850596 20.763275 38.540948 21.182153 38.100243 21.407746 37.874868 21.796139 37.239744 21.77106 37.089125 22.120314 36.826973 22.21422 36.607415 22.364206 36.330221 22.425088 35.926411 22.480923 35.574786 22.717463 35.139309 22.701606 34.665488 22.750977 34.210679 22.641089 33.750513 22.589103 33.413223 22.501023 33.134479 22.350354 32.806745 22.261073 32.538546 22.092309 32.440881 22.493493 32.424132 22.460555 32.096129 21.960183 32.949778 22.011366 33.21234 22.195702 33.980953 22.449836 34.822227 22.54977 35.622889 22.409217 36.194903 22.232647 36.763547 22.036871 37.268778 21.709552 37.814913 21.520497 38.214831 21.055753 38.641291 20.683352 39.374103 19.987812 39.961479 19.149084 40.364772 18.222762 40.536283 18.018231 40.46023 17.421243 40.69332 17.41295L40.709811 17.512087ZM29.423944 22.409591C29.634137 22.676998 29.804553 23.346901 30.145774 23.328452 30.456124 22.998912 29.712032 22.831873 29.70777 22.388325 29.646955 22.334877 29.433248 22.280877 29.423944 22.409591ZM33.129751 23.323465C33.105051 23.736227 33.351145 24.027242 33.559838 24.34907 33.565329 24.874113 33.066124 23.936628 33.058965 23.731716 32.97623 23.445297 32.516182 22.826956 33.10499 22.930425 33.162121 23.000666 33.113558 23.211816 33.129751 23.323465ZM12.186328 23.735765C12.487627 24.019788 12.908533 24.167238 13.253151 24.405786 13.715894 24.530514 13.483007 25.149186 13.099186 24.790771 12.722727 24.623448 12.316402 24.15039 11.935445 24.187605 12.104093 24.675229 12.7697 24.732371 13.02201 25.182171 13.272674 25.590144 13.488532 26.028443 13.855901 26.350974 14.129316 26.612076 14.387302 26.898785 14.712116 27.097717 15.086234 26.932985 15.475478 26.809298 15.878861 26.749391 16.203473 26.478507 17.157802 27.030942 16.706789 26.286485 16.497989 25.913206 16.2471 25.398912 15.832898 25.285075 15.793667 25.641803 15.533239 25.781049 15.301918 25.447485 14.854975 24.957066 14.291922 24.583706 13.660526 24.379317 13.151719 24.208274 12.743215 23.760564 12.220096 23.672532L12.194924 23.696523 12.186328 23.735765ZM30.659213 24.021673C30.520796 24.50806 30.657591 24.992906 30.750623 25.475765 30.833308 25.951086 30.887536 26.442293 31.032062 26.891025 31.301969 26.604886 30.761741 25.998132 31.191143 25.827243 31.070844 25.385394 30.912118 24.896034 30.93666 24.441757 30.591206 24.310253 31.027705 23.596609 30.663986 23.923506L30.659213 24.021673ZM16.036773 27.022366C16.16007 27.500146 16.696059 27.716356 17.020907 28.04988 17.203098 28.233775 17.719962 28.706115 17.831636 28.280285 17.324513 28.125274 16.928789 27.731104 16.529371 27.396373 16.371077 27.325284 16.220452 26.898938 16.036773 27.022366ZM19.204901 29.898184C18.880817 30.018487 18.154024 29.93802 18.116427 30.335205 18.255496 30.516007 18.788728 30.413137 18.825786 30.258771 18.92545 29.907289 19.452533 30.220451 19.650328 30.25031 20.050617 29.792722 20.436504 30.452185 20.938422 30.290839 21.668774 30.33839 22.40591 30.332774 23.130171 30.441784 23.481672 30.517954 23.82524 30.587779 24.107515 30.77034 24.570382 30.847313 25.002659 30.894324 25.435306 31.030196 25.818885 31.187686 26.269708 31.13684 26.682832 31.170726 27.044985 31.28003 27.235542 31.036373 27.380102 30.796599 27.596128 30.808559 28.069107 31.014798 27.955114 30.633353 27.466717 30.828661 26.903996 30.714889 26.386412 30.726807 25.681523 30.715552 25.011373 30.471877 24.314423 30.391001 23.834897 30.34436 23.380284 30.186082 22.903976 30.130281 22.338487 30.104642 21.804502 29.895678 21.234976 29.905267 20.559542 29.873625 19.879645 29.841414 19.204901 29.898184ZM17.295849 30.336593C16.877088 30.580541 16.36823 30.576455 15.935032 30.797685 15.484327 30.902033 15.049204 31.036503 14.600717 31.182639 14.112601 31.339081 13.620604 31.456789 13.137996 31.615313 12.670076 31.611619 12.151465 31.702037 11.714955 31.528423 11.252992 31.388022 10.804028 31.210155 10.365036 31.012902 10.173766 30.844218 9.795156 30.883425 10.127415 31.13744 10.402656 31.3282 10.770232 31.259652 11.024428 31.52655 12.038663 31.771952 13.097743 31.726697 14.128266 31.645758 14.51116 31.509712 14.982966 31.572908 15.252625 31.212966 15.514754 31.32716 15.916733 31.463586 16.023354 31.06484 16.351851 30.87163 16.564711 31.172926 16.75903 30.831661 17.043029 30.604271 17.645178 30.439329 17.781338 30.302119 17.621264 30.282669 17.449202 30.281181 17.295849 30.336593ZM34.927629 31.604035C34.798622 31.863658 34.77249 32.265571 34.477317 32.447611 34.232319 32.855908 34.063025 33.30987 33.672579 33.624177 33.330409 33.968321 32.969806 34.309334 32.561859 34.562034 32.530359 34.78266 31.908497 34.978921 32.115287 35.101535 32.460409 34.817526 32.844443 34.611888 33.16951 34.292799 33.651338 33.808621 34.154985 33.328963 34.511377 32.744265 34.756263 32.380289 34.903603 31.944043 35.011902 31.53786L34.992947 31.542056 34.927629 31.604035ZM10.696369 34.887885C10.956185 35.314959 11.45287 35.584241 11.849436 35.844601 12.113116 35.971738 12.40784 36.036235 12.654832 36.137022 13.007681 36.385308 13.52993 36.407747 13.948007 36.541867 14.771285 36.587673 15.599022 36.589696 16.422245 36.54227 16.849098 36.411853 17.29371 36.403375 17.717806 36.254134 18.214597 36.355039 18.425346 35.848459 18.91175 35.866402 19.234402 35.748157 19.590771 35.677756 19.934833 35.563858 20.14712 35.460878 20.707774 35.43815 20.725175 35.294282 20.341074 35.338799 19.971251 35.436912 19.618363 35.603513 19.196895 35.720852 18.780469 35.803837 18.362673 35.900749 18.109577 36.013472 18.03449 36.287092 17.659063 36.197986 17.245613 36.372873 16.761646 36.356246 16.323805 36.485671 15.535642 36.531349 14.742891 36.533658 13.954801 36.486097 13.569638 36.387795 13.209198 36.283112 12.821436 36.175426 12.657106 35.818786 12.127647 35.976027 11.805949 35.752433 11.509518 35.421856 11.014136 35.291927 10.853843 34.864576 10.82281 34.837023 10.526705 34.73363 10.696369 34.887885ZM31.529516 35.226966C31.072349 35.432324 30.617428 35.608778 30.117402 35.654353 29.699656 35.768661 29.230838 35.756292 28.796242 35.84232 28.338317 35.893411 27.923957 35.743298 27.480894 35.697956 27.049482 35.587599 26.58209 35.57904 26.1375 35.491215 25.716807 35.349712 25.239875 35.379883 24.808121 35.296734 25.023799 35.497892 25.714443 35.376462 26.081352 35.547364 26.524122 35.628144 26.971402 35.653239 27.409625 35.754105 27.887191 35.801541 28.346739 35.945588 28.836041 35.898484 29.274511 35.822111 29.728214 35.814425 30.158952 35.710502 30.527292 35.692046 30.837474 35.554865 31.164551 35.45156 31.401239 35.363513 31.686328 35.279537 31.822556 35.06363 31.724251 35.116945 31.627013 35.172197 31.529516 35.226966Z" fill-rule="evenodd"></path></svg>