<?xml version="1.0"?>
<!-- Created with xTool Creative Space (https://www.xtool.com/pages/software) -->
<svg xmlns="http://www.w3.org/2000/svg" xmlns:xlink="http://www.w3.org/1999/xlink" xmlns:xcs="https://www.xtool.com/pages/software" version="1.1" preserveAspectRatio="xMinYMin meet" width="145.29620361328125mm" height="111.38729858398438mm" viewBox="506.684814453125 -535.9138183593749 145.29620361328125 111.38729858398438" xcs:version="1.1.10"><style></style>
<path transform="matrix(1,0,0,1,0,1.13687e-13)" stroke="#000000" fill="none" vector-effect="non-scaling-stroke" data-view-type="laser" d="M628.4664715898436,-535.8306716367188C629.0851405898437,-535.7417666367187 629.7085785898437,-535.5721536367188 630.3469445898437,-535.5029706367187C631.0281695898436,-535.3449306367188 631.7025915898437,-535.2302016367187 632.3230465898438,-534.9031156367188C632.9183005898436,-534.6977746367188 633.4993745898437,-534.5053776367188 634.0489715898436,-534.3154216367188C634.3622375898436,-534.1337346367188 634.7312415898436,-534.0165986367188 635.0185565898437,-533.8059546367188C635.4659855898436,-533.6258236367187 635.8489455898438,-533.4100596367188 636.3363775898437,-533.2344896367188C636.8831355898437,-532.9109366367188 637.4065105898437,-532.5828126367187 637.9053145898438,-532.1969026367187C638.4935035898436,-531.8403486367188 639.0138315898437,-531.3873366367187 639.5714595898437,-530.9914656367188C640.6017265898437,-530.3389906367188 641.4038915898436,-529.3898226367187 642.2283075898437,-528.5033536367188C642.5617425898437,-527.9575756367187 643.0643505898438,-527.5522386367188 643.4231695898437,-527.0213586367188C643.8541065898438,-526.5819366367188 644.1467815898437,-526.0243566367187 644.5408335898437,-525.5881156367188C644.7997505898437,-525.0460236367187 645.1713775898437,-524.5465486367187 645.4417055898438,-523.9998546367187C645.9559175898438,-523.1770576367187 646.4269375898436,-522.3258866367188 646.7554915898437,-521.4084426367187C647.2193255898437,-520.3004356367187 647.6656225898438,-519.1820216367188 647.9268275898437,-518.0065466367188C648.4136695898437,-516.0640596367188 648.5793655898437,-514.0493996367188 648.6024935898438,-512.0508726367187C648.5758415898437,-510.32865563671874 648.5833135898437,-508.57657963671875 648.1044305898437,-506.90683763671876C647.7816985898438,-505.3862206367188 647.2713545898437,-503.91298263671877 646.7205295898437,-502.4618356367188C645.8934175898437,-500.60963463671874 644.9149495898438,-498.81775563671874 643.6643095898437,-497.21488463671875C642.5849415898437,-495.7612646367188 641.3037335898437,-494.45923463671875 639.9298965898437,-493.2841266367187C638.9759025898437,-492.5698536367188 638.0498935898437,-491.80580063671874 636.9616735898437,-491.2977456367188C636.1476805898437,-490.83526663671876 635.2443685898437,-490.5296726367187 634.4756265898437,-489.9933776367188C633.8936425898437,-489.57855863671875 633.5679595898438,-488.8915836367188 633.6117185898438,-488.17998263671876C633.5834155898438,-485.9160636367187 633.9545315898437,-483.67105363671874 634.2771765898437,-481.4372956367188C634.3320445898438,-480.5137826367188 635.1812145898438,-480.04938263671875 635.9827895898437,-479.8650246367188C637.4317515898437,-479.3963976367188 638.7882275898437,-478.6917906367188 640.1890275898438,-478.10809963671875C640.7245975898437,-477.86237463671876 641.2156495898437,-477.6754406367188 641.6703285898437,-477.31991463671875C642.0349695898436,-476.7349566367187 642.7563635898438,-476.35156663671876 643.3022445898437,-475.8793826367188C643.8521365898437,-475.43406663671874 644.3435885898436,-474.9327816367188 644.8650975898437,-474.4539786367188C645.3715095898438,-474.0479716367188 645.6664735898437,-473.4044686367188 646.2584095898437,-473.1199686367188C646.7011495898437,-472.4181526367188 647.2514325898437,-471.76724963671876 647.6400385898437,-471.0559666367188C648.1650085898438,-470.77897963671876 648.4226575898437,-470.1913896367188 648.6157005898436,-469.64511763671874C648.8950245898438,-470.0517946367188 648.9288465898437,-469.7101056367187 648.9342295898437,-469.4132286367187C648.6584385898436,-469.3675236367188 649.3180265898437,-468.6229856367188 649.3839395898437,-468.3205336367188C649.9879425898437,-467.09021463671877 650.5022265898436,-465.81265963671876 650.9408515898438,-464.51605263671877C651.8589175898437,-461.52832263671877 652.1025215898437,-458.36723963671875 651.9290415898437,-455.25706963671877C651.7625795898437,-453.72346863671874 651.5437375898438,-452.1813276367187 651.1197785898437,-450.69754663671876C650.8486765898436,-449.8839766367188 650.5555475898436,-449.0743946367188 650.2382215898438,-448.2772936367188C649.7564685898437,-446.9861016367188 649.0758335898437,-445.7690286367188 648.3764425898437,-444.58235663671877C646.7490795898437,-441.88297063671877 644.5331305898436,-439.5610806367188 642.0282385898437,-437.6611726367188C640.9559755898438,-436.87793263671875 639.7772785898437,-436.25447063671874 638.6089735898437,-435.6295656367188C636.1576015898437,-434.4495286367188 633.4779695898437,-433.7474576367188 630.7668845898437,-433.53930963671877C628.7208025898436,-433.4919786367188 626.6593365898437,-433.5543666367188 624.6478265898437,-433.9636756367188C623.4721675898437,-434.16455763671877 622.3475895898438,-434.5774396367188 621.2436815898437,-435.0148126367187C620.6392325898437,-435.2842166367187 619.9586385898436,-435.6188476367188 619.3074555898437,-435.90043663671884C618.7148415898437,-436.1183136367187 618.1778685898438,-436.4312766367188 617.6144345898438,-436.7327396367188C616.9897925898438,-437.0601286367188 616.5337105898437,-437.5217456367188 615.9638485898437,-437.9863776367187C615.3898805898438,-438.3996256367188 614.8301225898438,-438.88135563671875 614.3535925898437,-439.39410063671875C614.1049405898437,-439.9143496367187 613.6550385898438,-439.7472576367188 613.5097745898438,-440.2719246367188C613.0637965898437,-440.75025763671874 612.5805195898438,-441.1976946367188 612.2171935898436,-441.7417256367188C611.7390525898438,-442.1691696367187 611.4811575898437,-442.74355263671873 611.1038045898438,-443.24255663671875C610.7329345898438,-443.8145156367188 610.5196355898437,-444.5253986367188 610.1064265898437,-445.0363336367188C609.5876215898437,-445.44774763671876 609.4930055898437,-446.13513663671876 609.2568185898438,-446.7111546367188C609.0284625898437,-447.32503063671874 608.8677815898437,-447.9670816367187 608.7375575898437,-448.6211996367188C608.6044955898437,-449.2910676367187 608.3588815898437,-449.93668363671884 608.2662995898437,-450.61307563671875C607.9901805898437,-451.20297763671874 607.6448555898437,-451.79910963671875 607.1580695898438,-452.2575366367188C606.3611995898437,-452.9390316367187 605.2965765898437,-453.4258896367188 604.2311965898438,-453.2054126367188C600.8553475898437,-452.8654066367188 597.4768495898437,-452.54633463671877 594.1083375898438,-452.1363636367188C589.2188735898437,-451.6390666367187 584.3256525898437,-451.1733586367187 579.4400395898438,-450.64072463671874C575.1402545898437,-450.2218536367188 570.8435085898437,-449.7672386367188 566.5405965898437,-449.3799966367187C564.4841875898437,-449.1465846367188 562.4115965898437,-449.0509566367188 560.3626835898438,-448.76080163671884C559.7838415898436,-448.54694463671876 559.2524995898438,-448.18860363671877 558.8021195898436,-447.7449546367188C558.0664655898438,-447.0750866367188 557.4465045898437,-446.1941916367188 557.4171015898437,-445.16461163671875C557.2878585898437,-443.7366396367188 557.3240085898437,-442.2797346367188 556.9071075898437,-440.8928346367188C556.6032285898436,-439.27114963671875 555.8872965898438,-437.77229663671875 555.1530785898437,-436.30871663671877C554.1616425898437,-434.39040963671874 552.8591175898437,-432.63709863671875 551.3078845898438,-431.1308596367188C549.8382755898438,-429.71098263671877 548.2466885898436,-428.39289863671877 546.4813985898437,-427.35602963671874C544.9108575898438,-426.52759463671873 543.2661895898437,-425.83929563671876 541.5788465898438,-425.29222663671874C539.8850365898437,-424.84237363671883 538.1376745898438,-424.5647076367187 536.3807815898438,-424.53244863671875C534.5085065898437,-424.5046236367188 532.6165655898437,-424.5620916367188 530.7842535898437,-424.9800136367188C530.1135725898437,-425.1336366367188 529.4171555898438,-425.25767963671876 528.7918995898438,-425.5308546367188C528.0929705898437,-425.6552326367188 527.4260055898437,-425.9801346367188 526.7600125898437,-426.26340663671874C525.8957065898437,-426.66009863671877 525.0293665898437,-427.0569746367188 524.1979085898438,-427.5170526367188C523.5104795898437,-427.82568563671873 522.9215175898437,-428.3344976367188 522.2330435898436,-428.63327363671874C521.7289445898436,-428.8695086367188 521.4952925898438,-429.5304136367188 520.9773165898437,-429.6040386367187C520.9151035898437,-429.6560996367188 520.5987115898438,-430.2005286367188 520.2114055898437,-430.18959463671877C519.7888265898437,-430.7731016367188 519.1170435898438,-431.20198863671874 518.6858835898438,-431.8201156367188C518.1341095898438,-432.3072526367188 517.5128645898437,-432.7717646367188 517.1488535898437,-433.43001263671874C516.7617955898437,-433.93715063671874 516.4690485898437,-434.51958863671877 516.1078135898438,-435.0266716367188C515.7423115898438,-435.5783576367188 515.3189345898437,-436.0912866367188 515.0027575898437,-436.68205063671877C514.6064315898437,-437.3840176367188 514.3260145898437,-438.1507816367188 513.8835145898438,-438.8253076367188C513.7310405898438,-439.18768363671876 513.6790985898438,-439.6041376367188 513.4360045898437,-439.9102986367188C513.3503455898438,-440.5012936367188 512.9313145898437,-440.99877463671874 512.9024295898437,-441.63349663671875C512.5987575898437,-442.2020586367188 512.6898085898438,-442.9094886367187 512.3470425898438,-443.41269463671875C512.3219535898438,-444.12081163671877 512.1181365898437,-444.7964856367188 512.0329395898437,-445.4872316367188C512.0161755898437,-446.1541016367188 511.82339658984375,-446.7971656367188 511.8774265898437,-447.4748016367187C511.88742758984375,-448.46789563671877 511.82483958984375,-449.47372663671877 511.95172158984377,-450.4582966367188C512.0269185898437,-451.0899326367188 512.1187185898438,-451.7173176367188 512.1925985898438,-452.3479086367188C512.3088105898437,-452.92965363671874 512.3494275898438,-453.52364763671875 512.5897215898437,-454.0398686367188C512.7387425898437,-454.5775836367187 512.8140425898438,-455.1419506367188 513.0447915898437,-455.6542806367188C513.1741775898438,-456.0597446367188 513.2532655898437,-456.4858176367188 513.4979385898437,-456.8235906367188C513.5354855898438,-457.4492136367188 513.9098635898438,-457.9528266367188 514.1206425898438,-458.5460786367188C514.4484395898437,-459.1514926367188 514.5647945898437,-459.7756966367188 515.0303425898437,-460.2838876367188C515.4097855898438,-460.86162863671876 515.7394795898438,-461.37178863671875 516.0687595898437,-461.9766766367187C516.5082225898437,-462.4891106367188 516.7957045898438,-463.0657106367188 517.2593315898437,-463.5436046367187C517.5994895898436,-464.1332526367188 518.1544695898438,-464.55525763671875 518.6357845898438,-465.0109886367188C518.9896035898437,-465.6694046367188 519.6873125898437,-466.06082563671873 520.1937245898437,-466.60129963671875C520.8332245898437,-466.89974763671876 521.1362985898438,-467.4494086367188 521.7187125898438,-467.8368186367188C522.2806785898438,-468.2344196367187 522.9758595898437,-468.40282763671877 523.5300185898437,-468.8627226367188C524.1624915898437,-469.15176863671877 524.4994675898438,-469.7379466367188 525.1834195898437,-469.8967686367188C525.6315665898437,-470.16390763671876 525.9825305898437,-470.55347863671875 526.3465965898438,-470.9199936367188C526.3146255898438,-471.9575326367188 526.3605455898437,-473.00604563671874 526.1601655898437,-474.02768363671873C526.2146345898437,-474.7305836367188 525.9541235898437,-475.3869506367188 525.9576725898437,-476.08536063671875C525.8765345898437,-477.0442746367188 525.8762635898438,-478.0438536367188 525.5327085898437,-478.95240563671877C524.9704865898437,-479.9083686367188 523.7637895898438,-479.9607406367188 522.8498065898438,-480.3816126367187C521.3718795898437,-480.93448763671876 519.9075575898437,-481.52389663671875 518.4834145898437,-482.20342163671876C518.0253225898438,-482.2232236367188 517.8168075898437,-482.44126863671875 517.6187645898437,-482.7937156367188C516.9815865898438,-483.0234116367187 516.5438545898437,-483.6100206367188 515.9721185898438,-484.00353863671876C515.2198135898437,-484.7038156367188 514.4125195898437,-485.34038063671875 513.6777435898438,-486.0597016367188C513.0959665898438,-486.40556163671874 512.8461495898437,-487.0484096367188 512.3309015898437,-487.50210763671873C512.0186555898438,-488.0550386367188 511.4850885898437,-488.4798026367188 511.21054158984373,-489.0602076367188C511.0260635898438,-489.27628163671875 510.82648158984375,-489.86053063671875 510.60777458984376,-489.73517163671875C510.48935458984374,-490.3389266367188 509.76682758984373,-490.7305866367187 509.72566058984376,-491.4454896367188C509.3522625898437,-491.9593116367188 509.2002355898437,-492.58745463671875 508.8897605898437,-493.11956263671874C508.6061215898438,-493.8192166367188 508.2189435898437,-494.47610163671874 507.9757215898438,-495.1888196367188C507.67005558984374,-495.5417606367188 507.7530355898437,-496.0716516367188 507.5345045898437,-496.45896563671874C507.4963765898437,-497.06815163671877 507.1902795898437,-497.5893826367187 507.1432915898437,-498.1942536367187C506.9476005898437,-498.7273586367188 506.9945895898437,-499.3201246367188 506.84772158984373,-499.8634216367187C506.73696558984375,-500.4917796367188 506.67825358984373,-501.13433363671874 506.69480158984373,-501.7864736367187C506.70736158984374,-503.13764563671873 506.63120058984373,-504.5022716367188 506.76797158984374,-505.8446716367188C506.8905715898437,-506.51187563671874 506.83787258984376,-507.2167626367187 507.00722158984377,-507.87829663671874C507.0527035898437,-508.48657363671873 507.3322585898437,-509.0315856367188 507.34965258984374,-509.64839563671876C507.58469158984377,-510.0181086367188 507.56411658984376,-510.5090656367188 507.75593858984377,-510.88779863671874C507.84031458984373,-511.4259036367188 508.1881275898437,-511.8694566367187 508.33868758984374,-512.4073466367188C508.57434958984373,-512.9917066367187 508.98069958984377,-513.5906456367188 509.2362345898437,-514.2043936367188C509.51481758984374,-514.7522756367188 509.7707025898437,-515.3792386367188 510.09404158984375,-515.8502266367188C510.28166158984374,-516.2820246367188 510.7399605898437,-516.4412536367188 510.83522158984374,-516.9299216367187C511.1439895898437,-517.4465026367188 511.54888058984375,-517.9315336367188 511.9076125898437,-518.4338946367187C512.2919115898437,-518.9009906367187 512.4853525898437,-519.3891406367188 513.0043265898437,-519.7399766367188C513.4681045898437,-520.3882806367187 514.0297355898438,-520.9832626367188 514.6609095898438,-521.4756716367187C515.2613945898438,-521.9333006367187 515.7865805898438,-522.4861676367187 516.4068355898437,-522.9201196367187C516.9582195898438,-523.3134386367187 517.5264945898437,-523.6449756367188 518.0532505898437,-524.0885446367188C518.6385125898437,-524.4039556367188 519.3248885898438,-524.6670276367188 519.8184535898438,-525.1351036367188C520.3634725898437,-525.5649006367188 521.0814065898437,-525.5829876367188 521.6700325898437,-525.9548146367188C522.1834955898437,-526.1694376367187 522.6965195898438,-526.3014876367188 523.2096145898438,-526.4264636367188C523.5884355898438,-526.6276336367188 524.0103605898437,-526.6957396367187 524.4325965898438,-526.8189216367188C525.0767695898437,-526.9486986367187 525.5704375898438,-527.3319776367188 526.2822945898438,-527.2588546367188C527.0233875898438,-527.4537156367187 527.8163735898438,-527.3185236367187 528.5727225898438,-527.4503816367187C529.5222415898438,-527.4821946367188 530.4783565898438,-527.5347656367187 531.4257145898437,-527.4576396367188C532.1487685898437,-527.3307406367187 532.8973735898437,-527.3043916367187 533.6257385898436,-527.2113556367187C534.0202535898438,-526.8373036367187 534.6305005898437,-526.8278696367188 535.1589715898438,-526.6594216367188C535.6949955898438,-526.6316606367187 536.0685125898437,-526.2486696367188 536.6115625898437,-526.2543796367188C537.2985045898438,-526.0433526367187 537.9667695898438,-525.8274776367188 538.6590475898438,-525.5945036367187C539.3430555898437,-525.3028896367188 539.9524495898437,-524.8516406367187 540.5819715898438,-524.4926936367187C541.1209305898437,-524.1867566367188 541.6473365898437,-523.9051276367187 542.1418185898438,-523.4882986367188C542.6902985898437,-523.2599426367187 543.1306705898437,-522.7438086367188 543.6599075898437,-522.4154616367188C544.1914325898438,-521.8981076367188 544.7980435898437,-521.4609176367187 545.2945505898438,-520.8996846367188C545.7275535898436,-520.3516506367188 546.3933465898438,-520.0565676367187 546.7628675898437,-519.4658916367188C547.0507895898438,-518.7664926367188 547.5660305898438,-518.2125966367188 548.0280295898438,-517.6327826367187C548.6589085898438,-516.5034426367188 549.3630765898438,-515.4052286367188 549.8941485898438,-514.2259096367188C550.2737585898437,-513.3381726367188 550.6367485898437,-512.4341346367188 550.8518975898437,-511.4921116367188C551.0774305898437,-510.42037563671875 551.0774945898438,-509.19139663671876 551.8810635898437,-508.35129363671876C552.5119015898438,-507.66638463671876 553.3785935898437,-507.1095546367187 554.3457455898438,-507.18322763671875C555.1447845898438,-507.1824536367188 555.9696945898438,-507.22405163671874 556.7079485898437,-507.5514646367187C557.4272375898437,-507.67054763671877 558.1887785898437,-507.4917726367188 558.8785755898436,-507.7530176367187C560.3174575898438,-507.8548256367188 561.7502535898437,-508.0465606367187 563.1910965898437,-508.11754663671877C563.2795235898437,-508.5871306367187 563.0140995898437,-509.0042866367188 563.0714715898437,-509.4780016367188C562.9746955898438,-510.1623286367187 562.9395015898438,-510.8566396367188 562.8012545898437,-511.53614963671873C562.8026665898437,-512.3073646367187 562.5811445898437,-513.0203926367187 562.5408795898437,-513.7851876367188C562.4782035898437,-514.4073496367188 562.5351615898437,-515.0992686367188 562.2391295898437,-515.6322056367187C562.1624575898437,-516.6649676367188 562.1283805898437,-517.7179556367188 562.2831595898438,-518.7440906367187C562.5178075898438,-519.2788616367187 562.4687775898437,-519.9231386367187 562.6164025898438,-520.4994596367187C562.8302995898437,-521.0220136367188 562.9012375898437,-521.5842516367188 563.0714715898437,-522.1183766367187C563.2006265898438,-522.4705286367188 563.3666265898437,-522.8234546367188 563.5011885898438,-523.1630056367187C563.6496275898437,-523.6551116367187 563.9482675898437,-524.0947966367188 564.1082215898437,-524.5859216367188C564.3281485898437,-525.0163246367188 564.4924255898437,-525.5254726367187 564.8665325898437,-525.9141976367188C565.2558725898438,-526.4241826367188 565.5988685898437,-526.9620566367188 565.9609175898438,-527.4771386367188C566.5261065898437,-528.1214386367187 567.1897215898438,-528.6824396367188 567.6923305898438,-529.3744146367187C568.1436915898437,-529.8128246367188 568.7260175898437,-530.0514526367188 569.1788065898437,-530.4874216367188C569.6638545898437,-530.9201286367188 570.3244475898437,-531.0386296367187 570.8635175898437,-531.3618566367188C571.6997595898438,-531.8005846367188 572.5787085898437,-532.1722596367188 573.4663895898437,-532.4757566367188C573.9854585898437,-532.5481616367188 574.4573235898438,-532.7845166367188 574.9978215898437,-532.8017986367188C575.2773569838438,-532.8564841567188 577.4383884311702,-533.2796960999123 579.4400395898436,-533.2344896367188C581.7281137656877,-533.1828768014927 583.8898170222437,-532.6547509157188 584.2079975898438,-532.6045126367187C585.0360175898437,-532.2570496367188 585.4935675898437,-531.3370226367188 586.3524505898438,-531.0551456367187C586.9062985898436,-530.5553926367188 587.5329505898437,-530.1870906367187 588.1337065898438,-529.7385366367188C588.8402755898437,-529.1139586367187 589.5474665898437,-528.4636216367187 590.0876055898436,-527.6889306367187C590.6496435898437,-527.3043836367187 590.8335155898437,-526.6099686367188 591.2278235898436,-526.0558576367188C592.2497715898437,-524.2274926367188 593.2536485898437,-522.3506806367187 593.7894655898438,-520.3136506367188C594.2714105898438,-517.8710986367188 594.4648285898438,-515.3856346367188 594.6410195898437,-512.9057686367188C594.6933515898438,-512.2739096367187 594.7567845898437,-511.64299863671874 594.8358175898436,-511.01390663671873C596.7819885898436,-511.28390863671876 598.7382475898437,-511.48758263671874 600.6932555898437,-511.67510663671874C601.2949685898437,-511.88673863671875 601.9119545898438,-511.9719436367188 602.4896475898438,-512.2562686367187C603.0320915898437,-512.6234616367187 603.5044505898437,-513.1655856367188 603.6332545898437,-513.8021826367187C603.7982015898438,-514.3306696367188 603.8061845898437,-514.9652246367187 603.8975145898437,-515.5362906367188C603.8597365898437,-516.1932786367188 603.9634675898436,-516.8265656367188 604.0614645898437,-517.4605776367188C604.0395255898437,-518.1105406367187 604.2576895898437,-518.7150776367188 604.2708165898438,-519.3625836367188C604.3644025898437,-519.9153946367187 604.6789445898437,-520.3990066367188 604.8589565898437,-520.9572966367188C605.0923605898437,-521.6426126367187 605.3797475898438,-522.3516936367188 605.6579715898438,-522.9909216367188C605.8746525898437,-523.4826996367187 606.2121545898437,-523.9941606367188 606.4360525898437,-524.5196576367188C606.6278355898438,-525.1623146367187 607.0505825898438,-525.6591576367188 607.3521885898438,-526.2291706367188C607.7789625898437,-526.7751226367187 608.2420475898438,-527.2984186367188 608.6526325898437,-527.8592926367187C609.1414115898436,-528.3685196367187 609.5507045898437,-528.9434616367188 610.0109105898437,-529.4667966367188C610.8617155898437,-530.0253656367188 611.4309945898437,-530.9325856367187 612.3236205898437,-531.4432726367188C613.1431315898437,-532.0156466367188 613.8747415898437,-532.7365866367188 614.8168605898437,-533.1078466367187C615.2677515898437,-533.2926436367188 615.6676895898437,-533.4700876367187 616.0380565898438,-533.7083886367187C616.3882785898437,-533.8575926367188 616.7334445898437,-533.9919716367187 617.0293245898437,-534.2122406367188C617.4480605898437,-534.4029546367187 617.8506545898438,-534.5429566367188 618.3092165898437,-534.6907406367188C619.0304995898438,-534.7778916367188 619.4541155898437,-535.3585356367188 620.2343735898438,-535.2958516367188C620.8066595898437,-535.5199976367187 621.4498915898438,-535.4948526367187 622.0265155898437,-535.7021386367187C622.6423455898437,-535.7245876367188 623.2140415898436,-535.8923896367187 623.8298305898437,-535.8923506367187C625.3598585898437,-535.9054296367187 626.8945835898437,-535.9510776367188 628.4219235898437,-535.8489106367188L628.4219235898437,-535.8489106367188L628.4664715898436,-535.8306716367188Z" fill-rule="evenodd"></path><path transform="matrix(1,0,0,1,506.27533,-647.629578)" stroke="#000000" fill="none" vector-effect="non-scaling-stroke" data-view-type="laser" d="M121.792392 118.059839C122.438335 118.186825 123.067611 118.30582 123.698106 118.462194 124.392888 118.734357 125.091243 118.922479 125.775969 119.208231 126.364611 119.467698 126.974204 119.706972 127.505028 120.074077 128.067808 120.301253 128.557354 120.747079 129.08112 121.071837 130.216273 122.014139 131.380575 122.95444 132.249962 124.162014 132.968757 124.930533 133.556546 125.810973 134.022326 126.751497 134.393658 127.45663 134.874152 128.127105 135.105132 128.892274 135.226934 129.517522 135.490675 130.041527 135.66012 130.654358 135.867637 131.348263 136.050456 132.077226 136.123946 132.806771 136.387504 134.597932 136.330251 136.416806 136.296708 138.221692 136.265678 138.839045 136.119241 139.455704 135.931565 140.024824 135.855244 140.564755 135.683263 141.138237 135.453065 141.592828 135.272008 142.380527 134.869765 143.107065 134.564817 143.856572 133.986207 144.878425 133.432024 145.914305 132.740688 146.86715 131.935611 147.959343 130.985462 148.943314 129.901819 149.763192 129.355882 150.217464 128.763874 150.604546 128.193805 151.009748 127.596502 151.356716 127.023944 151.610975 126.413243 151.875897 125.900666 152.0802 125.479506 152.281402 124.982392 152.551316 124.433282 152.881441 123.941758 153.274975 123.482454 153.73837 122.984942 154.169403 122.583943 154.716656 122.270892 155.262656 122.025581 155.715174 121.803557 156.199208 121.576565 156.670515 121.435152 157.255569 121.157295 157.835287 121.167025 158.483208 121.170972 159.752581 121.306436 161.019418 121.424545 162.281669 121.683238 163.339473 121.640732 164.444888 121.777056 165.52294 121.891833 166.365595 121.860252 167.246465 122.119527 168.058544 122.262479 168.618086 122.474494 169.151406 122.776212 169.680164 123.121729 170.253599 123.453593 170.83382 123.942532 171.303579 124.379498 171.820104 124.898663 172.243114 125.48839 172.564538 126.164319 172.886042 126.842824 173.236249 127.563397 173.389329 128.273204 173.707715 129.087045 173.842923 129.807267 174.163406 130.379099 174.401946 130.868612 174.676701 131.421958 175.008605 132.793067 175.954767 134.072744 177.045085 135.205377 178.268553 135.698416 178.937632 136.305369 179.545072 136.672745 180.303933 137.075626 180.764011 137.341888 181.33514 137.654053 181.866602 138.020377 182.535896 138.412197 183.22098 138.588675 183.959984 138.842153 184.521065 139.074161 185.185662 139.201315 185.824204 139.469323 186.414131 139.411544 187.095387 139.63352 187.702859 139.806075 189.228444 139.80326 190.777405 139.670907 192.306531 139.626024 193.053876 139.425875 193.76988 139.31397 194.496841 139.111014 195.120773 138.915459 195.775919 138.708683 196.416144 138.084887 198.182607 137.276006 199.914506 136.065569 201.358156 135.183159 202.471665 134.225776 203.542899 133.097505 204.415213 132.498192 204.861151 131.907388 205.333726 131.242767 205.697035 130.112072 206.433518 128.827562 206.889871 127.55622 207.319508 126.872156 207.500238 126.181577 207.709031 125.457232 207.775694 123.861028 207.857526 122.254384 207.880741 120.660421 207.752934 119.970033 207.555249 119.284039 207.460347 118.600295 207.214231 117.945252 207.001737 117.295776 206.777974 116.636156 206.546611 115.866632 206.139695 115.023882 205.849812 114.336748 205.302982 113.760012 204.927806 113.204131 204.508289 112.629755 204.093868 111.85744 203.463508 111.212008 202.70192 110.576113 201.940889 110.166206 201.488531 109.841153 200.97979 109.510892 200.480906 109.131896 199.994399 108.943367 199.353664 108.659314 198.785533 108.411371 198.218135 108.29248 197.631431 108.098815 197.057239 108.037144 196.40998 107.748609 195.832972 107.596892 195.212701 107.459659 194.758684 107.251072 194.309979 107.069609 193.874241 106.782118 193.440584 106.574083 192.832466 106.196004 192.405254 105.87513 191.790421 105.283129 191.357371 104.810419 190.857561 103.817484 189.905657 102.550918 189.299964 101.293731 188.778335 100.656481 188.643055 100.096357 188.327182 99.40829 188.371331 98.271573 188.351202 97.108986 188.295569 96.000493 188.583028 94.601446 188.709535 93.198118 188.813609 91.802189 188.964767 90.858276 189.186743 89.870485 189.123286 88.915319 189.29549 85.982306 189.626907 83.040416 189.873119 80.103168 190.163665 76.066111 190.546154 72.032164 190.963932 67.998728 191.383919 64.259466 191.760052 60.515914 192.094548 56.778757 192.492125 55.808215 192.606758 54.815535 192.57497 53.868791 192.836318 53.163394 192.84801 52.521064 193.075505 51.854505 193.244335 51.079989 193.550663 50.277561 193.837117 49.578688 194.31344 48.063876 195.50969 46.725408 196.991429 45.95787 198.782566 45.660921 199.407064 45.479729 200.060065 45.370025 200.748053 45.147762 202.230613 45.152299 203.739619 44.90509 205.218559 44.700619 205.843153 44.412467 206.460449 44.193401 207.093569 43.849416 207.863858 43.541062 208.653255 43.014186 209.323108 42.645063 209.897411 42.177513 210.400163 41.791028 210.94992 40.902837 211.896608 39.998312 212.836023 39.010696 213.679292 38.419788 214.157194 37.772681 214.534324 37.099918 214.901548 36.291014 215.312612 35.475347 215.723165 34.625642 216.032156 33.991765 216.274572 33.339115 216.48567 32.668394 216.639692 31.448634 216.948914 30.175082 216.970439 28.923517 217.02297 27.535237 216.981811 26.145155 216.829241 24.79864 216.484745 24.163192 216.240543 23.518788 215.997856 22.870046 215.788121 22.285574 215.535258 21.715114 215.240693 21.160477 215.026373 20.688947 214.725684 20.078038 214.443919 19.604881 214.041923 18.801615 213.4202 17.955356 212.854222 17.248939 212.117268 16.470013 211.326866 15.682035 210.515306 15.086892 209.576633 14.70154 209.147873 14.418555 208.546678 14.129892 208.063775 13.821156 207.461503 13.513082 206.820106 13.239882 206.187019 13.041297 205.481901 12.691314 204.806714 12.526024 204.076467 12.107703 202.686775 11.808785 201.248269 11.876995 199.789665 11.901685 198.549305 11.818658 197.293777 12.018822 196.066106 12.183434 195.363492 12.310053 194.633245 12.571936 193.942467 12.777237 193.231567 13.057646 192.545518 13.273481 191.84627 13.608056 191.391105 13.7649 190.740456 14.106462 190.321944 14.362324 189.756349 14.721047 189.283583 15.073989 188.761683 16.352142 186.837252 18.056703 185.206755 19.965311 183.914893 20.470169 183.618805 20.943262 183.311114 21.454308 183.126373 21.981256 182.799151 22.66398 182.501332 23.183328 182.066256 24.001842 181.459462 24.65623 180.651459 25.177205 179.782105 25.446593 179.314427 25.733318 178.789895 25.872944 178.208055 26.200565 177.393337 26.191769 176.513017 26.132993 175.652235 26.045515 173.455226 25.639261 171.287087 25.44936 169.098595 25.360527 168.250191 25.265074 167.398214 24.950093 166.613083 24.563138 165.61309 24.009314 164.671003 23.193815 163.959888 22.524441 163.316601 21.837084 162.66604 21.009709 162.242177 20.372347 161.97759 19.760976 161.728013 19.078723 161.594551 18.352487 161.359249 17.655871 161.155104 16.939963 160.933918 16.183774 160.543781 15.385428 160.211901 14.688142 159.728656 14.112874 159.389176 13.568979 158.963678 13.03317 158.532007 12.049486 157.713262 11.18876 156.747665 10.32301 155.804629 9.987271 155.296191 9.59246 154.815322 9.301301 154.287712 8.984917 153.74483 8.6661 153.230267 8.375092 152.673756 8.025899 151.963813 7.688238 151.238551 7.473383 150.482306 7.24076 149.879898 7.025116 149.285449 6.931354 148.649196 6.649454 147.922705 6.675508 147.113897 6.461364 146.365938 6.347999 144.877619 6.318077 143.368813 6.513345 141.886787 6.744093 141.206471 6.693715 140.452499 6.952392 139.791156 7.132659 139.123409 7.340225 138.476996 7.574729 137.819377 8.186874 136.43349 8.86967 135.072803 9.751506 133.836391 10.604567 132.450767 11.810116 131.328852 12.996693 130.233182 14.021887 129.404795 15.191859 128.774874 16.342955 128.141675 16.802993 127.87149 17.196272 127.66969 17.692716 127.483857 18.289301 127.165989 18.939495 127.04827 19.54731 126.815337 20.233375 126.711614 20.89723 126.443949 21.607898 126.406562 23.19903 126.305591 24.810116 126.398292 26.371517 126.71088 27.040995 126.905606 27.753393 126.955888 28.376137 127.246976 29.09683 127.420185 29.734001 127.672171 30.398892 127.989273 31.217008 128.39205 31.982416 128.909795 32.770235 129.361722 33.339594 129.764978 33.912645 130.194017 34.40558 130.707344 35.312449 131.58268 36.179802 132.520739 36.879944 133.569364 37.455491 134.453233 37.919652 135.406142 38.352822 136.364817 38.500822 136.981348 38.737162 137.570238 38.852392 138.196156 38.988143 138.880108 39.221372 139.565081 39.434926 140.240579 39.973757 141.528518 40.651568 142.782666 41.647829 143.775362 42.097531 144.240728 42.581335 144.690071 43.123882 145.034719 44.00811 145.723575 45.104266 146.080058 46.170268 146.379423 47.387277 146.682808 48.659441 146.516051 49.89752 146.473863 53.422175 146.109366 56.956065 145.839763 60.479715 145.462928 66.180628 144.951691 71.858947 144.199943 77.566527 143.763942 78.613669 143.515258 79.702743 143.532587 80.766185 143.372689 83.568369 143.052309 86.376653 142.790984 89.184268 142.525584 91.733573 142.218076 94.32032 142.179724 96.836073 141.629944 97.50815 141.398262 98.175594 141.107422 98.812837 140.75909 99.422454 140.443695 99.941052 140.045806 100.458239 139.589365 101.801412 138.458613 102.714637 136.909326 103.315266 135.277298 103.429054 134.646069 103.612303 134.034857 103.662992 133.385509 104.041701 132.085942 103.750837 130.692734 104.054908 129.378781 104.278359 128.873565 104.309278 128.340962 104.56916 127.828656 104.855781 127.24625 105.042619 126.623737 105.426057 126.129542 105.669335 125.507827 106.092329 124.985792 106.455574 124.448269 107.136025 123.618773 107.815391 122.784995 108.599852 122.048193 109.111871 121.499529 109.71254 121.065952 110.32833 120.657058 110.795362 120.291667 111.346825 120.002852 111.892427 119.723337 112.762037 119.268004 113.676291 118.887102 114.616782 118.621184 115.306189 118.43429 115.981034 118.221995 116.697125 118.153992 117.385056 118.074067 118.048632 117.894191 118.752482 117.965894 119.766041 117.973303 120.781449 117.981325 121.792392 118.059839Z" fill-rule="evenodd"></path><ellipse transform="matrix(0.01,0,0,0.01,571.899934,-525.440362) scale(100)" stroke="#000000" fill="none" vector-effect="non-scaling-stroke" data-view-type="laser" cx="7.059598154682135" cy="7.567867862374584" rx="7.059598154682135" ry="7.567867862374584"></ellipse></svg>