<?xml version="1.0"?>
<!-- Created with xTool Creative Space (https://www.xtool.com/pages/software) -->
<svg xmlns="http://www.w3.org/2000/svg" xmlns:xlink="http://www.w3.org/1999/xlink" xmlns:xcs="https://www.xtool.com/pages/software" version="1.1" preserveAspectRatio="xMinYMin meet" width="258.2445983886719mm" height="252.56948870388666mm" viewBox="-3603.571694456726 -132.66171025721607 258.2445983886719 252.56948870388666" xcs:version="1.1.10"><style></style>
<path transform="matrix(1,0,0,1,-3603.571694,-132.66171)" stroke="none" fill="#000000" data-view-type="laser" d="M62.353734 0.734625C54.395734 4.77934 46.4955 8.942329 38.465387 12.842627 36.745883 13.710857 34.9025 14.355285 33.176104 15.180664 25.697296 22.745864 18.116646 30.212787 10.768054 37.90491 9.895506 40.53781 9.441746 43.33214 8.769513 46.035428 6.324753 57.116677 3.84061 68.189177 1.408411 79.273159 0.894127 81.654874 0.374374 84.036778 0 86.445339 3.194346 94.46787 5.919996 102.670335 9.20619 110.657938 10.972928 115.285755 12.488706 120.014943 14.453892 124.564127 17.360136 129.813601 21.212663 134.449205 24.477689 139.469709 28.187452 144.750188 31.950494 149.993258 35.64809 155.282784 40.432935 162.065027 45.139022 168.904208 49.810281 175.764562 50.962766 177.817726 52.395862 179.69837 54.173489 181.254432 66.336756 192.877277 78.122199 204.888006 90.271481 216.524767 100.587347 226.231957 110.943545 235.897756 121.447184 245.401863 124.005562 247.768763 126.557887 250.161722 129.333506 252.273562 131.170906 253.429099 132.489393 250.891713 133.787763 249.957343 138.674962 245.20819 143.4733 240.365092 148.544124 235.809294 153.234641 231.286253 157.98806 226.830421 162.769012 222.403339 166.372117 218.89382 170.150094 215.570658 173.784601 212.09599 176.790358 209.056837 179.619968 205.844866 182.772824 202.951197 191.136327 194.763923 199.583068 186.659329 207.829198 178.353606 210.063534 175.660209 211.709613 172.534866 213.742561 169.69138 220.689005 159.443627 227.696139 149.236855 234.661444 139.002131 238.345456 133.748087 241.883983 128.39427 245.465516 123.070327 247.581861 115.987584 250.461634 109.163289 252.742464 102.134038 254.485938 96.918209 256.256727 91.709868 258.070402 86.519284 258.617606 84.852768 257.725304 83.159601 257.46492 81.515184 255.217266 71.779916 253.079447 62.019862 250.818515 52.287531 249.6623 47.369058 248.645009 42.410368 247.272052 37.547424 241.82762 31.78462 236.096147 26.294235 230.466395 20.711932 228.343031 18.672021 226.287435 16.554788 224.074971 14.611524 219.966231 12.994114 216.082406 10.841045 212.116079 8.903794 206.63219 6.18282 201.228549 3.296173 195.714375 0.639846 194.741744 0.227846 193.597511-0.251906 192.592163 0.308716 181.661389 4.139093 170.6457 7.728012 159.794616 11.784073 156.150799 13.153088 152.390985 14.221167 148.798228 15.716905 146.756568 17.153926 145.705981 19.550308 144.21338 21.486117 140.769815 26.328886 137.031773 30.95708 133.704304 35.884118 132.183153 37.947462 130.765596 40.101921 129.104484 42.0532 127.837037 41.604411 127.097595 39.594332 126.057236 38.516331 120.497545 31.032051 114.839862 23.619815 109.363767 16.074139 107.211438 14.804387 104.68697 14.315946 102.375087 13.388528 93.826918 10.260593 85.286422 7.110723 76.67743 4.151954 72.633411 2.774907 68.641505 1.226976 64.546859 0.008501 63.750703-0.070212 63.044662 0.411382 62.353734 0.734625ZM65.683894 2.640251C77.080971 6.626057 88.448651 10.697477 99.797657 14.818349 101.744962 15.519653 103.783671 16.148195 105.7166 16.754805 104.404673 17.879234 102.663575 18.470869 101.165999 19.346632 93.220056 23.648919 85.234322 27.882837 77.27976 32.172809 74.566469 33.684253 71.646355 34.838171 69.053531 36.555135 68.337378 35.062574 68.465834 33.313601 68.15308 31.711419 67.021388 22.158099 65.639896 12.621026 65.06328 3.012887 64.974215 2.437569 65.153549 2.330353 65.683894 2.640251ZM192.947748 2.798555C192.044161 7.620336 191.389971 12.489703 190.389667 17.295945 189.214391 23.144006 188.268098 29.046463 186.799701 34.830422 186.502433 37.37591 184.274278 34.805334 183.132457 34.2899 177.435336 30.813767 171.442144 27.856274 165.670018 24.508672 161.09492 22.010737 156.595365 19.362692 151.948273 17.004024 152.607148 16.133909 155.043391 15.750457 156.432217 15.146076 165.852725 11.860099 175.2331 8.458739 184.685489 5.263498 187.448168 4.387037 190.098899 3.160293 192.915848 2.463804 193.075388 2.467238 192.947668 2.780852 192.947748 2.798555ZM63.852236 8.331211C64.665216 16.925137 65.768322 25.488698 66.97037 34.035194 67.561943 36.571083 65.083542 34.180922 64.124909 33.733821 58.687774 30.180747 53.094137 26.880286 47.57111 23.464994 44.020427 21.145874 40.466731 18.809701 36.655415 16.935337 36.113585 16.09028 38.660914 15.585905 39.325921 14.909988 47.226397 10.748025 55.375641 7.063934 63.151234 2.663578 63.587237 4.514145 63.627732 6.446256 63.852236 8.331211ZM208.869836 9.778873L221.605512 16.142524C219.57073 17.329685 217.452431 18.376081 215.447955 19.626132 209.896198 22.897196 204.234207 25.973837 198.677327 29.235596 195.453932 31.039358 192.326914 33.007219 189.179521 34.935652 187.848114 35.451028 189.362427 33.058418 189.195231 32.36324 190.603258 25.526077 191.753572 18.639088 193.121344 11.79409 193.671519 8.829202 194.037731 5.830148 194.694273 2.885482 197.933738 4.210343 201.000145 5.933494 204.161934 7.433123 205.732152 8.213189 207.301412 8.99521 208.869836 9.778873ZM41.272818 21.620153C49.555821 26.815756 57.848915 31.996402 66.160791 37.144844 68.438543 38.168428 65.15312 39.782789 64.378977 40.897748 59.316152 45.795937 54.213404 50.651857 49.030202 55.422765 44.89157 59.355174 40.877127 63.438138 36.342231 66.925721 32.652381 69.866734 29.244524 73.142499 25.54427 76.06793 23.52503 77.468428 21.665716 79.091869 19.635331 80.469427 20.470433 79.33128 22.180333 78.171297 23.302029 76.983389 26.376744 74.268912 29.32513 71.416041 32.032941 68.332475 33.418374 66.664117 35.338619 65.425287 36.398299 63.504255 37.069098 61.318852 36.582689 58.979653 36.583578 56.734335 35.969062 44.542977 34.897585 32.372704 34.585813 20.167467 34.451583 18.967469 34.62238 16.901858 36.109707 18.455994 37.842342 19.491612 39.558869 20.553987 41.272818 21.620153ZM108.938899 19.047617C112.31479 23.797067 115.955738 28.35256 119.356175 33.085504 122.329855 37.275248 125.594786 41.256019 128.427406 45.544954 127.897906 48.302057 128.206818 51.140967 128.099056 53.931864 128.056928 61.825338 128.268704 69.723692 128.05617 77.614024 127.20454 76.20794 126.957494 74.456095 126.395516 72.901371 122.536232 60.415462 118.298714 48.051127 114.191234 35.645586 101.061575 35.579721 87.929607 35.672057 74.802145 35.404652 73.904937 35.053411 76.388304 34.529002 76.8529 34.192396 80.552813 32.559893 84.027385 30.462203 87.616422 28.604431 92.636485 25.762819 97.789193 23.166256 102.819083 20.342032 104.542576 19.600385 106.200108 18.131802 108.000833 17.899861 108.365257 18.236749 108.657744 18.641405 108.938899 19.047617ZM150.362046 18.082642C155.814274 21.403175 161.615269 24.125459 167.071983 27.446206 171.376191 30.040206 175.978304 32.098181 180.262633 34.724091 180.745679 35.012818 182.223626 35.463118 180.882211 35.345692 168.250908 35.483558 155.618428 35.425839 142.986566 35.446211 142.221385 36.981471 142.135295 38.773519 141.531747 40.380118 139.210464 47.92517 136.779185 55.436763 134.600196 63.024836 133.090907 67.664364 131.789347 72.373005 130.554339 77.091661 130.024639 78.727382 130.002269 75.736926 130.007912 75.215072 129.841055 65.306224 129.876125 55.395241 129.818246 45.485341 131.427123 41.746433 134.520685 38.93913 136.674812 35.534283 140.166945 30.591729 143.71893 25.689459 147.313004 20.821329 148.234336 20.129269 149.168308 17.500535 150.362046 18.082642ZM222.689912 21.141055C222.232407 30.535868 221.358387 39.904785 220.759962 49.291162 220.418373 54.151745 220.065978 59.011581 219.729194 63.872501 220.306165 63.713665 220.918805 63.423749 221.265936 64.102567 226.453953 69.251126 231.633297 74.409567 236.902539 79.474645 236.70753 79.729034 234.73629 77.993741 233.915901 77.417584 230.204755 74.540838 226.283188 71.946125 222.578721 69.057754 215.004325 63.31257 208.283673 56.554025 201.152667 50.287457 196.851351 46.265519 192.524455 42.266411 188.326874 38.136524 187.206825 36.866194 190.371006 36.586658 191.01066 35.724162 198.34459 31.297554 205.772904 27.030646 213.271936 22.89062 216.245534 21.274032 219.064876 19.363099 222.115513 17.898215 223.161933 17.37088 222.707119 18.608115 222.761668 19.1962L222.689912 21.141055ZM33.270304 22.936227C33.357852 31.437619 34.046726 39.917351 34.474059 48.405343 34.744591 52.93934 35.067548 57.469961 35.380489 62.001167 34.30328 64.026374 32.391611 65.449978 30.889617 67.145999 25.40824 72.965649 19.710946 78.581437 14.305551 84.471959 13.457605 85.218924 12.707975 86.942648 11.813826 87.091849 11.812498 81.438319 12.037337 75.784104 12.056326 70.129081 12.148603 60.197016 12.324338 50.263049 12.256209 40.331248 12.063242 39.681636 12.247194 39.170385 12.816519 38.800602 19.623913 32.000435 26.479576 25.247275 33.239401 18.400446 33.255076 19.912325 33.26078 21.424299 33.270304 22.936227ZM235.222226 28.647922L245.479671 38.896196C245.430565 44.302716 245.621247 49.705581 245.827222 55.107035 246.032 65.36511 246.246747 75.627537 246.123553 85.887568 245.679425 86.911047 244.202794 84.534745 243.533034 84.153958 238.518413 78.933456 233.626847 73.592464 228.432471 68.546405 226.188944 66.218369 223.657061 64.141103 221.646583 61.604012 221.955754 53.850506 222.706899 46.11915 223.197561 38.374769 223.672014 31.75019 224.073136 25.107631 224.606883 18.4948 225.916398 19.111778 227.05794 20.726594 228.279909 21.766516 230.605419 24.048776 232.916793 26.345396 235.222226 28.647922ZM113.054397 37.589492C115.909996 45.45187 118.362713 53.456475 121.045371 61.379502 123.013296 67.487714 125.084529 73.572661 126.703949 79.784292 127.118051 81.964201 125.172272 79.103558 124.366748 78.802087 117.81237 73.848757 111.173747 69.006546 104.620901 64.050347 99.592895 60.345892 94.733131 56.418362 89.669484 52.760281 83.472475 48.141767 77.421178 43.330625 71.30794 38.603739 69.260006 37.052105 73.251438 37.426765 74.264173 37.295115 86.613393 37.082909 98.965757 37.187919 111.316436 37.142546 111.83429 37.281257 112.710139 36.837482 112.962695 37.407864L113.054397 37.589492ZM183.341063 37.599062C184.940669 37.909904 183.021026 38.890249 182.502013 39.436237 177.264452 43.752967 172.08122 48.13849 166.68059 52.252066 158.744688 58.668654 150.626217 64.854747 142.629725 71.194179 139.848763 73.567433 136.987731 75.839694 134.078392 78.052956 133.398084 78.543235 131.188192 81.057856 131.610627 78.957014 132.294583 76.553381 132.902936 74.129234 133.684267 71.751934 137.025373 60.161721 140.684224 48.665621 144.190392 37.125946 156.985861 37.164056 169.78139 37.202268 182.576859 37.240586L183.341063 37.599062ZM185.373891 40.122153C183.496755 50.497451 181.083081 60.772877 178.806079 71.068542 176.251308 72.402509 173.315332 72.677499 170.556361 73.393428 163.4811 75.014957 156.371687 76.477251 149.271165 77.980774 143.928693 79.104842 138.668762 80.622124 133.289624 81.561573 131.269856 81.654719 134.287915 79.984822 134.691968 79.476286 141.818927 74.009762 148.818763 68.381203 155.87937 62.830373 162.169173 58.007514 168.339909 53.03235 174.561545 48.123022 178.026264 45.411259 181.186836 42.279139 184.937259 39.953801 185.108662 39.818886 185.503963 39.775849 185.373891 40.122153ZM70.734462 40.501962C75.991133 44.444603 81.134043 48.540529 86.401453 52.471154 95.532906 59.460846 104.793005 66.281898 113.949852 73.237061 117.4712 76.177583 121.398177 78.566486 125.141395 81.200505 125.295404 82.138449 122.569035 81.07713 121.64223 81.056919 112.783509 79.416158 103.933105 77.731729 95.066604 76.133405 89.210242 74.949128 83.308353 73.963527 77.493872 72.58778 76.284703 71.356821 76.407767 69.332917 75.896558 67.744473 74.185906 59.038632 71.994303 50.437098 70.235897 41.742083 70.24811 41.104494 69.407697 39.44051 70.734462 40.501962ZM188.331021 40.974282C192.485138 44.696761 196.632457 48.4307 200.740878 52.204703 205.590037 56.842805 210.666444 61.234444 215.575555 65.808165 218.621765 68.61441 221.961935 71.065783 225.371227 73.407175 231.617965 77.994692 237.787006 82.692466 243.98067 87.34786 244.426692 88.829037 241.896564 90.061158 241.066386 91.308227 234.189783 97.842805 227.301536 104.36521 220.38446 110.857265 215.647948 115.522897 210.511649 119.765495 205.907562 124.567709 204.584948 126.658603 204.122318 123.387212 203.366966 122.417131 199.937218 115.67892 197.039362 108.692694 193.77005 101.878001 189.771206 93.288404 185.954371 84.615701 181.996119 76.007458 181.347752 74.501166 180.551009 72.914552 180.504994 71.26402 182.701947 61.871916 184.616046 52.416575 186.617851 42.981591 187.0234 42.027052 186.653739 39.092383 188.122734 40.804981L188.331021 40.974282ZM68.491892 41.576992C70.93606 51.870983 73.217271 62.210233 75.368515 72.564744 75.265227 74.599035 74.035043 76.359062 73.393706 78.252953 69.682344 87.674749 65.780735 97.020038 61.758821 106.313204 60.012816 110.651035 58.322062 115.010519 56.409916 119.279561 55.073843 122.400673 53.747154 125.525802 52.425457 128.653027 44.288112 120.967468 36.381374 113.040629 28.427306 105.166273 23.380333 100.059135 18.209633 95.06007 13.444925 89.684675 12.407102 88.287104 15.130956 87.318502 15.896306 86.2628 21.607379 81.411067 27.356601 76.602383 33.291614 72.025465 41.426534 65.363676 48.783984 57.829634 56.464924 50.66492 59.996043 47.386419 63.354277 43.907136 67.088366 40.856828 68.022559 39.884719 68.278884 40.595429 68.491892 41.576992ZM248.182 50.11423C249.15162 54.540461 250.221566 58.944541 251.169495 63.376282 252.754347 70.500826 254.583971 77.575263 255.858137 84.765406 256.329798 86.984102 254.813731 88.939889 254.252012 90.99471 251.77059 98.202555 249.338315 105.431535 246.591446 112.543902 245.597003 113.89455 246.498916 110.28223 246.366292 109.582385 246.844852 102.710864 247.168936 95.821581 247.97156 88.978399 247.951682 76.843264 247.884752 64.707862 247.625205 52.575273 247.708943 51.442121 247.439348 49.025932 247.842385 48.51676 247.976704 49.044515 248.0799 49.57952 248.182 50.11423ZM10.480546 56.131367C10.377552 67.080211 10.138837 78.030983 9.998102 88.977494 10.819581 94.99359 11.724859 101.000631 12.200761 107.057311 12.461107 109.738241 12.781672 112.440085 13.368754 115.056228 11.960995 112.83204 11.316222 110.207922 10.312562 107.783937 8.153596 102.237068 6.039755 96.673498 4.080283 91.052419 3.405179 88.917386 2.064351 86.778244 2.639691 84.459981 4.500679 73.905758 7.27694 63.540406 9.440883 53.047888 9.72952 52.068663 9.933283 50.276699 10.429232 49.832754 10.525194 51.930177 10.486967 54.032385 10.480546 56.131367ZM179.76926 75.022149C182.156656 79.654352 184.118845 84.492714 186.329734 89.21023 189.887063 97.142811 193.487895 105.055759 197.228927 112.903399 199.312017 117.729013 201.833613 122.362108 203.76751 127.249927 203.245068 128.751761 201.663466 129.843449 200.710952 131.167979 196.941429 135.627059 193.166223 140.080739 189.281441 144.440299 184.11079 150.559449 178.782354 156.541594 173.542101 162.600887 171.524805 164.78839 169.687743 167.1839 167.431137 169.126551 167.021282 167.524293 166.314119 165.88904 165.565366 164.353872 162.305047 156.83327 159.058903 149.305844 155.890256 141.746573 151.347277 131.505389 147.086932 121.141115 142.727797 110.820993 139.177307 102.014774 135.336906 93.327116 131.805816 84.514193 132.773044 83.217346 135.011486 83.288186 136.521573 82.71042 144.074336 81.010375 151.594622 79.167618 159.170613 77.570048 165.434656 76.098983 171.735385 74.779288 178.049152 73.541618 178.997639 73.204864 179.355537 74.43089 179.76926 75.022149ZM81.094984 75.108478C95.185439 77.854522 109.274666 80.607444 123.354911 83.405529 124.376403 83.846851 126.609286 83.522709 126.906055 84.412885 123.342335 92.281729 120.534202 100.464612 117.301619 108.470736 114.594019 115.348011 111.73291 122.164003 109.162127 129.094981 106.812114 135.147139 104.373754 141.164181 102.10759 147.248675 99.037817 155.071383 95.998452 162.906988 92.98345 170.750181 92.190292 171.416652 91.116504 169.122822 90.247367 168.634433 82.192469 160.386902 74.366955 151.919503 66.363909 143.622798 62.273942 139.551345 58.58101 135.106594 54.701251 130.840242 53.045774 129.34559 54.898997 127.282716 55.346925 125.637468 59.595863 116.130046 63.397438 106.432741 67.507444 96.865969 70.347308 90.125391 73.086226 83.342478 75.887855 76.586585 76.297692 74.975619 77.502083 73.882756 79.144971 74.726697 79.795782 74.849787 80.445713 74.977519 81.094984 75.108478ZM131.168015 87.53293C134.224194 94.491556 137.129407 101.516329 140.084145 108.518716 144.755521 119.869952 149.606036 131.146229 154.357381 142.463984 157.615009 150.00659 160.975096 157.50631 164.047724 165.126869 164.634425 166.612432 165.535659 167.969278 166.0395 169.481837 164.296105 168.553966 162.628652 167.450066 160.895047 166.48555 153.756784 161.875342 146.727998 157.094299 139.647593 152.394815 136.91797 150.487953 134.02771 148.794697 131.439703 146.694088 130.864148 145.164381 131.224518 143.295089 131.069364 141.622494 130.859801 125.428126 130.613075 109.23324 130.055602 93.046396 130.021469 90.612022 129.857563 88.171307 130.004024 85.739346 130.402893 85.539062 130.876549 87.095988 131.168015 87.53293ZM128.632164 91.021992C128.768696 101.77321 129.151496 112.519977 129.273015 123.271844 129.406557 131.166075 129.505646 139.060844 129.597538 146.955652 123.772889 150.648286 118.190262 154.706919 112.472222 158.560274 109.018116 160.877589 105.666573 163.338774 102.294514 165.77073 99.820258 167.383315 97.433201 169.141464 94.995658 170.794562 94.9598 169.450994 95.934597 167.769146 96.375038 166.318792 99.856813 157.289769 103.516802 148.330147 106.929075 139.274132 109.899549 131.973205 112.650597 124.586658 115.540345 117.254292 118.541863 110.09314 121.187318 102.790467 124.166115 95.620001 125.435802 92.541037 126.432739 89.344746 127.885066 86.344826 128.956747 84.884646 128.441303 88.023412 128.605687 88.758269 128.620142 89.512764 128.628396 90.267372 128.632164 91.021992ZM243.505261 93.098483C239.333917 101.324779 235.940036 109.915756 232.195514 118.339003 229.232822 125.154101 225.967877 131.833784 223.112328 138.696399 219.422714 146.952256 215.798356 155.236858 212.225536 163.543911 210.839282 166.205149 210.148527 169.169017 208.688923 171.790221 207.452598 173.314343 207.989914 169.707828 207.764959 168.908913 207.248339 155.158484 206.50774 141.418163 205.786661 127.677407 205.993014 125.693847 208.407026 124.700579 209.601821 123.206628 214.699919 118.412028 219.797878 113.617145 224.932522 108.862065 230.162627 103.833106 235.429756 98.838428 240.887567 94.057427 242.233667 92.857108 243.37132 91.400372 244.841871 90.354884 244.509134 91.315746 243.970941 92.197478 243.505261 93.098483ZM245.601489 93.203753C244.926505 99.581528 244.795835 106.005696 244.49107 112.409804 244.36024 115.737526 244.197271 119.068151 243.776411 122.373711 241.779072 124.943232 239.704774 127.450361 237.917039 130.176653 232.078282 138.733501 226.328446 147.351999 220.335593 155.802734 217.357568 160.039194 214.694158 164.50761 211.437686 168.541664 211.405168 167.796779 212.932779 165.819398 213.483832 164.610627 216.01085 160.050628 217.728805 155.110851 219.862057 150.365642 224.532038 139.661705 229.222853 128.966979 233.994794 118.308234 236.341697 113.448807 238.387185 108.454926 240.594386 103.532774 242.026536 100.307941 243.539294 97.119975 245.001749 93.910292 245.101417 93.470012 245.884721 91.848932 245.601489 93.203753ZM14.283624 93.692621C25.899251 105.026906 37.221783 116.66266 48.995609 127.833994 50.160515 128.912045 51.427479 129.893263 52.480484 131.085402 52.370025 145.103033 52.409834 159.123153 52.100701 173.138195 51.718748 174.599833 50.943941 171.742111 50.61009 171.247143 49.11383 167.875034 47.823684 164.420922 46.177987 161.115304 44.069457 156.476097 41.877453 151.877276 39.640589 147.298824 35.453532 137.9667 30.738988 128.884154 26.440118 119.604024 22.666665 111.81456 19.147995 103.893467 15.023835 96.279085 14.632666 95.232864 12.564142 93.651735 13.267587 92.839591 13.624309 93.101649 13.955052 93.396716 14.283624 93.692621ZM14.843269 98.847461C16.744318 103.415188 19.001708 107.819504 21.058897 112.315219 24.312772 119.44883 27.95268 126.400093 31.206169 133.533318 34.089128 139.59692 37.157658 145.577181 39.785598 151.757459 41.602521 154.998665 42.915343 158.482717 44.504984 161.836862 45.409451 163.998207 46.598382 166.04836 47.398041 168.243459 46.27213 167.491077 45.675598 165.724176 44.775175 164.568858 37.923679 154.138168 30.330071 144.223532 23.309121 133.909206 21.271544 130.922006 18.997905 128.103679 16.920175 125.149087 15.191464 122.273934 15.616729 118.771222 15.196452 115.570428 14.574307 108.735923 13.74585 101.917138 13.406174 95.059336 13.864679 96.329746 14.325552 97.599625 14.843269 98.847461ZM204.613578 136.964771C205.271137 150.066923 206.163739 163.163663 206.350852 176.284013 205.940698 177.944727 204.165742 178.854595 203.10413 180.105633 194.09248 188.578154 185.275878 197.256868 176.518331 205.990051 175.215954 207.121125 177.198399 204.668534 177.184463 204.15301 181.149533 195.2368 184.337838 186.003904 187.971567 176.952179 192.010466 166.70887 196.048328 156.464001 199.888749 146.144295 201.430576 142.019585 202.815036 137.837773 204.279067 133.686725 204.591607 134.097829 204.502466 136.023624 204.613578 136.964771ZM201.850041 135.455303C197.750433 146.950406 193.574743 158.420779 189.011846 169.741662 183.874132 182.699662 178.93043 195.735318 173.662802 208.64128 172.431941 210.935887 170.190149 212.449303 168.370672 214.249539 161.153178 220.608525 154.341531 227.405737 147.242365 233.893599 143.357802 237.506992 139.575499 241.238634 135.733702 244.889649 136.664345 242.632066 137.694396 240.391729 138.598422 238.112115 140.350729 233.939236 142.252906 229.833626 144.124499 225.715436 147.342212 218.563516 150.837974 211.538059 154.01635 204.367358 158.540428 194.475886 162.870394 184.49621 167.390565 174.603601 169.251511 170.325711 172.896365 167.281853 175.793025 163.743246 179.41846 159.52798 183.050853 155.31963 186.746528 151.165985 191.303124 145.877689 195.630638 140.382723 200.56818 135.435017 201.18999 134.833945 202.953223 132.710424 202.067659 134.799836L201.964223 135.117793 201.850041 135.455303ZM56.526401 136.566819C59.004262 138.744648 61.037185 141.376914 63.370865 143.705399 70.117374 150.68475 76.605073 157.907907 83.391313 164.849399 86.363386 168.049148 89.657831 170.966682 92.33786 174.424403 95.254937 179.719404 97.267875 185.457855 100.013703 190.841279 104.453882 200.205704 109.024849 209.507983 113.35279 218.925182 116.587432 225.532928 119.624007 232.233563 122.605541 238.958203 123.641834 241.254983 124.773166 243.512446 125.974396 245.721581 124.683018 245.608495 123.368182 244.01822 122.278482 243.082115 117.547778 238.921777 112.95613 234.609914 108.392498 230.268084 102.889586 225.288674 97.55649 220.126137 92.046367 215.155021 90.337327 213.566919 88.441861 212.139992 86.927342 210.364697 85.675349 207.518918 84.816635 204.51334 83.532421 201.676194 79.509976 192.099954 75.18454 182.654364 71.19363 173.064346 66.237355 161.597393 61.262532 150.137027 56.451849 138.608445 56.435006 137.9611 54.361789 134.808923 56.526401 136.566819ZM54.482409 137.986568C56.070907 142.275164 58.068284 146.406308 59.794766 150.642901 62.662089 157.570191 65.781191 164.388783 68.649207 171.315688 71.988206 178.567336 74.946911 185.986857 78.218104 193.269527 80.252198 198.168111 82.109071 203.153762 84.572881 207.860727 75.538997 198.92131 66.478464 190.007274 57.290153 181.226659 56.146349 180.069626 54.792098 179.074227 53.879299 177.712834 53.996031 164.454118 53.968328 151.192847 54.275737 137.936822 54.088095 137.08953 54.559276 137.792566 54.482409 137.986568ZM134.147475 150.576302C140.282184 154.974058 146.545051 159.186521 152.889981 163.273957 156.514339 165.71658 160.225446 168.025602 163.965342 170.283245 164.978546 170.762542 166.680311 172.292984 164.491891 172.321834 159.130578 173.868346 153.984988 176.067791 148.697763 177.842289 143.597591 179.607973 138.522899 181.457476 133.446871 183.282774 132.797786 181.816391 133.011077 179.990574 132.794197 178.37121 132.171509 168.656085 131.461694 158.944637 131.03882 149.218159 130.839704 147.531112 133.819224 150.679205 134.147475 150.576302ZM129.705599 152.52918C130.092905 162.699937 130.801843 172.854923 131.381466 183.014973 131.302673 184.416839 128.930708 182.646807 127.959433 182.643039 119.44501 179.917503 110.884833 177.335198 102.4232 174.446354 100.413315 173.678461 98.210907 173.378442 96.318427 172.340376 96.390509 171.026255 98.743521 170.373561 99.709421 169.392656 107.424913 163.972468 115.2503 158.710515 122.928799 153.237687 125.058493 151.804623 127.145724 150.293437 129.362674 148.999644 129.72462 150.095688 129.611953 151.371914 129.705599 152.52918ZM101.132171 175.898322C110.731146 179.082002 120.365802 182.160691 129.987835 185.270822 131.966512 185.782657 130.909784 188.233135 131.108103 189.714173 130.301352 207.593445 129.796734 225.48452 129.331751 243.375316 129.136045 244.491636 129.650931 246.309936 129.097047 246.989327 127.331342 244.183562 126.044357 241.094566 124.622049 238.102724 121.717321 231.293869 118.452434 224.647424 115.415273 217.897862 112.191915 211.038944 108.995396 204.166687 105.803547 197.292616 102.610377 190.331916 99.169059 183.482687 96.286186 176.382684 96.051101 175.487869 94.23509 173.166686 96.288778 174.275051 97.901634 174.82092 99.516765 175.36005 101.132171 175.898322ZM163.371862 177.059682C161.082519 182.422211 158.809086 187.791041 156.391504 193.097626 152.505666 202.061646 148.358506 210.908473 144.328081 219.807815 140.803011 227.5645 137.203535 235.290241 133.968416 243.174087 133.167009 245.019641 132.260191 246.861308 130.966547 248.410033 130.275234 247.304698 130.868514 245.347254 130.763044 243.921563 131.518576 224.921565 131.881219 205.901887 133.070033 186.921826 132.98775 184.918566 135.480117 184.731393 136.810208 183.977237 145.118782 180.673952 153.645971 177.971563 162.037366 174.895406 162.960073 174.586335 165.356322 173.231881 164.118123 175.279423 163.881186 175.877707 163.630173 176.470349 163.371862 177.059682Z" fill-rule="evenodd"></path></svg>