<?xml version="1.0"?>
<!-- Created with xTool Creative Space (https://www.xtool.com/pages/software) -->
<svg xmlns="http://www.w3.org/2000/svg" xmlns:xlink="http://www.w3.org/1999/xlink" xmlns:xcs="https://www.xtool.com/pages/software" version="1.1" preserveAspectRatio="xMinYMin meet" width="115.31604003906239mm" height="232.97462463378912mm" viewBox="637.5886230468751 -325.4001770019531 115.31604003906239 232.97462463378912" xcs:version="1.1.10"><style></style>
<path transform="matrix(1,0,0,1,0,0)" stroke="none" fill="#000000" data-view-type="laser" d="M665.1748492882687,-201.94343257471743C660.8587112882689,-201.24411857471745 656.9403222882686,-199.15110157471742 653.1689752882687,-197.03993157471743C647.4305872882687,-193.71442457471738 642.8551782882687,-188.4577715747174 640.4389632882688,-182.2723215747174C638.3680672882688,-177.29437657471743 637.4809222882686,-171.8876905747175 637.5989872882686,-166.5094045747174C637.6241452882687,-162.4833055747174 637.8739852882686,-158.35915457471748 639.5165022882687,-154.6210485747174C641.2967762882688,-149.86657857471744 643.6851512882688,-145.37186857471738 646.3869832882688,-141.08168157471744C648.8752792882688,-136.86957957471748 651.5487422882686,-132.76351157471743 654.6319942882686,-128.95855957471736C662.2579432882688,-119.26806257471742 671.1421172882688,-110.61159857471739 680.6089282882688,-102.73237857471742C685.0454922882686,-99.06212457471742 689.6765752882686,-95.63064157471746 694.4594472882687,-92.42554857471742C698.9408792882687,-94.89562557471743 702.8341942882687,-98.26203257471741 707.0521722882686,-101.13384957471737C717.8524552882686,-110.23109157471748 717.8524552882686,-110.23109157471748 722.6594462882688,-115.1869965747174C731.0087732882688,-123.40985957471742 738.6736652882688,-132.40226357471738 744.8524962882686,-142.3815885747174C747.8227642882688,-147.37515257471745 750.5011082882688,-152.63819657471748 751.9839402882687,-158.28139757471746C753.0498192882687,-162.86255457471742 753.0986262882686,-167.64780657471738 752.5959412882688,-172.30613557471742C752.0096792882687,-175.67100157471742 751.0781992882687,-178.99920757471742 749.7655942882686,-182.15446657471745C747.6028542882686,-186.47441457471743 744.9723002882686,-190.6749865747174 741.2061262882687,-193.7833645747174C735.8379342882686,-198.45933257471745 728.9840002882688,-201.4503675747174 721.9002862882687,-202.16242957471744C717.0651632882686,-202.60882057471744 712.0724542882688,-202.15559157471745 707.6065142882687,-200.14746457471742C703.0238202882688,-198.25319057471742 698.9609962882687,-195.3746045747174 694.8312142882687,-192.68034257471743C693.2248982882686,-192.91103557471746 691.8325822882688,-194.5895155747174 690.3481222882687,-195.45389757471744C686.7969162882687,-197.73886057471742 683.1469962882686,-199.95783457471742 679.1969682882686,-201.48520657471744C675.8887152882688,-202.49925757471743 672.3657272882688,-202.14230057471744 668.9544922882687,-202.25627357471743C667.6889852882688,-202.24978957471743 666.4195852882689,-202.18572657471742 665.1748492882687,-201.94343257471743ZM651.8687612882686,-325.08181857471743C652.3451292882688,-323.18051457471745 651.0796802882687,-321.32525957471745 651.3761092882687,-319.38778957471743C651.5663472882686,-316.60718757471744 653.9567672882688,-314.77466757471745 656.2592832882688,-313.6218105747174C658.0741422882686,-312.88746857471745 657.7425852882686,-310.05213957471744 656.2469602882686,-309.16654057471743C655.3431632882688,-307.5545325747174 655.7388372882688,-305.5652165747174 655.8567952882686,-303.8051665747174C656.4997692882688,-301.1882505747175 658.8846152882686,-299.6148865747174 661.1432192882687,-298.48619857471743C662.2926642882687,-296.83369857471746 660.9870492882687,-294.84926757471743 660.2098872882686,-293.3451565747174C659.7655622882687,-290.47406257471744 660.8328742882686,-287.14071657471743 663.5641842882687,-285.7650145747175C665.1993382882688,-285.0469255747174 667.5604782882688,-283.7720005747175 666.4121702882687,-281.6116885747174C665.4514462882688,-279.19942257471746 665.0274092882687,-276.26093257471746 666.5659942882687,-273.9839005747174C667.3377882882687,-272.57219757471745 668.7362112882686,-271.7265425747174 670.1971612882687,-271.17794657471745C671.6687662882687,-270.5074975747175 672.9622872882688,-269.34262157471744 673.0952242882686,-267.6421145747174C672.7385862882686,-265.9228935747174 671.7060112882687,-264.14170357471744 672.4237052882688,-262.2793355747174C673.1807362882687,-260.37904657471745 674.8774592882687,-258.8692915747174 676.7242462882688,-258.05326357471745C678.0679852882688,-256.96894857471744 680.8353522882687,-258.81945557471744 681.3155592882687,-257.04739257471743C682.4163062882689,-250.93206857471745 683.0822652882688,-244.7439275747174 684.2203852882689,-238.63280657471742C685.2574982882687,-233.0912705747174 686.1546992882686,-227.51462757471745 687.4653352882686,-222.03046557471745C687.7405982882689,-221.40954857471743 688.0733692882686,-220.78985457471742 687.3166092882686,-220.38595857471742C685.3847192882688,-218.38503557471742 683.5847872882687,-216.18825157471744 682.3188122882686,-213.70311257471744C681.0327162882687,-210.87093257471741 681.6692462882687,-207.64746157471743 682.4250892882687,-204.76284857471745C683.5010382882688,-201.9561865747174 685.6699852882687,-199.63417757471743 688.1277782882687,-197.95593457471745C691.1167562882688,-195.92094357471743 695.1474212882688,-195.6449465747174 698.3784422882686,-197.28656657471745C701.9546712882686,-198.9538085747174 705.2718132882687,-201.76765157471743 706.4372202882687,-205.65803357471742C707.6486222882686,-208.92651757471742 707.8846222882687,-212.9785115747174 705.5251792882686,-215.80827057471743C704.2424802882688,-217.60348157471742 702.6326662882686,-219.15168357471745 700.9337522882688,-220.5260635747174C700.5069902882688,-222.24958257471744 701.5386562882686,-223.97345657471743 701.6918752882686,-225.70648157471743C703.6969702882686,-235.5705165747174 705.0209792882688,-245.55505057471743 706.6092002882688,-255.48940657471746C706.9969652882688,-257.33225357471747 709.3391032882687,-257.16266957471737 710.6920222882686,-257.90766757471744C713.4998402882687,-258.79821857471745 716.3017562882686,-261.05670857471745 716.5679222882686,-264.1685955747174C716.7684132882687,-266.10304657471744 714.8591982882688,-267.73039557471736 715.6091472882687,-269.67929457471746C717.9620122882686,-271.4710275747175 721.3384472882688,-272.5028925747174 722.2387252882688,-275.65307357471744C722.9802012882687,-277.4689555747174 722.5974012882687,-279.47579457471744 721.6647842882688,-281.1423875747174C720.6729342882686,-282.96611257471744 722.4783142882686,-284.8017905747174 724.1036392882686,-285.4058525747174C726.7102482882686,-286.6211905747174 728.4985822882686,-289.3873855747174 728.2851512882687,-292.2914055747175C728.7072282882687,-294.15451157471745 726.1904972882687,-295.1664435747174 726.8272012882687,-297.02088757471745C727.2869402882686,-299.1171325747174 729.6437922882687,-299.6856185747174 730.8153992882687,-301.2712375747174C732.5375402882687,-303.1761605747174 733.1013732882689,-306.0359615747175 732.3660582882686,-308.47098957471746C731.8470452882686,-310.0165445747175 729.2996312882688,-311.80664657471743 731.5437562882687,-313.0877425747175C733.3422782882687,-314.7707685747174 735.8252742882688,-315.95857257471744 736.6585022882687,-318.4523205747174C737.3854232882686,-320.17789757471746 736.9954262882688,-322.11252657471744 736.1261712882688,-323.70334757471744C735.6856522882688,-324.3907875747174 736.2849932882687,-325.71730957471743 735.0643592882687,-325.33103757471747L735.0643592882687,-325.33103757471747L735.0643592882687,-325.33103757471747L732.6818282882688,-325.33103757471747C733.0711682882686,-324.5853875747174 733.1350672882686,-323.8090875747174 732.1900702882688,-324.7496665747174C730.6181972882687,-324.91955057471745 729.0384292882686,-323.79344157471746 728.1759532882686,-322.5204475747174C727.3027112882688,-320.06355557471744 727.2292812882688,-317.04097457471744 728.7593442882687,-314.8232255747174C729.5299092882688,-313.84972457471747 729.8216342882688,-311.0395605747174 728.1712682882687,-310.6722155747174C726.4459962882686,-310.30040857471744 724.7035382882686,-309.46006157471743 723.9886792882687,-307.73180757471744C722.8199432882686,-305.2527745747175 723.2002912882688,-302.00634757471744 724.9811682882688,-299.90966457471745C725.2527572882688,-299.24215257471747 727.0000192882688,-299.3144915747174 726.1952022882688,-298.4599045747175C725.8487282882686,-297.2676785747175 725.4546042882688,-296.3433235747174 723.9963752882686,-296.67838957471747C720.6409342882688,-296.19406157471747 718.3169192882688,-292.52655657471746 719.0246212882688,-289.2583455747174C718.9754352882687,-287.2895095747174 721.1501582882686,-285.7459185747174 720.4322282882687,-283.8072065747174C720.2635372882688,-283.2170125747174 720.2359632882689,-282.4542155747174 719.4192042882688,-282.6568025747174C716.1829492882688,-282.52966057471747 713.3719012882688,-279.7632865747174 713.1800222882687,-276.5298805747175C712.8991032882686,-274.9208465747174 713.7321512882688,-273.50573357471745 714.4217702882688,-272.15087857471747C715.2516482882686,-270.8270745747174 713.4558382882686,-269.44194457471747 714.0201292882687,-268.5091625747175C714.7264352882688,-268.2815055747174 716.1337032882686,-266.14980657471745 714.6110762882686,-267.34541057471745C711.6691392882688,-269.35300557471743 707.4903782882686,-267.34444957471743 706.3302352882688,-264.2060315747175C706.0302752882689,-263.6266915747175 706.0838672882687,-262.53946057471745 705.1605222882688,-262.93798257471747C698.9997942882687,-263.2487485747174 692.8231212882686,-263.0622015747174 686.6560502882687,-263.1405195747175C685.1953412882688,-263.4640955747174 682.5754082882688,-262.35094157471747 682.2717632882686,-264.42258257471747C681.0945382882688,-266.1845435747174 679.3942862882686,-268.2822635747174 677.0371412882687,-268.07603257471743C676.3751642882688,-268.0552675747174 673.8458192882688,-267.20251457471744 674.2336732882686,-267.6484825747175C675.4164772882687,-267.81761057471743 674.4379752882687,-268.35290857471745 673.8860152882687,-268.7540185747174C672.9382982882687,-269.27949357471743 673.5409192882687,-270.6216525747174 674.5329392882686,-270.31799157471744C675.3572932882687,-271.63555757471744 672.0122452882687,-272.36946357471743 674.0534662882689,-272.8757735747174C675.9654922882688,-274.01540157471743 675.4569322882687,-276.55042857471744 674.9094092882688,-278.3103875747174C674.0922172882687,-280.37282057471737 672.2782332882688,-282.6232555747174 669.8239772882687,-282.40759757471744C667.7486522882687,-281.40686057471737 666.9053422882687,-284.00747057471744 668.0305212882688,-285.4085045747174C669.5019462882688,-287.79725657471744 670.3455622882686,-291.0175635747174 668.7264932882688,-293.5447645747174C667.9501892882686,-295.02955257471746 666.4880322882686,-296.04971257471743 664.8028372882686,-296.1466685747174C663.3458322882686,-296.1385335747174 662.1303432882687,-296.7330725747174 662.6689122882688,-298.3941665747175C663.1973482882686,-300.2495765747174 664.7995212882688,-301.6583365747174 665.0150442882687,-303.6451105747174C665.2358972882687,-305.88013457471743 664.3377892882688,-308.22619457471745 662.7772112882687,-309.82575157471746C661.7319482882688,-311.0731965747175 659.7484082882686,-309.64985257471744 658.8034222882686,-310.17853757471744C660.4411582882686,-310.3784365747174 659.4918882882687,-312.1270875747175 658.5342662882688,-312.6037595747174C659.5711132882686,-314.27502857471745 660.5052192882688,-316.2344485747174 660.8694932882686,-318.2543755747174C661.4290552882687,-320.35469057471744 660.2770442882686,-322.52897557471744 658.8771412882686,-324.03845657471743C657.9663882882687,-325.40252857471745 656.4965892882688,-325.52468857471746 655.7378642882686,-324.1667495747174C656.7505672882688,-325.4939695747174 655.0661392882687,-325.5635155747174 654.3287092882687,-324.9871525747174C653.9388912882687,-325.57790057471743 652.4364912882688,-325.36989757471747 651.8687612882686,-325.08181857471743ZM732.2069172882686,-322.80954157471746C733.3789432882686,-322.22120557471743 734.1083562882686,-320.2566455747174 734.6854872882687,-319.7502355747174C734.4655562882688,-320.51076257471743 732.8337922882686,-323.3714195747175 734.7197202882688,-321.97847157471745C736.3155572882688,-320.53659657471746 735.1296552882686,-317.7500965747174 733.6971452882688,-316.5707235747174C732.4132902882686,-315.65620157471744 730.9412842882687,-319.4948815747175 729.9856802882687,-317.36993157471744C728.4962292882688,-316.33770157471747 729.3672192882686,-318.87094457471744 729.3205652882687,-319.5549445747174C728.9758852882686,-321.1262475747174 729.7803042882688,-323.8304935747174 731.8579312882687,-322.95721657471745L731.8579312882687,-322.95721657471745L731.8579312882687,-322.95721657471745L732.2069172882686,-322.80954157471746ZM657.7343732882687,-322.4899435747174C658.9200862882687,-321.5564475747174 659.9371962882688,-319.7066045747174 658.6059412882688,-318.44686757471743C657.8885322882686,-316.7087665747174 655.4430902882688,-317.9883445747174 654.9252492882688,-316.1467325747175C653.5861952882688,-316.13318357471746 653.5676412882686,-318.85347757471743 653.7105032882687,-320.01769257471744C653.8218202882688,-321.6245105747174 655.7076602882687,-322.99531257471745 657.1990512882687,-322.8055045747175L657.1990512882687,-322.8055045747175L657.4695712882688,-322.6638175747174L657.4695712882688,-322.6638175747174L657.4695712882688,-322.6638175747174L657.7343732882687,-322.4899435747174ZM662.2653692882686,-308.31717257471746C663.2486452882688,-307.2070675747174 662.7350612882686,-305.2406165747175 663.6730132882687,-304.4078095747175C663.6717172882686,-303.49332457471746 662.8585242882688,-302.2579365747174 662.1020032882686,-302.02872557471744C661.1324972882687,-302.07850957471743 661.2508142882687,-305.0038325747174 660.3950822882687,-303.5247455747174C661.1028602882686,-302.4148665747174 660.5775422882687,-301.6496395747174 659.3023722882688,-302.0249575747174C657.3748062882687,-302.1095695747174 657.3349432882687,-304.74706157471746 657.1574822882687,-306.21568557471744C656.8048052882687,-307.3645415747174 658.6841762882686,-309.54970657471745 658.5603382882687,-307.2702235747174C659.2083352882687,-306.4390995747175 660.8883582882688,-307.27807357471744 661.8011412882686,-307.3140825747174C662.5370442882686,-308.87535857471744 659.0849912882686,-306.7092745747174 660.4482662882687,-308.3682125747174C660.9887492882688,-308.61643357471746 661.7684272882686,-308.6984915747174 662.2653692882686,-308.31717257471746ZM727.7149982882688,-308.13494357471745C727.6739272882687,-307.2505065747174 729.0158402882687,-305.51280657471744 729.1331522882688,-307.22057057471744C728.7926602882687,-308.32834157471746 729.5579012882688,-309.0691265747174 729.9685342882688,-307.64268657471746C730.9999402882688,-306.68668957471743 731.6286502882688,-305.6449615747174 730.8064872882687,-304.26020057471743C730.2762092882688,-303.2122955747175 729.2356312882687,-300.89816757471743 728.1244552882687,-301.2566755747174C727.9958582882687,-301.9585335747174 729.2039112882687,-303.7342685747174 727.8395282882686,-303.3868215747175C726.5081412882687,-303.69592257471743 724.3975382882686,-302.8570865747174 726.1260392882687,-301.49819857471743C725.3386672882687,-301.49197357471746 724.4119132882688,-303.8971805747175 724.8565792882687,-304.9843595747174C725.5690452882686,-305.62740757471744 727.4116692882687,-307.9411115747174 726.4642992882686,-308.1586005747174C725.8337162882688,-307.22891857471745 725.2804102882686,-306.24877257471746 724.6886852882687,-305.29384957471746C724.8375382882688,-306.6533725747174 725.2825232882687,-308.44148457471744 726.9151452882686,-308.5698485747175C727.2318332882688,-308.5829925747174 727.5691952882687,-308.42898257471745 727.7149982882688,-308.13494357471745ZM723.5715872882688,-293.22847257471744C723.8306152882687,-291.95428657471746 724.6697842882686,-291.51643157471744 725.1921072882689,-292.80932457471744C727.4361722882686,-293.09199257471744 727.2930612882687,-290.0842145747174 726.2700082882687,-288.88683857471744C725.6125492882686,-287.81443657471743 723.7101132882688,-286.58825857471743 724.0913772882686,-288.7076365747174C724.1563742882688,-289.10736957471744 722.5403992882686,-287.16133757471744 722.5619322882687,-288.68911857471744C723.0731892882686,-289.3793785747174 724.3772212882687,-290.7214695747174 722.6060542882686,-290.03946557471744C720.6389802882686,-289.75075657471746 721.2324792882687,-288.0668275747174 721.9213402882688,-286.9188255747174C720.4974442882688,-287.14944857471744 720.2392932882688,-289.2882785747174 720.3542922882687,-290.55231557471745C720.4113932882688,-292.17248457471743 721.4942392882688,-293.72685157471744 722.8206412882687,-294.57866357471744C723.3068372882689,-294.4829375747174 723.3411892882687,-293.60487057471744 723.5715872882688,-293.22847257471744ZM664.0485792882687,-293.7669845747174C664.1929192882687,-292.9066755747174 666.0374912882687,-291.2711915747174 665.7713792882687,-293.03129657471743C664.8426082882686,-295.5853435747174 668.1755182882688,-293.05164457471744 668.0218802882687,-291.78451457471743C668.2113042882686,-290.54840557471744 668.9713952882687,-288.5793285747174 667.2789112882688,-288.0834885747174C667.0153152882688,-289.4744325747174 665.6222942882688,-289.73071557471746 665.9003802882688,-287.9950105747174C665.5510122882688,-287.0235775747174 665.1667702882687,-289.6969405747175 664.0425102882687,-288.67079357471744C662.8065532882686,-288.1857065747174 665.7359762882686,-286.53786957471743 663.8999892882687,-287.2789265747174C662.5230282882688,-288.18776357471745 661.6012412882689,-289.69731157471745 661.7465522882688,-291.38350957471744C661.5497532882687,-292.9028535747174 662.0948322882687,-295.02638257471745 664.0485792882687,-293.7669845747174ZM718.5162342882686,-280.86423157471745C717.8399942882686,-280.4608805747174 715.6160862882687,-278.32073357471745 717.6968832882687,-278.7594855747175C718.3798022882688,-278.71950857471745 719.3312202882687,-280.7205325747174 719.1143592882686,-279.2179925747174C718.5522612882687,-277.5749885747174 721.8605312882687,-277.34333857471745 720.6408742882687,-279.12418057471746C720.2521332882686,-279.76336457471746 720.1778062882688,-281.42915857471746 720.8335502882688,-279.8812375747175C721.3682342882687,-278.2434415747174 721.7341072882687,-276.06771557471745 720.5297822882687,-274.6464875747174C719.7905802882688,-274.00156457471746 717.8118032882687,-271.9297815747174 717.1493992882686,-273.25341657471745C717.3847412882687,-273.9792925747174 718.8655592882687,-276.5382125747175 717.0419562882688,-275.50926657471746C716.3645392882686,-275.25823957471744 715.5586662882686,-273.8586625747174 715.0608262882688,-274.0335505747174C713.9289152882686,-276.6212225747174 715.4409152882688,-280.0015525747174 718.0191922882686,-281.03375057471743C718.1400542882686,-281.12274157471745 718.5383252882687,-281.10581057471745 718.5162342882686,-280.86423157471745ZM672.4143542882687,-279.6237205747175C673.5017742882688,-278.20756557471736 674.1698652882689,-276.3211755747175 673.9546402882686,-274.52930857471745C672.9153902882688,-272.46095457471745 672.9992912882689,-276.9486745747174 671.5309722882688,-275.33983157471744C670.5709872882688,-273.97347857471743 668.5466752882687,-272.4346225747174 667.9154732882687,-274.91524857471745C666.6048222882687,-275.9503495747174 667.2295442882687,-278.1116345747174 668.0302222882688,-279.06285257471745C669.2342032882688,-277.90956157471743 671.7694662882686,-277.7722605747174 671.6121172882688,-280.01016857471745C671.9208572882688,-280.1782935747174 672.2141542882687,-279.79884757471746 672.4143542882687,-279.6237205747175ZM712.3437842882688,-266.21634957471747C711.6600472882687,-265.7962105747174 708.7662192882689,-265.3257515747174 710.9632912882687,-264.7445635747174C712.2767742882687,-265.61926757471747 715.1782982882687,-265.95118757471744 714.8927532882686,-263.5909875747174C714.6383912882686,-262.2877975747174 713.5256592882687,-260.55634657471745 712.3936672882687,-260.26714957471745C712.0696432882688,-261.9730315747174 710.3079462882687,-260.6822525747175 710.2981362882688,-259.6589295747174C709.6400792882687,-260.0730615747175 709.6757282882686,-261.4843455747174 708.8383532882686,-260.6741995747174C707.9104012882688,-261.64784757471745 710.5319832882687,-261.2838745747174 710.8770222882688,-262.21959257471747C712.7268232882687,-263.9608485747174 708.6182232882687,-261.30263557471744 708.0921122882688,-262.76917257471746C707.6355232882686,-264.9705615747174 710.1541482882689,-267.2163905747175 712.2631562882686,-266.37393357471746L712.2631562882686,-266.37393357471746L712.2631562882686,-266.37393357471746L712.3437842882688,-266.21634957471747ZM679.0744762882687,-264.6953175747174C679.6482672882687,-263.93182357471744 681.4245452882686,-261.7141795747175 680.3278972882688,-261.31992357471745C679.6318972882686,-262.39134457471744 678.4083322882686,-262.3840235747174 677.2761142882687,-262.3285375747174C677.1830572882686,-261.5904295747174 677.2557302882688,-260.3221565747174 677.8451302882686,-259.6353795747174C678.4350432882686,-258.45501057471745 675.7417042882687,-260.6535065747174 675.3307622882688,-261.1844995747174C674.5521252882686,-261.54309157471744 673.1060082882688,-264.03799257471746 673.8618472882687,-263.9929995747175C674.8321572882687,-262.59005557471744 674.7710752882688,-264.8563375747175 674.1847782882688,-265.1118725747174C675.5534922882687,-265.7270135747174 677.5908652882687,-265.67633257471743 678.8867612882686,-264.9139765747175L678.8867612882686,-264.9139765747175L678.8867612882686,-264.9139765747175L679.0744762882687,-264.6953175747174ZM705.6166722882688,-255.94853757471745C705.2374012882688,-252.90916757471743 704.6704782882687,-249.87608157471743 703.9144482882687,-246.90669757471744C703.2474592882686,-245.20977957471743 701.2774742882686,-244.55837157471746 699.7307232882688,-243.89408557471742C695.6234592882686,-242.59620457471743 691.0572052882688,-243.0284835747174 687.0926692882688,-244.6262645747174C686.2991862882686,-245.03716857471744 685.3325962882687,-245.3370265747174 684.6529852882686,-245.86035757471743C683.7376502882687,-249.14220357471746 683.2478912882686,-252.5350915747174 682.9708622882688,-255.92700457471742C688.1528712882688,-256.1969725747174 693.3489952882687,-256.02604257471745 698.5365862882686,-256.05446357471743C700.8963292882686,-256.02714857471744 703.2594212882686,-256.0576635747174 705.6166722882688,-255.94853757471745ZM701.2031072882687,-214.4141395747174C701.9372462882686,-212.6917225747174 702.3972042882688,-210.81930657471742 702.8794132882688,-209.04655157471743C702.4558802882686,-206.36935357471745 700.7088972882686,-203.96780257471738 698.5722352882688,-202.36078357471743C695.5377392882688,-200.53618557471742 691.1251042882686,-200.59102757471743 688.6490222882688,-203.36226857471738C686.4038422882687,-205.6190205747174 685.3018652882688,-209.23175857471745 686.7486912882687,-212.20737257471743C687.0756402882688,-212.89400857471745 688.1541312882687,-215.12362957471743 688.6306752882688,-214.6045885747174C688.8454742882686,-213.20704357471743 689.2858482882687,-211.8612635747174 689.6222112882688,-210.49103757471744C692.7280012882686,-210.49343757471743 695.8399202882687,-210.45295657471743 698.9354162882688,-210.74623757471744C699.1201372882688,-211.92370457471742 699.3022662882688,-213.1920485747174 700.0198172882688,-214.16236057471744C700.0520562882687,-214.90770157471744 699.7176842882687,-216.94478657471743 700.6792702882688,-215.33512857471743C700.8694142882687,-215.03731957471743 701.0434082882688,-214.72927557471743 701.2031072882687,-214.4141395747174ZM709.3738362882686,-196.6797535747174C710.6247552882687,-198.29538657471744 712.4875952882687,-199.37916357471744 714.5393832882688,-199.52446157471744C716.9935502882686,-199.78935357471744 719.4895062882688,-199.78605757471743 721.9445702882688,-199.53403157471743C728.1974682882689,-198.61766657471742 734.5386302882687,-196.4980515747174 739.2253182882687,-192.09551057471742C740.1252172882687,-191.58971757471738 740.5006002882686,-190.53073557471743 739.1024832882688,-190.65290857471743C733.5134632882687,-189.77305857471745 727.8605042882687,-189.2544345747174 722.3176802882688,-188.1095975747174C721.6004482882686,-186.97193157471744 723.7600582882687,-185.2345165747174 724.4711892882688,-184.1450635747174C729.6240762882687,-178.67018157471745 735.2370202882688,-173.6555835747174 740.6114532882688,-168.40313657471745C741.1223312882688,-167.97325257471738 742.7359132882686,-166.15813257471746 742.2352032882688,-167.9254785747175C742.0322192882688,-175.10797857471744 742.0161092882686,-182.2940975747174 741.9223432882686,-189.47855357471738C744.9562332882688,-186.30468757471738 747.0247082882688,-182.3114415747174 748.5254642882686,-178.21609957471742C750.5154662882687,-172.68563657471736 750.8656482882686,-166.68020557471743 750.2162842882688,-160.87427657471744C750.2791462882687,-158.93319957471738 748.8585602882688,-157.63636857471744 747.3444062882686,-156.70483857471743C743.3922752882686,-153.79454957471734 739.8451552882688,-150.39778657471743 736.0179722882688,-147.33151657471734C732.0923982882687,-144.06418057471734 728.0452252882687,-140.94731357471744 724.1391302882687,-137.65750657471744C721.9309522882686,-135.83546757471743 719.4900842882687,-134.3157345747174 717.2456202882686,-132.5514085747174C716.0654592882687,-130.91408357471738 715.4708432882688,-128.92177657471746 714.5520842882688,-127.12838057471743C711.2871982882687,-120.12889057471745 707.8719442882688,-113.19434957471742 704.2447552882686,-106.37530557471746C702.5158752882687,-102.83245157471742 700.1042552882686,-99.67100257471742 697.2542692882688,-96.95603357471742C696.5491192882687,-96.54448357471739 695.1917462882686,-94.33576757471747 694.7337442882688,-95.23486857471738C694.9894642882688,-102.12865757471741 694.8726372882686,-109.03277457471745 694.9067282882686,-115.93150857471738C699.8917812882687,-120.43887957471742 705.4339672882688,-124.26434757471742 710.5903232882687,-128.56567957471736C712.4517482882686,-130.10174057471744 714.4494652882686,-131.48710957471735 716.2260962882688,-133.11688857471745C717.4300222882687,-134.52173257471742 717.8761432882686,-136.3143545747174 718.6258932882687,-137.95100057471745C721.8881862882686,-144.73572157471745 725.4534502882688,-151.36932457471738 728.6695082882686,-158.1772215747174C729.6264882882688,-160.3601725747174 730.9553432882688,-162.41300057471733 731.5787682882687,-164.72315657471745C730.9751412882688,-167.38651957471745 729.7114822882686,-169.8532595747174 728.7773502882687,-172.41379257471743C727.1358162882686,-176.2581735747175 725.8727752882687,-180.28847257471745 723.7762282882686,-183.92117557471744C722.1980152882686,-183.9242455747174 720.4844472882687,-183.2795265747174 718.8187682882686,-183.27300657471747C711.3363042882688,-182.58674857471743 703.9116392882688,-181.41086657471743 696.4941912882687,-180.24003857471743C694.0750032882688,-179.80638257471742 697.0570872882688,-182.04060857471745 697.6167122882687,-182.7524805747174M693.5324042882687,-181.3041825747175C694.3841992882687,-179.51527957471745 691.1816312882686,-180.9694455747174 690.3208412882688,-180.96158657471742C682.9373732882686,-182.41916457471743 675.4535472882687,-183.3479795747174 667.9582532882687,-184.00118357471743C665.8568012882686,-184.84589357471748 665.4784272882688,-182.8093715747174 664.9642252882686,-181.2667795747174C663.2012082882686,-177.12983157471746 661.5868462882687,-172.93412857471742 660.0115392882688,-168.72300757471749C659.2709002882686,-167.42187257471744 658.8704122882687,-165.0863115747174 658.2211312882688,-164.30218557471744C656.6749342882686,-167.0057825747174 655.3643592882686,-169.84075557471738 653.7708722882687,-172.51638057471746C654.1737632882688,-173.9291255747175 655.7578752882688,-174.9317085747174 656.6985462882686,-176.1174495747175C661.1637292882687,-180.78490957471743 665.7977042882688,-185.32140057471742 669.7349762882687,-190.45767557471743C672.2403902882686,-193.27309857471744 674.4856232882687,-196.31781557471743 677.0861752882687,-199.04657157471743C678.1095972882686,-200.43394857471745 678.6915552882688,-199.12108557471743 679.5810882882686,-198.37601557471743C681.7787712882687,-196.11091257471742 683.3204682882687,-193.31847957471743 685.4244542882686,-190.97073557471745M650.9438602882688,-138.91541257471738C653.9887392882688,-134.6832815747174 675.4515849989327,-132.58028457471727 678.7667239989328,-128.56567957471736C679.4008516342437,-127.83869047301982 679.3474162327825,-136.07805514326324 679.9878297473746,-145.29326760009172C680.63124788457,-154.55687422309788 681.9758160153356,-164.80659982877336 685.4244542882687,-167.9254785747175C688.9863594171657,-171.14681614989217 684.929740084732,-153.6048913773735 689.8495715284288,-147.33151657471737C693.6971936368838,-142.42617308996404 707.0239545261056,-149.02636800679494 707.4020503024162,-147.33151657471734C710.0377181992985,-135.52078730289224 676.3907933080668,-111.1635160710212 680.2383562882687,-107.29938257471741C681.3043902882687,-106.23135057471745 682.3913272882687,-105.18279757471743 683.4262342882688,-104.0845995747174C679.3007292882687,-106.59899757471743 675.8952562882687,-110.09942457471743 672.3787202882686,-113.37248457471742C667.1506092882687,-118.4661965747174 661.8230402882687,-123.51768157471741 657.4724882882688,-129.40947357471742C654.7133062882688,-133.03219357471738 651.8854542882686,-136.64301157471743 649.6332722882687,-140.60692357471743C650.1365872882686,-140.11512957471746 650.5149252882686,-139.48103957471739 650.9438602882688,-138.91541257471738Z" fill-rule="evenodd"></path></svg>