<?xml version="1.0"?>
<!-- Created with xTool Creative Space (https://www.xtool.com/pages/software) -->
<svg xmlns="http://www.w3.org/2000/svg" xmlns:xlink="http://www.w3.org/1999/xlink" xmlns:xcs="https://www.xtool.com/pages/software" version="1.1" preserveAspectRatio="xMinYMin meet" width="322.8542750549317mm" height="157.2965922927857mm" viewBox="-562.5024692618605 -843.4662281295772 322.8542750549317 157.2965922927857" xcs:version="1.1.10"><style></style>
<path transform="matrix(0.39875,0,0,0.39875,-606.863407,-921.404561)" stroke="none" fill="#000000" data-view-type="laser" d="M233.3335 195.8865C235.097255 201.17031 234.768235 207.019835 237.18618 212.14827 238.20897 215.923085 238.88309 221.911005 234.162065 223.41996 230.109825 224.047055 224.04484 225.370255 221.723435 220.918665 220.89939 219.466685 220.004335 218.01962 220.522505 216.29421 220.530335 212.75149 221.7163 209.433745 223.04358 206.20817 224.98877 202.979235 222.48264 195.935755 227.25211 195.574175 229.271195 195.53543 231.36205 195.381535 233.3335 195.8865Z" fill-rule="nonzero"></path><path transform="matrix(0.39875,0,0,0.39875,-606.863407,-921.404561)" stroke="none" fill="#000000" data-view-type="laser" d="M354.581 196.125C356.53649 200.396525 355.787085 205.505115 358.0365 209.7505 360.545735 214.318645 359.65083 220.44891 355.8255 224 351.862985 223.80336 347.51574 224.68997 343.971185 222.549815 341.45796 219.11736 341.78734 213.77704 343.328445 209.967795 345.00038 205.50464 345.025845 200.621425 346.594 196.137 349.012035 195.181565 352.138765 195.282815 354.581 196.125Z" fill-rule="nonzero"></path><path transform="matrix(0.39875,0,0,0.39875,-606.863407,-921.404561)" stroke="none" fill="#000000" data-view-type="laser" d="M233.9215 236.327L240 236.6535 240 245.3835C244.71167 246.637555 249.761585 245.340315 254.462325 246.46526 255.078225 249.913075 254.852635 253.490605 255 257 259.1543 257.148925 263.41806 256.6079 267.48426 257.4655 267.85481 262.50594 267.659775 267.659045 267.75 272.75L278.25 273.25C278.27745 293.451705 278.62614 313.658295 278.2585 333.8565 278.282865 335.83731 275.7745 334.6996 274.4922 335.071525 272.57814 335.13121 270.664065 335.1905 268.75 335.25L268.47 347.374C266.12327 347.813615 263.7418 348.060975 261.3525 348 261.435975 351.233935 262.203815 354.55814 261.523 357.7355 258.096815 358.393125 254.581585 358.37379 251.1095 358.6445L250.4115 368.8895C241.525195 369.05452 232.61958 369.65105 223.74543 369.33342 222.580085 368.787565 223.49568 366.470145 223.133915 365.240185 223.43069 361.528945 222.941675 357.08721 217.958895 358.52727 215.60434 358.49025 213.249285 358.510045 210.8945 358.5 211.01274 354.749995 211.13124 350.99999 211.25 347.25 207.715665 347.245895 204.05958 347.971225 200.6195 346.9705 200.338305 342.68098 200.71534 338.26701 199.6495 334.092 195.909885 333.07659 188.51325 336.776425 190.196185 330.167295 189.95492 307.476635 189.86705 284.77749 190.31285 262.08938 191.269545 259.399205 195.69328 260.78958 198.267155 260.33181 199.82304 260.266575 201.942165 260.77679 201.335515 258.50209 201.53106 254.727425 201.67237 250.94912 201.943 247.179 206.2392 246.694865 210.605975 246.783895 214.86 245.951 215.150475 242.77067 215.196415 239.552225 215.804 236.4125 221.761315 235.58346 227.916765 236.169035 233.9215 236.327Z" fill-rule="nonzero"></path><path transform="matrix(0.39875,0,0,0.39875,-606.863407,-921.404561)" stroke="none" fill="#000000" data-view-type="laser" d="M359.4375 236.3125C361.65747 236.023705 360.89266 238.18185 361 239.625L361 245.893C365.138375 246.9497 369.536235 246.33868 373.791 246.5 375.290165 246.5705 374.138625 249.29171 374.5 250.5 374.59292 253.756555 374.206285 257.11449 375.043 260.2765 378.66649 260.95937 382.382555 260.89532 386.054 261.1465 385.952665 285.276645 385.85133 309.406855 385.75 333.537 382.781955 335.123085 379.15581 334.285745 375.884505 334.498595 373.38547 335.165895 375.00937 340.09806 374.36183 342.37103 375.002435 346.0406 373.55939 348.56507 369.55843 347.87895 366.452865 348.207855 361.368 347.495455 363.376535 352.208765 363.71106 355.01959 365.3781 359.64883 360.596315 358.511875 357.482335 358.638795 354.36545 358.671795 351.25 358.75L350.75 368.75C341.71918 369.43458 332.658595 369.44645 323.607 369.5 322.30375 365.66586 323.62252 361.41429 322.3945 357.542 318.513005 357.61133 314.631495 357.68066 310.75 357.75 310.603205 353.591545 310.75457 349.31332 309.166635 345.39431 308.188555 341.685755 311.85266 333.774895 305.270155 334.995105 301.88532 335.171285 297.25973 336.056365 298.65905 330.98356 298.47626 311.74 298.500855 292.48262 299.25 273.25 302.83334 273.36557 306.41668 273.481405 310 273.5975 309.939725 268.05753 310.087935 262.514575 310.6465 257 314.40544 256.943835 318.22148 257.23266 321.915 256.392 322.167965 253.25407 322.33765 250.10758 322.6845 246.9785 327.222575 246.58598 331.802995 246.548355 336.3085 245.858 337.2085 242.771875 336.41005 238.63724 337.769 236 344.990885 236.057165 352.229255 235.82077 359.4375 236.3125Z" fill-rule="nonzero"></path><path transform="matrix(0.39875,0,0,0.39875,-606.863407,-921.404561)" stroke="none" fill="#000000" data-view-type="laser" d="M687.665 245.816C689.58775 245.65505 690.4489 246.44306 690.02375 248.380845 690.09885 251.50207 690.17445 254.62329 690.25 257.7445 694.4867 258.199875 698.77225 258.36318 702.9515 259.22 704.21865 263.45483 702.72525 268.159995 704.125 272.3455 707.43405 273.11848 710.87385 272.99863 714.25 273.25 714.3419 278.152165 714.43405 283.054345 714.5265 287.9565 716.9343 288.054605 719.34215 288.15244 721.75 288.25 722.2262 307.46177 721.6774 326.677095 721.3845 345.8875 718.17305 346.175285 714.9615 346.462785 711.75 346.75 711.64485 350.64827 712.059 354.619395 711.2485 358.4515 708.68575 359.30761 705.91825 359.05769 703.25 359.25L702.75 369.75C698.82205 370.164695 694.66015 369.712675 690.94 371.08 690.25995 374.67116 690.58685 378.36109 690.5 382L653.0315 382C652.93795 378.08733 652.8441 374.174655 652.75 370.262 648.34875 369.797305 643.9164 369.68417 639.5 369.4015 639.38385 366.223315 639.8613 363.06473 640.1336 359.92805 639.4477 357.623205 634.97495 360.316135 634.9023 358.25128L635.5605 346.998C632.06425 345.45055 628.1696 346.489475 624.4935 346.638 624.57875 322.175355 624.66425 297.71264 624.75 273.25L636 272.967C636.24565 268.06112 636.4998 263.15565 636.75 258.25 641.17615 257.90386 645.74755 258.374255 650.04595 257.222875 651.93755 254.366545 650.5372 250.395575 651.4854 247.0976 651.28225 245.130225 653.91845 246.32099 655.1299 245.927065 665.96845 245.65414 676.82975 245.39379 687.665 245.816Z" fill-rule="nonzero"></path><path transform="matrix(0.39875,0,0,0.39875,-606.863407,-921.404561)" stroke="none" fill="#000000" data-view-type="laser" d="M814.053 245.809C816.2203 245.466205 815.987 247.270405 816.0007 248.85369 816.18765 251.7357 816.1853 254.650865 816.7445 257.4905 821.08275 258.361305 825.5853 257.872215 830 258 830.25785 262.940255 829.92375 267.93936 830.6675 272.834 834.56085 273.54319 838.55575 273.3989 842.5 273.626 842.4177 296.85586 842.7207 320.091295 842.21425 343.31645 842.9585 347.68887 837.6842 346.252975 834.9095 346.5 833.07305 346.299545 831.0876 346.285865 831.66695 348.809765 831.80225 352.102085 833.769 358.682335 828.209 358 827.72235 359.08304 828.13855 361.06888 828 362.5 828.14175 365.933355 828.5715 371.24015 823.46155 369.98239 820.71945 370.429285 816.16525 369.1268 814.4551 371.130425 814.5127 374.46661 814.5699 377.80281 814.627 381.139 811.1838 382.48193 807.1615 381.52857 803.50875 381.890725 794.4223 381.91804 785.3362 381.80059 776.25 381.75 776.1559 377.833345 776.06205 373.91667 775.9685 370 771.32565 369.903775 766.63475 370.265145 762.0365 369.533 760.59695 365.44679 761.0269 360.854275 760.53365 356.55318 760.0214 353.30678 760.5711 349.046595 759.5 346.25L748.9585 346.25C749.05415 322.499905 748.796 298.742375 749.3255 274.9985 749.0291 272.7961 751.2311 273.640825 752.625 273.5L760.385 273.5C761.06095 268.78996 760.9338 263.963275 762.0177 259.326295 764.2623 257.076025 768.19655 258.32693 771.218 258 772.50055 257.694935 774.86275 258.627565 775.4319 257.50463 776.1727 253.762635 775.67145 249.89364 776.35035 246.16693 780.2567 245.101705 784.9019 245.864215 789.0806 245.56703 797.4032 245.584675 805.7377 245.432695 814.053 245.809Z" fill-rule="nonzero"></path><path transform="matrix(0.39875,0,0,0.39875,-606.863407,-921.404561)" stroke="none" fill="#000000" data-view-type="laser" d="M446.2465 269.625C447.057475 274.913765 447.157685 280.471475 449.929585 285.23208 452.622455 289.92293 449.433085 296.622945 443.997085 297.234375 439.91523 297.9823 433.792955 297.58922 432.786345 292.549125 431.87555 286.82728 435.843635 281.85655 436.189465 276.24324 435.68403 271.959115 437.78304 267.96131 442.641685 269.00581 443.815455 269.10338 445.25439 268.872775 446.2465 269.625Z" fill-rule="nonzero"></path><path transform="matrix(0.39875,0,0,0.39875,-606.863407,-921.404561)" stroke="none" fill="#000000" data-view-type="laser" d="M145.5725 283.8125C147.67327 283.48209 147.646005 285.24993 147.80592 286.8332 148.372925 293.00154 151.29903 298.67401 151.83631 304.8202 151.95873 308.108505 148.992425 310.474755 146.522 312 142.695195 311.896135 138.24112 312.501325 135.207 309.755 133.32194 305.062465 134.00047 299.693695 135.87221 295.0981 136.973885 291.524425 137.999265 287.92244 138.75 284.257 140.98774 283.739395 143.283585 283.2863 145.5725 283.8125Z" fill-rule="nonzero"></path><path transform="matrix(0.39875,0,0,0.39875,-606.863407,-921.404561)" stroke="none" fill="#000000" data-view-type="laser" d="M448.5 316.5L448.75 321.75C452.47883 322.257005 456.23742 322.49358 460 322.5L460 335 469.91 335C471.149905 348.67127 469.857375 362.412555 469.99916 376.111195 469.794405 384.23732 470.199135 392.42074 469.511085 400.511755 468.88917 401.650785 466.63558 400.67697 465.3835 401L459.6465 401C459.11792 405.73078 459.164545 410.50535 458.77071 415.235695 455.65559 417.09379 448.150995 414.588885 447.63124 419.396105 447.27716 421.672575 447.03906 423.964785 446.75 426.25 443.45068 426.569215 440.01367 426.334535 436.8565 427.4415 435.7845 430.230845 436.034585 433.312055 435.75 436.25 424.70129 437.14003 413.605735 436.89201 402.5315 437 402.43793 433.08333 402.344095 429.166655 402.25 425.25 398.21523 425.04216 394.091555 425.372905 390.146 424.4135 388.74823 420.945215 391.826255 417.149705 390.61419 413.53112 390.00942 412.3695 387.740975 413.28128 386.49105 412.923705 384.4107 412.8658 382.330345 412.8079 380.25 412.75 380.25946 395.89454 379.83186 379.026445 380.38 362.181 383.84255 360.564805 391.494985 365.16421 390.62029 358.632955 391.534005 354.862565 390.24764 349.35799 392.639375 346.68269 394.4298 346.37935 399.69498 348.21324 399.318305 345.1989 399.329315 341.720015 398.470805 338.08536 399.5165 334.73 400.319255 333.19048 402.29355 334.394725 403.66471 334.18642 407.62346 335.29015 411.278205 333.89581 410.310825 329.24049 410.34549 325.30099 410.02092 319.84895 415.58585 321.3356 418.639805 321.244215 421.69529 321.22027 424.75 321.163L425.75 311.75C433.246465 311.459865 440.74607 311.117605 448.25 311.25L448.5 316.5Z" fill-rule="nonzero"></path><path transform="matrix(0.39875,0,0,0.39875,-606.863407,-921.404561)" stroke="none" fill="#000000" data-view-type="laser" d="M149.067 324.4955L158.3835 324.5C158.60051 327.97148 158.435925 331.503915 159.1925 334.9125 162.21461 335.95066 165.61179 335.082405 168.798995 335.087675 170.067815 335.318785 172.551045 334.26942 173 335.365L173 347 184.848 347C185.145615 352.118805 185.55738 357.237865 185.5 362.369 189.791075 363.19348 194.17448 362.52965 198.5 362.353 198.666715 384.192045 198.533675 406.038485 198.1795 427.875 197.480455 431.216995 189.14477 424.41734 190.493 431.6605 190.291255 433.529865 191.002125 437.36044 188.0665 436.5035 185.20118 436.55995 182.35149 436.88335 179.5 437.1445 179.40592 440.823535 179.768395 444.561615 179.0975 448.1895 166.923985 448.843695 154.72099 448.851425 142.533 449.1535 142.43866 445.18567 142.344325 441.21783 142.25 437.25L130.25 437.25 129.75 426.75 120.75 426.75C120.54982 422.51625 120.844285 418.21358 119.9925 414.045 117.078335 414.113325 114.164165 414.18166 111.25 414.25 111.37651 392.244875 111.137065 370.231355 111.7095 348.2335 111.587445 346.14489 113.981705 347.281955 115.269 347L120.525 347C122.251095 343.293855 120.782145 338.968855 122.0715 335.206 125.64767 334.597685 129.36532 335.35324 132.918 334.404 133.368645 330.891685 133.000305 327.107515 134.603 323.873 139.39031 324.55803 144.24415 324.42823 149.067 324.4955Z" fill-rule="nonzero"></path><path transform="matrix(0.39875,0,0,0.39875,-606.863407,-921.404561)" stroke="none" fill="#000000" data-view-type="laser" d="M611 368.936L611 374.8715 624 375.5905 624 390.8575C627.86975 391.24216 631.89785 390.963785 635.616 392.159 635.95585 409.525835 635.68675 426.911015 635.33935 444.27926 635.42025 447.939685 630.29915 446.047375 627.7815 446.5 626.3845 446.69082 623.85765 445.724485 624.49565 447.99957 624.41405 451.416385 624.33205 454.8332 624.25 458.25L612.25 458.75C611.95895 462.298925 612.0336 465.90974 611.2715 469.396 599.2025 470.099555 587.0895 469.857235 575 470.047 574.7805 466.21118 575.6684 462.05235 573.965 458.5 570.48475 458.35001 566.858 458.93603 563.5 457.893L563.5 448.14C561.51235 447.53593 557.7302 448.657555 557.3496 446.10546 556.982 442.665235 556.9286 439.202885 556.75 435.75L547.25 435.75C547.25195 421.483765 546.81205 407.20714 547.3775 392.94923 547.1876 390.27732 549.5733 391.21043 551.28525 391.365315 553.18575 391.132515 557.15405 392.110475 557.8783 390.212055 558.11415 385.36614 558.10715 380.49744 558.658 375.6755 562.65735 375.07914 566.71875 375.03726 570.75 374.75 571.01895 370.832555 571.30685 366.916435 571.59 363L611 363 611 368.936Z" fill-rule="nonzero"></path><path transform="matrix(0.39875,0,0,0.39875,-606.863407,-921.404561)" stroke="none" fill="#000000" data-view-type="laser" d="M896.8745 368.875L896.75 374.75 909.75 375.25C909.79225 380.488985 909.72775 385.732115 910 390.966L920.75 391.25C920.73535 405.479045 921.2119 419.721175 920.61335 433.93987 920.59665 436.18957 918.20525 435.34359 916.73545 435.561105 914.6288 435.624075 912.52215 435.687035 910.4155 435.75 910.24465 439.82488 910.63275 443.98665 909.721 447.9795 907.2107 448.97116 904.44325 448.90284 901.7935 449.25 900.44595 452.543665 901.9743 456.58088 899.7485 459.5205 897.1018 459.36692 894.41165 458.592485 891.7875 459.134 890.2378 461.81389 891.13295 465.509415 890.48535 468.62213 890.94985 470.83967 888.4383 469.76232 887.1041 469.988495 876.3194 469.908715 865.5347 469.82931 854.75 469.75 854.6706 465.99998 854.64915 462.24807 854.5 458.5 850.60405 458.40503 846.6504 458.773355 842.805 458.0895 842.18795 454.06595 842.1412 449.978545 841.8485 445.9215 838.48235 446.030745 835.11615 446.140245 831.75 446.25 831.7517 428.89829 831.27715 411.532245 831.9249 394.192025 832.11245 392.648415 831.78945 390.534725 834 391.25 837.07995 391.19301 840.19725 391.429295 843.2435 390.9195 844.12335 385.883175 843.64645 380.697255 844.517 375.6515 848.53125 375.3685 852.57875 375.3492 856.5565 374.715 857.75135 371.138 856.02465 366.205015 857.80175 363.266485 870.86185 362.82922 883.9338 363.057485 896.9995 363L896.8745 368.875Z" fill-rule="nonzero"></path><path transform="matrix(0.39875,0,0,0.39875,-606.863407,-921.404561)" stroke="none" fill="#000000" data-view-type="laser" d="M324.397 384.3745C324.818935 385.53055 323.64128 388.40078 325.54359 387.97041L333.25 387.75C333.350345 389.87783 333.45068 392.00567 333.551 394.1335L343 393.4395 343 404.8835C346.28184 405.802695 349.741725 405.40095 353.1115 405.5 352.37618 409.25794 352.379845 413.11455 352.5 416.928 355.34128 417.247615 358.195165 417.507105 361 418.0795L361 451C365.126155 451.130985 369.34491 450.642265 373.39 451.588 373.61785 455.067975 373.373185 458.619685 374.156685 462.03108 377.598985 463.65383 382.198955 462.657555 386.1075 462.992675L396.465 463 396.75 473.25C400.14517 473.344565 403.540345 473.439395 406.9355 473.5345 406.873925 477.273 406.81209 481.01151 406.75 484.75 409.50501 485.049895 412.349415 484.967755 415.0045 485.818 416.69339 489.431175 413.643235 497.21935 419.66481 496.85961 421.68892 497.04848 423.721515 497.12149 425.75 497.25 425.93876 515.418 426.01161 533.5931 425.25 551.75 422.04168 551.8451 418.83334 551.93995 415.625 552.0345 414.65786 556.41585 415.390365 560.96685 414.6005 565.355 411.490605 566.4864 408.02403 565.989 404.75 566.25 404.656325 570.1305 404.56266 574.011 404.469 577.8915 400.320245 579.1804 395.725655 577.72335 391.6545 579.125 390.75896 582.59135 390.672205 586.20485 390.25 589.75 373.049785 589.73675 355.83544 590.10915 338.646425 589.64015 336.647095 589.76155 337.809465 587.19205 337.436375 585.92935L337.25 579.25C307.46476 579.21715 277.674815 578.8108 247.893 579.28585L243.035 579.594 242.75 589.25C224.92676 590.0901 207.08129 589.4647 189.25 589.25 189.15543 585.65165 189.060595 582.0533 188.9655 578.455 184.803765 578.41315 180.591995 578.8445 176.473 578.173 175.677355 574.26315 175.94019 570.2239 175.75 566.25L165.75 565.75C165.61129 561.22335 165.672635 556.68315 165.2675 552.1705 161.98606 551.28875 158.411525 552.13295 155 552.1455 155.09862 534.54205 154.698055 516.92255 155.509215 499.3336 155.20732 497.38769 155.920645 496.51902 157.901995 496.995855 160.403305 496.94921 162.97033 497.140895 165.393 496.4115 165.74674 492.602925 166.117305 488.79545 166.594 485 169.4007 484.961295 172.344555 485.246665 174.9645 484.038 175.05993 480.608675 175.155095 477.179335 175.25 473.75 177.914685 473.442645 180.91376 474.125395 183.26025 472.637375 185.05438 469.144685 181.976075 461.800165 188.51806 463.295375 195.25721 462.96441 202.005725 462.91772 208.75 462.75 208.943815 458.833575 208.673835 454.848405 209.519 451L221.348 451C222.26892 439.806195 221.719775 428.557145 222.2785 417.3555 223.95108 415.65238 229.29881 418.56902 229.501605 415.481 229.591585 412.1736 229.21987 408.78098 230.1015 405.5585 232.994255 405.53502 235.939885 405.93185 238.7925 405.374 240.0324 401.745115 238.891495 397.016415 240.87127 393.905625 244.47861 394.12429 249.486135 396.284395 249.9585 390.708 250.524775 386.72852 255.252125 388.935075 258.053845 388.535595 259.97455 389.01797 260.849215 388.34772 260.51935 386.35022 260.217025 382.824485 261.522455 379.6148 265.63393 380.75444 285.17142 380.462575 304.711465 380.7186 324.25 380.75L324.397 384.3745Z" fill-rule="nonzero"></path><path transform="matrix(0.39875,0,0,0.39875,-606.863407,-921.404561)" stroke="none" fill="#000000" data-view-type="laser" d="M769 411.6805L769 416.8605C773.4691 417.51689 777.9927 417.51697 782.5 417.5 782.58735 421.60249 782.25475 425.740645 782.8396 429.81146 785.08035 431.433275 788.65765 430.50478 791.5 430.75 792.8959 430.94084 795.42835 429.97439 794.7772 432.249755L795.026 445.964 804.75 446.25C804.85065 451.235415 804.6621 456.24094 805.164 461.2065 807.81 462.59831 811.1311 461.92294 814.1014 462.193475 816.21275 461.6793 816.57055 462.896275 816.28365 464.749775 816.321 467.833875 816.3799 470.91791 816.5 474 820.82575 474.16193 825.2888 473.55202 829.5 474.607L829.5 488.8605C833.80375 489.491665 838.1587 489.524995 842.5 489.5L842.5 505 853.9205 505C854.9528 514.58485 854.2683 524.26075 854.3647 533.8831 854.1559 542.536 854.39945 551.25055 853.64015 559.8583 853.01735 561.22725 850.7253 560.1646 849.393 560.5L842.13 560.5C841.89195 566.115 842.0637 571.7721 841.3195 577.347 837.07045 578.0618 832.72565 577.90285 828.4285 578.123 827.0044 581.6854 827.6464 585.6377 827.5 589.3905 819.11765 590.1466 810.66155 589.6298 802.25005 589.7299L783.25 589.6065C782.56675 586.2031 782.8801 582.6358 782.081 579.3 777.08255 578.666 772.0277 578.6398 767 578.3485L767 571.418C745.26125 571.60645 723.5121 571.4243 701.7825 572.0505 700.89945 573.91595 701.3646 576.69355 700.4983 578.2623 695.9147 578.53515 691.30625 578.572 686.7515 579.18 685.41655 582.02865 686.0613 585.4705 685.7818 588.60095 686.23855 590.64295 683.47045 589.5046 682.25305 589.89555 668.0013 590.0629 653.75005 589.59375 639.5 589.383L639.5 578 625.0235 578C624.9326 572.25 624.84145 566.5 624.75 560.75 621.04165 560.67605 617.333 560.6134 613.625 560.5235 612.6684 555.1097 613.20455 549.4362 613.01065 543.91545 613.09545 531.55655 612.77545 519.1721 613.45105 506.8303 612.9784 504.60715 614.7924 504.9223 616.3925 505 619.2639 504.87715 622.40335 505.4105 625 503.965 625.0259 499.18479 624.8406 494.371565 625.6175 489.636 629.39485 489.391865 633.21665 489.46997 636.9465 488.783 638.06795 484.5012 637.3521 479.89846 638.1596 475.513865 638.22255 473.89579 640.83975 475.01158 641.99535 474.562955 644.76455 474.39201 647.56435 474.390045 650.2945 473.872 651.12285 469.885295 651.2927 465.792525 651.751 461.75L663.75 461.75 664.024 445C667.27405 444.91705 670.57165 445.039855 673.75 444.247 674.26805 439.876575 674.70565 435.497105 675.0675 431.111 678.65065 430.896105 682.29575 431.082585 685.819 430.3475 686.7255 426.30216 686.55125 422.05038 687.0487 417.965215 691.03375 416.823825 695.4601 418.23992 699.3995 416.871 700.40995 413.52289 700.2902 409.959635 700.637 406.5L769 406.5 769 411.6805Z" fill-rule="nonzero"></path></svg>