<?xml version="1.0"?>
<!-- Created with xTool Creative Space (https://www.xtool.com/pages/software) -->
<svg xmlns="http://www.w3.org/2000/svg" xmlns:xlink="http://www.w3.org/1999/xlink" xmlns:xcs="https://www.xtool.com/pages/software" version="1.1" preserveAspectRatio="xMinYMin meet" width="370.2486283303058mm" height="179.3985010351704mm" viewBox="-1387.06005859375 511.0622214739906 370.2486283303058 179.3985010351704" xcs:version="1.1.10"><style></style>
<path transform="matrix(0.358683,0,0,0.358683,-1384.103126,511.019201)" stroke="none" fill="#000000" data-view-type="laser" d="M694.6968534890814 0.506657771749957L688.4590769534711 0.6839747130135265C688.3560774888438 5.767240088204204 688.2530224389684 10.850522138969296 688.1500229743409 15.933787514160002L669.80689111949 16.48963999461003C669.6732085979418 22.518382646422168 669.6914405593006 28.55382887914857 669.3761054471412 34.57596800349299 663.3479408819088 35.04174458948606 657.2552974289441 34.98774907953518 651.2792162411297 35.943365105400034 650.4677272049208 55.19639411959878 650.6297026177239 74.48359138577075 650.3520543037391 93.75313477716367L636.683641809473 94.3089872576137C636.4072719561933 112.04077587889122 636.4982650072428 129.78435968980386 635.7220170182944 147.50337482108068 631.794974829163 150.27439948957056 632.235877016656 141.60550763579045 632.2193126127386 138.9526016193962 632.1182586317927 136.17086011508326 631.8201549465274 133.4028537255623 631.5625729070869 130.63283515006202 626.3818054483005 130.79563878306107 621.1918108383386 131.40261857466288 616.0123774255053 131.0572896626585 614.2020214819275 128.41674024690468 615.0317424794953 124.10968395098882 614.5802235096257 120.72841663683687L614.3283667507338 115.15345527448972C599.5196784780725 115.2650815696137 584.6879779127205 114.84851460371482 569.8983553801387 115.61314527582186 567.4283692980109 115.1431053013037 567.6898423048145 117.09593735267038 567.8079609569103 118.92157923946041L567.8079609569103 130.5589067701622C561.3566258983111 131.3838085267244 554.8432577028938 131.27232119472058 548.3531241411594 131.27317720754047L548.3531241411594 147.78088417194533C542.4324058603978 148.1906975302067 536.5042947416464 148.58729271648303 530.5658447667585 148.50460410149128L530.5658447667585 212.39873502426087 547.5193454204842 212.70556559346932C547.6161749225786 228.54734461072064 547.7127264984329 244.38917365469524 547.8089445627987 260.23095267194657 554.3830674343292 260.6124342292794 561.0159439130433 260.12343968517797 567.549489553501 260.9013107633693 568.4508599357987 272.5175826021116 568.1693206544509 284.2030080479467 568.5839310196185 295.847200356782 587.9862397759669 296.27580152888265 607.4101711938047 296.3295580222669 626.8164265027643 296.0368516645868L634.4102051644323 295.69322921969734C635.6170720699854 289.76571842162474 635.3663270160545 283.6362997685535 635.7876076109875 277.611348030658 640.7639881127126 276.9841685599166 645.8502050645744 277.2983975256398 650.7657197196901 276.3884725736679 653.3469318831558 275.43299551092315 655.3612301018106 275.4130181727758 654.5209479071143 272.18178100162214L654.5209479071143 260.4355063847522C658.7162445033108 259.77040109926975 663.1496127168842 259.9189915843436 667.099389272466 258.25398550587875 667.3860979818821 255.61581513874125 670.5838617166631 254.5736806742944 670.122948839874 251.89316546519615 670.1057174129801 226.14388295345321 670.0881524745978 200.39451706383812 670.0703651952233 174.64523455209513 672.655134814564 174.97485507300195 675.4128301405727 174.88555181349284 677.8545233314455 175.64839264061288 678.544280674436 181.96938029254648 677.7653090083334 188.38562438405472 677.7077782766067 194.74652780260942 696.7258817984681 194.6316553289996 715.7440409055775 194.51677729686497 734.7621444274388 194.4018992647304 735.705981939243 199.1193414469625 730.6078141590514 202.9588201948486 726.1790039358177 202.97493435825686 721.4170157358024 203.70072761755483 716.59694095158 203.86653285394834 711.7970991976459 204.1921290028967L711.495827153242 226.04602512426993C704.91747980286 225.6432710925103 698.3237353387697 225.83236654783457 691.7630640972661 226.42789577833912 691.698751965278 235.13215652545023 691.949385848713 243.85011903620443 691.4795793322365 252.54240116236178 687.9396883957386 253.77437036593204 683.8482806281381 252.92199282126114 680.0847702387551 253.0894767321455L671.1965223206151 252.9348330135595C671.0859632622536 264.29962607309665 671.0010290032409 275.69859850165665 671.7350877889232 287.04180225085304 672.739012953864 289.49560746727485 669.7085052304504 288.31461549468673 668.2827436180961 288.5794291748979L651.7416855048642 288.5794291748979 651.7416855048642 300.65310090275295C646.0365824012692 301.4857734769919 640.25938523096 301.3493061345166 634.5102586109134 301.36403622524847 634.5965825011273 307.85757160416335 634.2605696766952 314.3447480307019 633.7865386813675 320.8188730409994 626.7941368182983 320.7427601608514 619.8012902732448 320.95746929847485 612.8320118733624 321.540925413104L612.8320118733624 342.4971197785504 592.9475010902236 342.4971197785504C592.232897141357 369.69992873404635 592.086985865239 396.91268744894217 591.8830435901617 424.12294482767595 597.3830371284706 425.0042489354295 603.0388361170496 424.2189405510496 608.6045314185478 424.18119816762714 610.0186201288126 424.53844455681224 612.8035522263633 423.04625857304427 612.9469065810714 425.1179763529294 613.6841337258921 436.63435038388536 613.2730808165994 448.2153700583175 613.3878643538123 459.76087075924886L638.6791522142886 460.059919393731C638.7813179001953 465.74089849967436 638.8837615123422 471.42193319086596 638.9865386359775 477.10291229680934 643.220244638573 477.05855526886944 647.4619549168873 476.764009039479 651.6911029291433 477.01342004745686 651.8003279415516 479.4130352055596 651.9098308802004 481.8126503636623 652.0196117450893 484.2122655217652 676.4156991858007 484.32955039514013 700.8152329118909 484.8489389528726 725.2097639656571 484.43054879083775 728.4337639375152 481.4050993249963 726.508013018996 474.60635646611604 727.4957628767557 470.0779374783857 726.4390317261723 463.7990278592222 733.8219755420056 466.97033301593376 737.5105014317759 466.2773517285568 766.358856070396 466.36445381224337 795.2074886352563 466.3973602790859 824.0559544443723 466.4522229189064L824.0559544443723 484.05940608964136C849.2233983722043 484.4734050170806 874.4003473774519 485.1435407675111 899.5686250840046 484.54305333288096 903.2204647100651 484.14817573076925 899.9246485977328 477.54181341537253 902.786788604818 475.8372917840726L914.9378349979517 476.17964132678185C915.2585618791713 470.8919834360048 915.2604517776049 465.49282153764955 915.8546580792059 460.294544725729 922.5793058024423 459.3543758402958 929.4567573725544 459.94124488915486 936.249774950886 459.78199315350605 938.7219288576877 460.5400647663438 938.5462238886174 458.59069011740553 938.4528962571497 456.7255827045036 938.7536124490732 446.0383182333869 938.7423842289681 435.3314877549585 939.4564879106023 424.66434514363414 946.0876412466271 423.75091276251067 952.8391922299171 424.61676417130775 959.4999725031499 424.02122382375353 960.0085775227616 396.9459830125211 959.8736721257565 369.85584535481246 959.6845155266592 342.77504601877547L940.3919876351997 343.1596959352469C939.0956840655423 336.064105617707 940.1872115814019 328.77713529114817 939.2480432304335 321.6526517616745 932.5102773886586 320.67484610479005 925.6307135791209 321.2490472756198 918.8288023611019 321.09679928122443L918.5253069067761 301.36403622524847 900.763596746476 301.36403622524847 900.763596746476 288.5794291748979C894.061572219194 288.4267198229439 887.2777262067896 288.97835338306726 880.6423483919135 288.01340459405566 879.6240822329771 287.0658762217813 880.4766487674914 284.6821584446194 880.1947759746552 283.16931698267786 880.1099528861386 273.0210459862792 880.4322361543034 262.8480228789262 879.7718278222807 252.72138566106673 873.5968626169614 251.73417498021308 867.2653693531473 252.32314515144827 861.0201443942991 252.1710917054212L860.7222074647779 225.76809888404495 841.3135064049044 225.76809888404495C841.2124524239584 219.37579535886965 841.1111205167725 212.98348071664475 841.0094550980982 206.591188308519 836.340349847566 206.06863695017273 831.2897630397009 206.34734694239523 827.3324824756331 203.4343909015472 823.5074948019123 202.51407150819097 818.0679224282284 203.1181386327952 819.4988534686509 197.45660324661787 819.1994157374324 195.51777867775866 819.0362730344203 193.7077173359956 821.5546182823473 194.43123715864857 838.9713108080321 194.40860284564462 856.3880589189649 194.38562390410283 873.8047514446497 194.36243373861845 874.0930165410111 188.20181508581953 873.9116974618883 181.98951326938834 874.8102885817838 175.88033876365506 877.3229641344102 174.70866843716408 880.2629234887584 175.34858804675736 882.9763173720752 175.1855231630925 883.065142598451 202.9820492700066 882.7221816180133 230.78754127743036 883.3404007467699 258.5767356901273 883.0310688413995 261.10063390433385 885.3695958119007 260.24856207852724 887.0364862302744 260.25277544032906 891.2733605920085 260.19413856216636 895.5823846057052 259.5079497921004 899.7647854243553 260.2124261087732 900.6192974425511 265.4713519848357 900.5141301532501 270.97798796028593 900.8775465049682 276.3506746049973L917.4391711599768 276.3506746049973 917.4391711599768 295.80551142074825C939.222696357325 295.94903253120043 961.0148928533682 296.3913577010433 982.7934153783925 295.79204311514695 985.8728381200857 293.8820839655974 983.8710465822411 287.4804977039986 984.7252806741966 283.79350040854956 985.0146574755189 275.93546947767555 985.1604019958928 268.0632754255997 985.904077029487 260.23095267194657L1004.708010590631 260.23095267194657C1004.9779325551375 244.76012180752355 1005.1564723718581 229.27675091114156 1005.9069843909616 213.82282907917386 1011.8985738629805 212.99707130979175 1017.9917731684255 213.12741315793244 1023.9999826296101 212.36816313783618 1023.601102889639 190.86588817854596 1023.7384540375582 169.35257954751887 1023.6069949259319 147.84536305967754 1017.5852782494725 147.96347059472356 1011.5635059877653 148.08186717305938 1005.5417893113059 148.2005527946851 1005.4400127221355 142.37392366328942 1005.3379026214769 136.54727785631923 1005.2355145945781 130.7206598419731 998.6673949298364 130.8121920699288 992.0992196798467 130.90372429788454 985.5311000151049 130.99525096731543L984.9752475346551 115.4313815147147C969.1440130389577 115.33455757114513 953.3127785432606 115.23802822939018 937.4815440475634 115.14178237240026 937.3780443157035 120.24097847968062 937.2748225100839 125.34019126253543 937.1719342159528 130.4393984868654L920.8687809643535 131.40658180284845C919.875139070301 136.71941425246501 920.7227585177393 142.23830677510915 919.7114961000565 147.5540963599217 917.2876457738062 148.87634156484182 915.2202080580203 148.36239480289294 916.0390343469712 145.44743769311538 915.9738884362625 128.21602191621412 915.909076037042 110.98455055406492 915.8444303935657 93.75313477716367 911.4324625004897 93.64985182777127 907.0204390221656 93.54627427656419 902.6084711290896 93.44241324059215 902.0513957731827 74.19819448820851 901.7973711896169 54.946566222260515 901.875301707376 35.69434319415842L883.8100960927502 35.388624329910925 883.5054889334635 16.767566234835044C877.4934440901641 16.660648010220484 871.4460470291081 17.05791577799812 865.4644629017373 16.38251610457769 863.2351053583964 13.811414897731282 864.3212411051957 9.329092756204744 863.9145238452505 5.892179050234944L863.7994067965492 0.3699180615592468 817.1077984387471 0.7456743383434628C816.8118069929073 5.674318229047373 816.9234221709818 10.655907068514125 816.0744686775905 15.528571055911925 811.3134254267919 16.767127111375487 806.2135345039109 16.016765172441552 801.2982421897874 16.211713754385016 797.6052138949254 15.195854436688961 798.8923458986555 20.152357653712983 798.5386013800971 22.406283876689827 797.5598007472727 26.168037772234584 800.8929701462913 34.327362981611714 795.0273924315903 34.2152141851561 792.2949883934422 34.459750366880485 789.5520787434136 34.54953721804759 786.8138382542206 34.706593336398754L786.8138382542206 49.407223886860606C780.0518928295461 49.72952938912471 773.2602648824154 49.71119181579468 766.5252227177947 50.396641302061596 766.2444616299193 45.083592069977726 765.9399100558807 39.77171012810271 765.6914439971196 34.45701557267668 762.8249127554388 34.57621813710918 759.958381513758 34.69572642040592 757.0918502720773 34.815540422566926 755.9252826713567 28.69072978655859 756.3783024429235 22.413559985658907 756.2419518294691 16.211713754385016L737.3429674941683 16.211713754385016C737.1703752989885 10.879420909427893 737.8207782863631 5.411444473992958 736.7069055007893 0.19290683915994578 729.9509632829036 0.000003794344564767016 722.8884684220496 0.25312789689189685 716.017631496455 0.2309493829219491 708.9105016814209 0.29516701998832673 701.8026492581623 0.34712810986079035 694.6968534890814 0.506657771749957Z" fill-rule="nonzero"></path><path transform="matrix(0.358683,0,0,0.358683,-1384.103126,511.019201)" stroke="none" fill="#000000" data-view-type="laser" d="M736.6081305150134 29.187534058010414C737.4866553603646 35.241445710137356 736.7276943835582 41.50568082381699 738.1189375568765 47.470077992492236 744.3527675398755 48.156550247323196 750.6522992860637 47.79622999392109 756.9167567407354 47.8953051400365 755.7122244156003 52.17376838435803 754.970828377176 57.249713182381186 755.7049427481063 61.47129048385341 757.94502824432 61.87628460110932 760.4913884572616 61.16335932673371 759.5754547399761 64.29294219626269L759.2991404719443 147.6708253808162 736.7871150137182 148.65134915633007 736.7871150137182 171.30456114459048 679.8122357675906 171.01662955971733C679.7116820538771 163.2951104395171 679.6114618516519 155.5735635266928 679.5115195756671 147.85203328944294 672.756244380758 147.96050234247792 666.0009691858487 148.06926043880281 659.2456939909396 148.1783186954671 659.1493647560776 131.42623674655715 659.0529799359675 114.67411032944881 658.9566507011056 97.92202838053885 663.9552653020485 97.76966921564753 669.0580466578278 98.33893997497563 673.9641118207759 97.23944153454624 674.0609413228702 81.06934269119228 674.1574928987244 64.89918826259031 674.2537109630903 48.72908386071157 679.3084110793105 48.625967667063264 684.363166780779 48.52313495817998 689.4179224822474 48.420585734061774 690.5377984746101 41.96452592937885 689.6373730415291 35.302561690362836 690.4929411794377 28.802884141538982 705.1367636063976 28.233491094665197 719.8298345631254 28.624961321071737 734.4833844084931 28.992174145231473 735.1914848833384 29.048270777558457 735.9113694307692 29.025102846173326 736.6081305150134 29.187534058010414Z" fill-rule="nonzero"></path><path transform="matrix(0.358683,0,0,0.358683,-1384.103126,511.019201)" stroke="none" fill="#000000" data-view-type="laser" d="M862.1251791254338 29.082477939205347C862.836892641402 35.29578584862617 862.8224960621584 41.57069332993041 863.1368306398529 47.81470653037127 868.3895809948575 48.626907057755204 873.7551694033937 48.014235336753586 878.9958577595725 48.73186312311378 879.7265814303722 64.9150022656591 879.4935680705674 81.13347695038658 879.6956760324591 97.33338060374234 884.4022457401736 97.43666355313468 889.1088710331361 97.54023554581698 893.8154407408507 97.64410214031386L893.8154407408507 148.22667786126624C887.1012986294949 148.3890090196569 880.3942158446407 148.74302590593072 873.6913575386379 149.1560632085787 873.4019251520676 156.6350416574594 873.239393886784 164.12083485775042 872.7981026025548 171.59249272946352 853.9269664765244 171.51581287978547 835.0563862029744 171.31540026795926 816.1856391736803 171.17115654928244 816.2844697447044 163.522998839452 816.3835782419687 155.87482445404714 816.4830202507212 148.22667786126624L794.595772980521 147.92540581686234C794.7115014669507 119.67825010404744 794.3700412882102 91.42110572215881 795.0537954244119 63.18236005737316 795.1823085178919 59.9838681558428 799.7838221068013 61.28857065647992 798.4973015407998 57.26362616996681 798.6431572316699 54.235519729268844 798.6764527952488 51.20336668251315 798.7646665838962 48.17323138026154L816.551945958297 47.61737889981151C816.8428791465645 41.42045752151438 817.1983468078124 35.22589851625915 817.385724678972 29.024669281238545 832.2917427209601 28.676522197158278 847.2341691004177 28.401475272781994 862.1251791254338 29.082477939205347Z" fill-rule="nonzero"></path><path transform="matrix(0.358683,0,0,0.358683,-1384.103126,511.019201)" stroke="none" fill="#000000" data-view-type="laser" d="M204.2832180049953 50.53560442217412C204.31796434354825 56.14763002791773 204.68481030507084 61.749300101950496 205.00638208206075 67.35014195578742L226.3383327242914 67.35014195578742C227.117165427274 100.41961253832096 226.606320322166 133.4982658038315 226.2366117203691 166.5698097161171 219.42390584717978 166.67098042608382 212.6111777398913 166.77214557752575 205.79847186670204 166.87330517044285 205.94124813483043 174.18349345511007 206.0837298011442 181.49370953240134 206.22592242416815 188.80390893411817 187.90391852209916 188.79420374980953 169.5724039840897 189.2828203142243 151.25782627115953 188.70294944809405 148.19137156783532 186.4988887511384 149.97130570515796 180.42442167428442 149.32315947885402 176.56084116284603L149.14709876419627 166.87330517044285C142.78944708265223 166.77213446047608 136.43178428405855 166.67096930903426 130.0741326025145 166.5698097161171 130.05616189182157 149.80316443221938 129.34049070619255 133.00830963493888 130.45878251898594 116.26516023538977 134.59209600508754 116.26563826852293 138.72542616676353 116.26582169984147 142.85873965286513 116.2657160878702 142.8528976432956 100.5795646480953 142.3169613572201 84.8802617386329 142.95066097755713 69.20425460662614 142.9593823029754 66.6308799631347 145.6265681695924 67.84994783063371 147.2422701330413 67.73959443768996 149.9179883352332 67.544801494441 154.5478337250712 68.76121238708345 156.2100105144105 66.79495093978915 156.39726609802452 60.07825190702323 156.30680110683127 53.343904558002976 156.84621147090957 46.64463705902392 172.63834730313192 45.93389628489649 188.47024882180565 46.33295389766124 204.28043874259302 46.227747698686414L204.2832180049953 50.53560442217412Z" fill-rule="nonzero"></path><path transform="matrix(0.358683,0,0,0.358683,-1384.103126,511.019201)" stroke="none" fill="#000000" data-view-type="laser" d="M329.903099324299 56.772825105303866L329.903099324299 67.31790251192132 344.63319005622463 67.62806819601246C344.73000844126943 83.88877099367977 344.82654334154927 100.14952937659507 344.92278919853914 116.41023773278721 349.0284490237384 116.32154591100658 353.1703782232869 115.75933447818022 357.25270891988157 116.33464179544598 358.46834161905144 122.87416840859328 357.9667292236437 129.68855851479833 358.28906251853186 136.34550896444068 358.41069971682873 146.31325019223874 358.74588987958975 156.29077442369265 358.4750285243913 166.2551972121824 352.1286439726259 166.89990271163236 345.72607385213666 166.72559849081284 339.3525914919494 166.9211084837615 339.2366462230524 174.09745304966123 339.6769814410152 181.33623652468987 338.91563029854285 188.46195960519492 338.15887049755895 189.83937872732452 335.68561600284613 188.71968616628038 334.2309667370829 189.0818351743432L282.0997860055967 189.0818351743432 282.0997860055967 166.84773595634215 262.2280598295083 166.84773595634215C261.2198657175177 160.6086920770765 261.8993175555205 154.20164178559486 261.618078434512 147.89995889030735 261.58701739790445 121.74621032116488 261.33284829269394 95.58216180555968 261.89010152139474 69.43458875747501 261.53116534066885 66.97981079921237 263.4657654306767 67.22889941275167 265.29191870174884 67.35014195578742L283.21149096649674 67.35014195578742C283.3272861552241 60.520043458484906 282.8875234653161 53.626316527745246 283.6484521599034 46.847623267834706 284.4052119608872 45.47020414570511 286.8784664556 46.58989670674924 288.33311572136336 46.227747698686414L329.903099324299 46.227747698686414 329.903099324299 56.772825105303866Z" fill-rule="nonzero"></path><path transform="matrix(0.358683,0,0,0.358683,-1384.103126,511.019201)" stroke="none" fill="#000000" data-view-type="laser" d="M607.7420707098815 142.7537543387553L614.4995693147124 143.1167260084892 614.4995693147124 163.39366864282567C619.1366574623707 164.5703194075415 624.0691812033882 163.87687120408089 628.8413970890438 163.9798373175595L634.0288903628436 163.91561412196825C634.27379896573 178.9777711257148 634.5427759810198 194.04108430262067 635.1845076696992 209.09252447054416 640.0966316246842 209.2069856133184 645.0582820356773 208.77909037386797 649.9274385939234 209.50219886568544 652.1111050633713 212.94135821567625 650.8055743425383 218.2311616970277 651.4470281049777 222.37215150588435 651.625401165954 232.57660807100683 652.207100786745 242.8342430429339 651.0907822502572 253.0048704260962L633.3985536500134 253.0048704260962 633.3985536500134 271.79657523267025C618.5763581620771 271.88501136230985 603.7507163887619 272.22939532509747 588.9303552140112 272.0178045198894 588.2768950379941 265.61440617920425 588.3530468278158 259.1568733654482 588.0965764933362 252.72694418587122 582.1063766525185 252.4609743325007 576.0105648404152 252.94956866281626 570.1073003275399 251.9153161865421 569.7751784704709 240.61828710289666 570.1048545766258 229.1466925477659 570.0863446890268 217.7728613268967L570.1292009152695 208.94411185826397C564.4454425469239 209.08593206012603 558.7616285933302 209.22804686380272 553.0778702249845 209.37045071076915 552.4567606633296 194.77124100389022 551.8916810317041 180.12372771646017 552.7125639748327 165.52908155844574 552.2652694838147 163.01570563169412 554.1425500660386 163.27041947233545 556.0249444910825 163.5312198976378 560.2738252663945 163.5961323503048 564.6711186539866 164.49169963270663 568.8096071266812 163.43591343133988 569.0791399944515 156.42070494099784 569.3483393507333 149.40545754098224 569.6172607807752 142.39022681654097 582.325771626552 142.41969811505442 595.0403412643659 142.2601851287397 607.7420707098815 142.7537543387553Z" fill-rule="nonzero"></path><path transform="matrix(0.358683,0,0,0.358683,-1384.103126,511.019201)" stroke="none" fill="#000000" data-view-type="laser" d="M983.5856163335299 148.6557959761737C983.5721647035031 153.61746306274108 983.8345826595233 158.5743720520759 984.3043335907518 163.51262107364198 989.8732528366364 163.63724319975887 995.4916985385292 163.1882589172002 1001.0207075763177 163.90423582169342 1002.5745376001677 167.3987414031626 1001.3899047938327 172.26461287324935 1001.8284724009076 176.2526543135853 1001.72519501004 187.2900391450877 1002.1100116822555 198.36522194526077 1001.0949694677057 209.37045071076915L983.3076900933048 209.92630319121918C983.1432689295876 224.05397768040757 983.260776143955 238.1909015548706 982.7512817603744 252.3100548255337 978.7223518115765 253.54898330215917 974.2816463452613 252.82374033681674 970.0622813366612 253.0048704260962 968.6864908622994 253.4156565261984 965.6885560942402 251.99770464119445 965.8207378140911 254.10863225505068 965.0606651323238 259.99104118285953 965.2904545477419 265.9366116280219 965.2424844786791 271.85327218567613 958.0595919705597 272.84859831274434 950.7337897897166 272.162081589715 943.4978133697142 272.3623496798963 935.2747541149288 272.30910457079403 927.0518060306393 272.2413572704767 918.8288023611019 272.18178100162214 918.8815527614966 265.7989380856641 918.933969650403 259.416067377082 918.9861086130692 253.03321890259917 913.4320306284125 252.7537418339537 907.7463267763853 253.27988399932372 902.2969713990453 252.2135532764027 902.2430537084417 237.87938514925202 902.4088089181121 223.46217822004678 902.4311541878261 209.09252447054416L919.2173432449365 209.09252447054416C918.6539867560003 193.99510974396264 918.9060658558843 178.88656129219777 919.3846548415519 163.79054731386702 925.7774586339596 163.7360793293077 932.1697621591348 163.63620931414528 938.5615654170778 163.51262107364198 938.6288791524603 156.62957762757657 938.3706856752913 149.73046448630134 938.832265575057 142.86103386748215 953.7388950547736 142.30128486114415 968.6683700714367 142.47064199488767 983.5856163335299 142.30518138703212L983.5856163335299 148.6557959761737Z" fill-rule="nonzero"></path><path transform="matrix(0.358683,0,0,0.358683,-1384.103126,511.019201)" stroke="none" fill="#000000" data-view-type="laser" d="M789.3563074997991 148.08771474115377C788.8712150401102 153.30625793451156 788.9115143449429 158.55522849264918 788.7593219357957 163.79054731386702L796.0443245445738 163.46148264544058C799.0738317335224 166.74061206630978 799.1266933044133 171.6084234615533 801.2826783203348 175.4056407453507 801.3052459310411 177.81820170772323 803.6078648313053 176.743349766277 805.1831507609006 176.78093651100505 808.6192084540505 176.58853373342208 814.1108086199047 175.33056730934118 814.6081298341633 180.19486571690817 816.7538871644444 186.29395705864607 807.828119203874 183.71830897850964 804.3204677112423 184.59836241818215 783.2075785315568 185.2470533799169 762.0552238257596 185.16514295839778 740.9572870777985 184.12929518550476 738.2296633709822 181.8220905022768 738.149287102309 173.8103830361328 743.9154228082574 175.78435971585571 747.967420634994 175.6671915715017 752.0660544848403 175.86249589903264 756.0635231832448 175.068794142198 756.1730261218934 171.66048460487224 756.2944243036236 168.2278565215267 757.1168636336976 164.90225227476702L763.4280126967271 164.56985249145794C764.3475594551356 158.80477290522242 764.1004830275755 152.9337089265395 764.3279378625757 147.11497290036618 772.741043080427 146.31065991967978 781.201784855853 146.40573292793601 789.6436832321916 146.28119417969117L789.3563074997991 148.08771474115377Z" fill-rule="nonzero"></path><path transform="matrix(0.358683,0,0,0.358683,-1384.103126,511.019201)" stroke="none" fill="#000000" data-view-type="laser" d="M83.10459800448729 168.79321963791722L83.10459800448729 178.52063804579268 104.07190941954275 178.52063804579268C105.14973517175937 188.89117221502403 104.61426580176746 199.3603090557624 104.77890374795192 209.77399961157585L104.78284474203832 226.29727044543336 123.4039028371142 226.60187760471996C123.40751031971232 240.2063337125855 123.84735638749245 253.8197890721096 123.34567728978706 267.41724699724625 121.96004266799645 271.4328976302862 115.48010344075337 268.98202731496116 111.86384949049119 269.680444839597L103.51716864405361 269.680444839597C103.7858177063799 276.0310538702137 104.0544834442806 282.3816795764049 104.32315474070614 288.73228860702164 100.65737989296068 290.3114321528314 96.27275438339802 289.2975127602921 92.33220497899171 289.66250217452995 81.28429786003434 289.74111639084003 70.24153237652116 289.3644874256615 59.20294134513617 288.9596322715257 59.28825914236043 282.3339874335823 58.96701531833395 275.7138121840465 58.478109710629326 269.1079167847335 52.479182985868505 269.35406493865116 46.48022290995887 269.59994072485347 40.481273951098814 269.8455330262907 39.29393970170874 255.073247532574 39.8940491566522 240.2280564275215 39.748104529385245 225.42124693624407 38.25546830510798 224.973524438816 35.982593071072614 225.29158322812953 34.19055246672576 225.13771214449133 30.57718339083712 225.07017606811667 26.963819873473298 225.00212304893518 23.35045635610946 224.93432016336988 23.253843636482443 210.04953012761013 23.15693631504078 195.164695623652 23.059745508834098 180.27991114641702 24.09952871728872 178.77405675015467 25.51231673274934 178.16982842833107 27.320910623963996 178.52063804579268L39.748104529385245 178.52063804579268 39.748104529385245 159.06580123004176 83.10459800448729 159.06580123004176 83.10459800448729 168.79321963791722Z" fill-rule="nonzero"></path><path transform="matrix(0.358683,0,0,0.358683,-1384.103126,511.019201)" stroke="none" fill="#000000" data-view-type="laser" d="M448.48977920846846 168.85047244340353L448.1206931614497 178.63514365676542C453.50470252118794 178.60323772438755 458.9213626556276 178.09368219703424 464.2804364730928 178.70573692178255 465.38460963288276 185.3358396966192 464.76958109736404 192.21375262429007 464.97335661669695 198.94791654199173 464.9773921057051 207.67766868385627 464.97426821476495 216.40745417686963 464.9752520736554 225.13720631873417 460.16686130857204 226.27620363642427 455.1237896262427 225.26211192961608 450.2187639074331 225.17559904955885 447.6685849879509 224.23276207221954 448.34146109111 226.6962891485244 448.29967766015454 228.40450719881943L448.29967766015454 269.680444839597 428.8448408444036 269.680444839597 428.8448408444036 289.69113413579794C414.61229922625364 289.57641174235783 400.3524263416398 290.02069907145676 386.14253015354325 289.2260245727814 383.6659683365717 289.7002223238533 384.5023206542313 287.23786809628217 384.3490276571729 285.65273246073326L384.09871616817657 269.95837107982203C377.7784844756163 269.83562217656424 371.43827544490887 270.0361404003618 365.1358087976239 269.5242502925906 364.9275030805753 255.1264926416763 365.4585923330212 240.7230208272631 365.6521957519619 226.32395136449497 371.8096293700479 226.40770721624915 377.9596590330942 226.06122768961023 384.09871616817657 225.61968627176475 383.77907319929375 210.010325852164 383.9951386169695 194.39665757583975 384.65456864862654 178.79856428601772 391.2331605740999 179.1333820276168 397.8311461926161 179.1119038877722 404.3873317046025 178.42058459931172 404.53761753974175 172.12250918662227 403.995377886538 165.74195082435892 404.9533562854448 159.51111132770467 405.9008846577191 158.493167563207 408.284602434881 159.34698476580223 409.79744389682264 159.06580123004176L448.85886525548733 159.06580123004176 448.48977920846846 168.85047244340353Z" fill-rule="nonzero"></path><path transform="matrix(0.358683,0,0,0.358683,-1384.103126,511.019201)" stroke="none" fill="#000000" data-view-type="laser" d="M258.7623196139024 179.53673638005534C259.263025969767 183.73602399706158 257.7325584256703 189.31792239836471 259.9793475027981 192.58191039766655 266.2717421031373 193.4886114052518 272.6563970981816 193.42881835392978 278.99534990228335 193.80658125816842 279.8333364262353 197.21158903176035 280.22586277235473 200.99167494211036 278.8063600589303 204.2705042026402 272.23603921836605 205.70175763750137 265.3420732710598 205.1468834574169 258.63320064121865 205.41263096979526 241.74618550267948 205.49706496157557 224.86190515834411 205.11990793654064 207.97685773758568 204.92363086716892 207.976963349557 201.40323367716036 207.97677435971363 197.88283092862702 207.97630188510524 194.36243373861845 214.6189168992768 194.17715698983488 221.26155414754763 193.99187468252643 227.90416916171912 193.80658125816842 228.68547540823974 185.16820014704024 229.00392329428954 176.47625153237118 230.17482654435756 167.88273327494005 239.66370086024781 167.09441772864108 249.2297719686231 167.57625289279434 258.7539818266956 167.4897455712619L258.7623196139024 179.53673638005534Z" fill-rule="nonzero"></path><path transform="matrix(0.358683,0,0,0.358683,-1384.103126,511.019201)" stroke="none" fill="#000000" data-view-type="laser" d="M818.1327904126969 214.51208615493192C818.4612436433948 219.36876938351674 818.5209421997952 224.23715886533984 818.497429639872 229.1032137667451L839.6198238969731 229.1032137667451 839.6198238969731 258.96416486900097C846.0052904366388 259.8726779556725 852.4710776597296 259.6302039866506 858.9017905913041 259.67510019149654 859.4327408806299 269.84844013476345 859.7084437109331 280.03391433767854 859.630513193174 290.22141740214727L879.36327624915 290.524912856473 879.9191287296001 319.4292418398744C886.2178822823156 319.61453526423236 892.516580249783 319.79981757154087 898.8153338024986 319.9850943203244 899.2030409076126 323.20682085553756 899.8805694960331 326.4742384646437 899.2883642633616 329.71251272819984 905.1996886372035 329.7751295101226 911.1124582274946 329.76684730816385 917.0222817996392 329.9209574083686 918.8854437288596 334.3699117254937 918.0665618546607 339.6718272323943 918.4551583237434 344.4665051167849 918.4952352875837 347.8376948254662 918.5186366770107 351.2089957046437 918.5508761208769 354.5802409985731 924.9723063160277 355.6503681939355 931.5218049226743 355.1597727946904 938.0057129366278 355.281726828901 938.0869229840215 375.6230371804737 937.6561373116728 395.9610680024117 937.2719876624337 416.29765360790043 930.8463329884314 416.56568567397335 924.4206783144291 416.8334398138062 917.9950236404268 417.10086044215075L917.9950236404268 438.63347382982386C911.6027201152515 438.7345278107697 905.2104165900762 438.8358597179557 898.8181130649009 438.93752513663003 898.632847433167 445.4063695483633 898.4475262161849 451.8751583748485 898.2622605844509 458.34400278658177 893.2889372713684 459.43091672685387 888.0743739817706 458.7657280634993 883.0037764846095 459.0469894186069 863.7800631302297 459.2223052909409 844.555293656137 459.17628070555963 825.3310800345248 459.22614067305597 824.7962943630837 452.37831604015184 824.731092867127 445.49941925359064 825.332747591966 438.65348451912007 793.130934938791 438.7478682703004 760.9290667003679 438.8425299477211 728.7272540471929 438.93752513663003L728.4237585928671 459.33619946418514 654.7988741473393 458.91708669392574C654.6977089958974 452.11584249888335 654.5965438444555 445.3146538890891 654.4953786930135 438.5134096940467 647.9263140790551 438.65448505358495 641.3572494650969 438.7958383393634 634.7881848511385 438.93752513663003 634.687631137425 431.2015594104629 634.5874109351998 423.46553809904765 634.487468659215 415.7295723728805 628.2609759289579 416.5298887742324 621.908804952871 416.73271934434865 615.662412703814 416.1792570295646 614.7354175221674 406.59202461725863 615.2384084317266 396.87905837387484 615.0559776476429 387.2424662613049 615.054754772186 376.4036208187697 615.0557553066508 365.56471979098626 615.0554217951625 354.72587434845104L634.4891362166563 354.72587434845104C634.6958577541357 346.6735729756598 634.3938631015071 338.5875758255037 635.1442639501147 330.56490138992035 638.0087941228659 329.0223718469979 642.6088624953261 330.18923404953296 646.1614268683784 329.77076050962626L653.3658864527392 329.71251272819984 653.6871691864393 319.9850943203244C659.7954320941046 319.79981757154087 665.90369500177 319.61453526423236 672.0119579094354 319.4292418398744 672.0455313992545 310.10637286727047 671.5971252032755 300.7566284272367 672.2481952136266 291.45596576122676 676.9701064498015 290.3681846910853 682.0206932576665 291.77076169648 686.86433618706 291.68266463685353 689.322371440858 291.84762497747664 693.5140549959318 292.62414533414056 692.3189165777161 288.89237412139124L692.3189165777161 259.67510019149654 712.2000922459722 259.67510019149654C713.2875064534767 253.96150922052516 712.6525561650585 248.02806191796128 712.8781211016251 242.2280025351311L712.8854583543671 228.94924262966043C720.2041456234605 229.09349746538686 727.5228884778018 229.23746325782338 734.8416313321432 229.3811400069701L734.8416313321432 209.09196861806373C762.4856204013721 209.0918630060924 790.1297206410973 209.09205199593578 817.7737097103262 209.09252447054416L818.1327904126969 214.51208615493192Z" fill-rule="nonzero"></path><path transform="matrix(1,0,0,1,0.746731,0.212244)" stroke="none" fill="#000000" data-view-type="laser" d="M-1271.276463429504 630.8962067447244L-1262.4182324295043 632.8571465465143-1263.103486429504 641.4944581771051-1254.6047264295041 641.4944581771051-1255.4871856697764 650.2106420777968-1245.041088429504 651.8861507828738-1245.041088429504 663.135993020239-1251.5176574295042 663.135993020239Q-1244.0030734295042 671.0258886758252-1247.7603654295042 671.0258886758252L-1247.7603654295042 671.0258886758252-1255.4871856697764 671.0258886758252-1256.1027083396968 679.3672867519354-1275.6360411966696 679.0481416166859-1277.280243429504 671.0258886758252-1317.7909373856623 671.0258886758252-1317.7909373856626 679.4125228717469-1337.534501045514 679.4125228717469-1336.6012234295042 673.3669422018429-1343.4191953784343 673.3669422018429-1343.4191953784343 665.888615426941-1350.0058995937093 663.1359930202389-1350.0058995937093 651.8861507828738-1343.4191953784343 651.8861507828738-1345.3582324295041 641.4944581771051-1337.534501045514 641.4944581771051-1337.534501045514 634.7720213392088Q-1335.5757571393226 634.4221831183743-1333.723630429504 634.7720213392085C-1330.723398367383 635.3392946736803-1328.7104194295043 634.7720213392088-1328.7104194295043 634.7720213392088-1328.7104194295043 634.7720213392088-1329.2733673749708 632.5440942227805-1329.0615194295042 630.8962067447244-1328.7373367859104 628.3812189308032-1328.698856429504 626.2952035261345-1328.698856429504 626.2952035261345-1328.702861429504 622.3741745261345-1328.727570429504 618.4530445261346-1328.710419429504 614.5320785261346L-1328.710419429504 614.5320785261346-1328.710419429504 614.5320785261346-1321.1465314295042 614.5320785261346C-1321.1756394295041 610.3216145261346-1321.2047484295042 606.1111375261345-1321.233857429504 601.9006745261345-1317.770982429504 601.9346645261345-1314.308096429504 601.9687575261345-1310.8452234295041 602.0029545261344-1310.7578474295042 599.3176955261346-1310.903640429504 596.6066885261346-1310.559098429504 593.9426515261345-1310.239390429504 593.5589645261344-1309.3638474295042 593.8889485261345-1308.823242429504 593.7888835261347-1300.0214184295041 593.9041065261345-1291.2148334295043 593.8754165261346-1282.417538429504 594.1703085261345-1282.146033429504 596.7917825261344-1282.230981429504 599.4377935261346-1282.1563574295042 602.0711405261344-1278.9331294295043 602.0221325261344-1275.709893429504 601.9730205261345-1272.4866694295042 601.9238025261345L-1272.4866694295042 601.9238025261345-1272.4866694295042 601.9238025261345-1272.4866694295042 614.7822935261346C-1269.8829884295042 614.6548395261344-1267.265042429504 614.6747145261345-1264.675755429504 614.3644035261345Q-1264.3249554295044 612.2862325261345-1271.276463429504 630.8962067447244Z" fill-rule="evenodd"></path><path transform="matrix(1,0,0,1,-1384.101457,517.228835)" stroke="none" fill="#000000" data-view-type="laser" d="M122.914688 94.698739L120.02375 94.8068C120.050315 99.55861 120.089546 104.310352 120.123438 109.062113 122.712206 109.026775 125.319688 109.185673 127.889493 108.809903L127.99875 94.507538C126.304096 94.57215 124.609383 94.63525 122.914688 94.698739Z" fill-rule="evenodd"></path><path transform="matrix(1,0,0,1,-1384.101457,517.228835)" stroke="none" fill="#000000" data-view-type="laser" d="M41.370313 109.256104L36.685 109.361175 36.685 116.73805 29.208438 116.584531C29.241847 118.740872 29.114195 120.894361 28.947655 123.043284 26.662618 123.001854 24.377577 122.960305 22.092544 122.918675 21.837542 132.652681 21.816665 142.390355 21.831563 152.127113L29.416186 152.127113C29.326067 156.359106 29.235949 160.59112 29.145834 164.823113 32.533723 164.928822 35.924432 164.978366 39.309373 165.152082 39.482153 167.766227 39.530309 170.387211 39.635152 173.004865 48.885725 173.058357 58.13912 173.296132 67.38816 173.081266L69.581875 172.9618 69.78125 167.578675C81.100285 167.576641 92.420682 167.42412 103.73867 167.6027 105.519352 167.434726 104.587484 169.884367 104.782321 171.045049L104.737669 173.013438C113.615291 173.08954 122.495019 173.372552 131.37189 173.145225 133.048648 173.177763 135.553619 173.070041 135.146844 170.7162 135.323506 168.855772 135.49214 166.994207 135.723335 165.139521 138.884667 164.795799 142.07033 164.910719 145.244688 164.887113 145.29058 160.576446 145.104672 156.252181 145.499289 151.954454 147.852373 152.031991 150.205468 152.109408 152.55856 152.186726 152.930843 148.342397 152.724685 144.466009 152.814017 140.60886 152.826883 134.678909 152.818563 128.748938 152.820938 122.818988L145.643438 122.818988C145.584303 120.760301 145.803591 118.664192 145.397608 116.638363L138.118228 116.638363C138.055931 114.102386 137.674774 111.536801 138.109455 109.019845 134.796965 109.102925 131.472339 109.001652 128.171471 109.311722 127.717994 110.666054 127.998485 112.413375 127.902053 113.923074L127.899063 118.285798C131.155514 118.188324 134.41198 118.090969 137.668438 117.993714L137.668438 128.231022C139.966878 128.167042 142.267193 127.958137 144.566011 128.072519 145.585455 129.12472 144.854038 131.340175 145.085449 132.85062 145.064546 138.578465 144.993331 144.30601 144.945625 150.033675 142.604035 150.070001 140.262438 150.106228 137.920846 150.142334 137.53887 152.775281 137.706375 155.446886 137.668438 158.098992 135.387388 158.135238 133.106335 158.171604 130.825289 158.20805 130.85569 160.296703 130.886194 162.385355 130.916803 164.474008 128.877065 164.812486 126.771748 164.5849 124.705414 164.660483 118.386295 164.66142 112.067322 164.608007 105.748301 164.579078 105.126376 163.246416 105.536836 161.641646 105.431145 160.203216 105.627844 158.973251 105.351574 158.040256 103.926892 158.407405 92.512432 158.254484 81.096704 158.237378 69.681563 158.164387L69.681563 164.456662C65.76772 164.781643 61.8349 164.480926 57.912293 164.541456 53.395189 164.52102 48.878051 164.506127 44.360938 164.488363 44.326836 162.449175 44.452335 160.396769 44.204029 158.369743 42.340808 157.967265 40.381827 158.238156 38.475124 158.194772 37.854619 158.19214 36.999269 158.430114 37.274004 157.510297L37.17626 150.033675C34.87242 150.075324 32.56857 150.116854 30.264726 150.158284 29.84703 145.841257 30.08056 141.488782 30.016486 137.157778 30.03832 134.17146 30.023857 131.180875 30.265524 128.202113L37.375834 128.202113C37.411495 124.912425 37.447049 121.622738 37.4825 118.33305L46.952813 118.226185 46.952813 109.062113C45.097612 109.213751 43.230238 109.191876 41.370313 109.256104Z" fill-rule="evenodd"></path><path transform="matrix(1,0,0,1,0,0)" stroke="none" fill="#000000" data-view-type="laser" d="M-1267.49 608.02L-1267.5 604.772L-1273.17 604.772L-1273.98 603.066Q-1274.73 601.509 -1274.66 598.74Q-1274.65 597.891 -1274.68 597.574L-1274.69 597.432L-1274.69 596.61Q-1276.57 596.602 -1277.71 596.439L-1279.57 596.171L-1280.14 594.37Q-1280.27 593.961 -1280.36 593.44Q-1282.14 593.355 -1283.25 593.032L-1284.69 592.612L-1285.22 591.206Q-1285.61 590.149 -1285.77 588.311Q-1285.81 587.827 -1285.84 587.62L-1286.17 584.985L-1283.59 584.338Q-1282.2 583.988 -1279.73 584.066Q-1278.71 584.098 -1278.27 584.073L-1278.19 584.068L-1278.1 584.069Q-1276.93 584.073 -1274.59 584.105Q-1269 584.182 -1265.55 584.002Q-1265.55 583.124 -1265.48 582.558L-1265.33 577.701L-1261.5 577.481L-1257.33 577.24L-1257.32 588.458L-1257.33 601.422L-1257.34 607.347Q-1256.88 607.355 -1256.35 607.345Q-1255.13 607.321 -1254.48 607.348L-1253.2 607.4L-1252.35 608.37Q-1251.02 609.883 -1250.82 612.89Q-1250.79 613.307 -1250.76 613.555Q-1250.6 613.548 -1250.31 613.532Q-1248.37 613.425 -1247.32 613.815Q-1244.36 614.911 -1244.75 618.122Q-1244.7 618.993 -1244.64 620.316Q-1242.83 620.306 -1240.38 620.297Q-1231.59 620.264 -1226.32 620.142Q-1226.36 618.775 -1226.26 617.989Q-1226.24 617.246 -1226.22 615.887Q-1226.16 612.089 -1225.97 610.141L-1225.75 607.773L-1223.39 607.451Q-1222.05 607.267 -1219.57 607.329Q-1219.08 607.341 -1218.65 607.342Q-1218.64 607.065 -1218.64 606.768Q-1218.62 605.35 -1218.59 604.626Q-1218.56 603.715 -1218.52 601.832Q-1218.42 596.836 -1218.12 594.282L-1217.99 593.207L-1217.21 592.461Q-1215.69 591.017 -1212.48 590.974Q-1212.54 589.855 -1212.42 589.078L-1212.36 585.228L-1212.29 578.191L-1212.25 573.827L-1218.48 573.719L-1218.68 566.852L-1225.58 566.993L-1225.68 561.137L-1225.68 560.969Q-1231.79 560.904 -1236.25 561.038Q-1236.35 562.987 -1236.52 564.126L-1236.82 566.151L-1238.82 566.608Q-1240.14 566.91 -1242.54 566.924Q-1242.88 566.926 -1243.17 566.932Q-1243.16 569.463 -1243.3 570.848L-1243.41 571.903L-1244.15 572.658Q-1245.99 574.523 -1248.31 573.691Q-1249.86 573.133 -1250.42 571.587Q-1250.77 570.629 -1250.57 569.612L-1250.65 553.934L-1254.05 553.997L-1254.61 551.665Q-1254.94 550.316 -1254.91 547.892Q-1254.89 546.829 -1254.92 546.373L-1254.93 546.275L-1254.94 543.395L-1254.95 535.615L-1254.95 533.401Q-1257.35 533.388 -1258.74 533.15L-1260.94 532.774L-1261.21 530.561Q-1261.39 529.077 -1261.49 526.377L-1261.7 526.373L-1267.71 526.267L-1267.91 520.326Q-1269.06 520.318 -1270.5 520.304Q-1276.14 520.25 -1279.73 520.316Q-1279.72 520.912 -1279.75 521.307L-1279.77 526.286L-1282.72 526.318Q-1284.29 526.335 -1286.55 526.556Q-1286.53 526.828 -1286.51 527.126Q-1286.45 527.914 -1286.42 528.445Q-1285.76 531.223 -1288.54 532.215Q-1289.29 532.486 -1290.38 532.395L-1290.4 532.399L-1290.41 532.399Q-1290.22 540.534 -1290.54 542.104L-1290.88 543.816L-1292.54 544.361Q-1294.18 544.898 -1297.16 544.859Q-1298.14 544.847 -1298.63 544.871Q-1300.7 545.139 -1302.12 544.314Q-1304.53 542.906 -1304.04 539.991Q-1304.07 538.609 -1304.1 533.322Q-1304.1 532.718 -1304.11 532.413L-1306.17 532.491L-1306.51 529.754Q-1306.62 528.832 -1306.7 527.091L-1306.72 526.617L-1313.31 526.617L-1313.42 520.32L-1325.48 520.249Q-1325.51 521.242 -1325.51 522.627L-1325.51 525.951L-1328.3 526.15Q-1330.58 526.314 -1332.43 526.379Q-1332.43 526.576 -1332.44 526.773Q-1332.53 529.587 -1332.78 531.073L-1333.18 533.533L-1338.19 533.635L-1338.29 553.931L-1342.65 553.931L-1342.6 556.239Q-1342.4 565.633 -1342.36 570.346L-1342.33 573.422L-1345.41 573.37L-1345.55 573.376Q-1346.86 573.438 -1347.72 573.025Q-1350.07 571.897 -1349.58 569.371Q-1349.59 568.809 -1349.6 567.959Q-1349.6 567.388 -1349.61 566.891L-1356.11 566.891L-1356.55 564.41Q-1356.79 563.077 -1356.8 560.987L-1367.18 560.91L-1367.18 566.891L-1374.54 566.891Q-1374.56 567.81 -1374.56 568.952Q-1374.55 569.947 -1374.56 570.455L-1374.58 572.916L-1377 573.375Q-1378.45 573.649 -1381.02 573.779Q-1381.01 575.553 -1381 577.989Q-1380.98 585.891 -1380.88 590.761Q-1380.36 590.776 -1379.76 590.786Q-1378.54 590.805 -1377.91 590.827L-1375.1 590.928L-1375.02 593.741Q-1374.79 601.909 -1374.76 607.345L-1367.93 607.345L-1367.33 609.554Q-1366.97 610.868 -1367.01 613.189Q-1367.03 614.122 -1367 614.512L-1366.99 614.613L-1366.99 615.485L-1366.98 620.311Q-1365.04 620.301 -1362.44 620.292Q-1353.91 620.264 -1348.73 620.153Q-1348.7 619.513 -1348.67 618.751Q-1348.63 617.467 -1348.59 616.817L-1348.45 614.174L-1345.81 613.988Q-1343.66 613.837 -1341.96 613.772Q-1341.8 611.555 -1341.49 610.266L-1341.34 609.666L-1340.97 609.172Q-1339.44 607.121 -1335.9 607.124L-1335.9 577.218L-1328.14 577.716L-1328.01 580.389Q-1327.97 581.09 -1327.94 582.45Q-1327.92 583.311 -1327.89 584.028Q-1323.81 584.106 -1317.34 584.056Q-1313.73 584.027 -1311.77 584.028Q-1309.5 583.616 -1308.21 585.394Q-1307.35 586.585 -1307.57 588.284L-1307.57 593.018L-1311.12 593.251L-1312.65 593.342L-1312.65 595.467L-1314.76 596.122Q-1316.22 596.576 -1318.77 596.586L-1318.79 598.199L-1318.87 604.564L-1321.76 604.629Q-1322.53 604.646 -1324.02 604.649Q-1325.3 604.651 -1326.3 604.679Q-1326.31 605.199 -1326.3 605.81Q-1326.29 607.146 -1326.31 607.842L-1326.31 614.706L-1329.12 614.879Q-1329.96 614.931 -1331.59 614.983Q-1334.6 615.08 -1336.04 615.298Q-1336.09 616.398 -1336.15 616.986L-1336.39 619.764L-1339.18 619.725Q-1340.6 619.705 -1342.71 619.81Q-1342.81 622.171 -1342.99 623.495L-1343.34 626L-1345.87 626.08Q-1351.4 626.255 -1362.42 626.292Q-1367.44 626.309 -1369.95 626.332L-1372.98 626.361L-1372.98 620.474L-1372.99 615.516L-1372.99 614.8Q-1373.02 614.24 -1373.01 613.345L-1380.77 613.345L-1380.76 610.328Q-1380.73 605.25 -1380.94 596.761Q-1382.98 596.705 -1384.16 596.567L-1386.74 596.267L-1386.81 593.676Q-1386.97 588.443 -1387 578.008Q-1387.02 573.283 -1387.04 570.946L-1387.06 568.124L-1384.25 567.927Q-1383.52 567.877 -1382.12 567.822Q-1381.26 567.789 -1380.55 567.743Q-1380.52 564.999 -1380.27 563.421L-1379.87 560.891L-1373.18 560.891L-1373.18 554.866L-1350.62 555.032L-1350.73 558.117Q-1350.74 558.361 -1350.76 558.815Q-1350.81 559.972 -1350.8 560.891L-1348.51 560.891Q-1348.55 558.806 -1348.6 556.371L-1348.72 550.992L-1348.78 547.931L-1344.26 547.931L-1344.16 527.755L-1338.48 527.64Q-1338.46 527.143 -1338.44 526.572Q-1338.36 524.263 -1338.21 523.05L-1337.88 520.381L-1335.19 520.418Q-1333.64 520.439 -1331.48 520.334Q-1331.45 519.024 -1331.37 518.149L-1330.96 514.217L-1307.52 514.354L-1307.41 520.617L-1305.45 520.617L-1305.18 520.668L-1305.26 520.625Q-1303 520.443 -1301.8 521.733L-1301.19 522.382L-1301.04 523.255Q-1300.85 524.345 -1300.74 526.282L-1298.19 526.186L-1298.13 529.241Q-1298.12 529.808 -1298.1 533.288Q-1298.07 537.141 -1298.05 538.857Q-1297.62 538.853 -1297.09 538.86Q-1296.68 538.865 -1296.32 538.86Q-1296.31 536.497 -1296.43 531.585Q-1296.48 529.842 -1296.48 529.417L-1296.5 526.399L-1292.56 526.399Q-1292.64 524.414 -1292.34 523.169L-1291.86 521.141L-1289.79 520.883Q-1287.54 520.602 -1285.73 520.46L-1285.73 520.021Q-1285.81 517.186 -1284.85 515.734L-1284 514.453L-1282.47 514.391Q-1278.44 514.227 -1270.45 514.304Q-1266.82 514.339 -1265.01 514.337L-1262.11 514.334L-1261.91 520.368L-1261.59 520.374L-1255.73 520.477L-1255.59 523.285Q-1255.56 524.002 -1255.52 525.411Q-1255.49 526.513 -1255.44 527.396Q-1254.78 527.407 -1253.99 527.397Q-1252.6 527.378 -1251.87 527.397L-1248.95 527.472L-1248.95 535.609L-1248.94 543.361L-1248.93 546.075Q-1248.88 546.754 -1248.91 547.901L-1244.68 547.822L-1244.61 560.995Q-1243.77 560.932 -1242.58 560.925Q-1242.42 560.924 -1242.25 560.922Q-1242.22 560.363 -1242.2 559.713Q-1242.16 558.572 -1242.13 557.982L-1241.98 555.289L-1239.28 555.153Q-1232.99 554.835 -1222.69 555.01L-1219.8 555.059L-1219.69 560.871L-1212.85 560.731L-1212.65 567.82L-1206.21 567.931L-1206.29 578.248L-1206.36 585.314L-1206.42 589.83L-1206.54 590.23L-1206.51 590.188Q-1206.51 590.379 -1206.47 590.918Q-1206.1 596.177 -1209.99 596.776Q-1210.87 596.965 -1212.33 596.973Q-1212.46 598.973 -1212.52 601.956Q-1212.56 603.873 -1212.6 604.857Q-1212.62 605.505 -1212.64 606.853Q-1212.68 609.205 -1212.77 610.381L-1212.95 612.641L-1215.18 613.083Q-1216.78 613.4 -1219.72 613.327Q-1219.95 613.321 -1220.15 613.318Q-1220.19 614.49 -1220.22 615.985Q-1220.25 617.559 -1220.27 618.35L-1220.28 618.53L-1220.3 618.707Q-1220.35 619.003 -1220.32 620.022Q-1220.25 623.295 -1221.34 624.818L-1222.2 626.023L-1223.68 626.072Q-1229.25 626.255 -1240.36 626.297Q-1245.12 626.315 -1247.48 626.337L-1250.37 626.363L-1250.5 623.476Q-1250.53 622.959 -1250.57 621.859Q-1250.63 620.51 -1250.68 619.548Q-1251.07 619.553 -1251.39 619.535Q-1253.83 619.889 -1255.41 618.178Q-1256.71 616.769 -1256.68 614.588Q-1256.75 614.076 -1256.8 613.35Q-1259.68 613.353 -1261.31 612.789L-1263.34 612.091L-1263.34 608.007L-1267.49 608.02ZM-1292.4 529.295Q-1292.48 528.865 -1292.43 528.493Q-1292.41 528.781 -1292.41 528.967L-1292.4 529.295ZM-1343.57 569.557L-1343.56 569.715Q-1343.56 569.635 -1343.57 569.557ZM-1274.59 590.105Q-1267.27 590.204 -1263.32 589.862L-1263.33 598.772L-1268.67 598.772Q-1268.64 597.751 -1268.69 597.13L-1268.69 590.607L-1271.66 590.579Q-1272.27 590.573 -1273.46 590.598Q-1274.05 590.611 -1274.56 590.611Q-1274.57 590.427 -1274.58 590.286L-1274.59 590.105ZM-1329.4 598.861L-1329.9 598.918L-1329.9 589.98Q-1325.81 590.107 -1318.65 590.064L-1318.65 590.586Q-1318.91 590.588 -1319.21 590.584Q-1320.05 590.573 -1320.59 590.585Q-1322.37 590.352 -1323.6 591.425Q-1325.03 592.689 -1324.74 594.714L-1324.79 598.118L-1324.8 598.653Q-1327.77 598.678 -1329.4 598.861Z" fill-rule="nonzero"></path></svg>