<?xml version="1.0"?>
<!-- Created with xTool Creative Space (https://www.xtool.com/pages/software) -->
<svg xmlns="http://www.w3.org/2000/svg" xmlns:xlink="http://www.w3.org/1999/xlink" xmlns:xcs="https://www.xtool.com/pages/software" version="1.1" preserveAspectRatio="xMinYMin meet" width="234.59687526051448mm" height="236.05999804870527mm" viewBox="-1919.7185418757808 37.04886077475277 234.59687526051448 236.05999804870527" xcs:version="1.1.10"><style></style>
<path transform="matrix(0.230896,0,0,0.230896,-1919.78286,37.048861)" stroke="none" fill="#000000" data-view-type="laser" d="M573.3348576016551 0.8289458307277755C563.9100889003764 1.1129806656856829 554.4356697977782 1.0109426148345335 545.0557159804731 1.9937874199483758 543.1022533212486 9.063089273509291 544.2928267706316 16.68997808616828 543.9890526630793 24.01266104865502 542.817044146364 27.737641392111527 545.8101430349595 27.45682735710011 548.5890975839503 27.381980456467318 555.6434266034437 29.217655094056767 561.865269502724 27.85155236501737 569.1020529535015 27.689614343043758 578.283836908148 27.583448832743755 587.4666570450831 27.650438017689424 596.648959090874 27.631527690925964 596.9109405127936 33.400964768234104 596.2088406638719 39.36131843218172 597.4891302297261 44.970199063900765 599.5339496273789 41.35112518517215 596.3612458087922 32.230001068659476 600.3198075446135 31.54053400880406 602.1763008113476 33.67424057709738 602.5592565154391 42.15024623569852 603.3743002337974 41.888359797155346 603.5345630944048 39.138314734011146 605.8450769005103 28.23746118863076 605.6886133749605 34.15374256591136 605.8905825726763 56.01714567709453 606.236235714385 77.89991676221854 607.4053947298073 99.73254525943597 611.0482662617597 102.90487777936917 617.2336700838974 100.6705838154285 622.0611570170743 101.05576731144001 624.7048034289038 101.02704779234622 628.0862116300808 101.72027101299713 626.8539318435895 97.89857168776999 626.9400213220515 74.95742674355944 627.3510402964541 52.012456559734204 627.0237793903647 29.073548042296153 621.2082062966651 26.308063863054656 613.236942300453 27.790823448064174 606.6469956432154 28.21255827429931 604.1332174115335 26.44671368809628 606.4357008049038 16.418247915885246 605.5343085625113 11.771453904102202 605.457199330549 7.847509291566212 605.3668787744092 3.923823724602329 605.2838114942883 0 594.653617397493 0.6364058918364321 583.9792128563921 0.5439179877434697 573.3348576016551 0.8289458307277755zM462.3770042177805 1.7269704806828656L446.8342698916347 2.158713100853589 446.8342698916347 25.472814590072375C467.41398130511664 25.624373519457123 487.99375316256544 25.77548343651685 508.5734645760474 25.926144341251643 508.81601758005934 17.786733864187966 508.7345909218951 9.639137547045863 508.6347720281117 1.4981468919924055 493.7313967133242 0.409421526707888 478.68174699882286 1.5502841308041866 463.72991289234744 1.689693822857322L462.3770042177805 1.7269704806828656zM513.6922050807915 27.415656380840602C514.0500333643889 36.17746701914237 512.8851054266443 45.23916608141474 514.8933130501064 53.79254001755049 521.601643533795 53.39550086918908 533.022272019599 56.525850736736885 536.6458014821678 49.903618366362736 537.8615887005684 42.477507141787925 536.836286326187 34.66207632690035 539.0691728091859 27.444151393771875 530.7758288183267 26.389369633285213 522.0219018002692 26.53842445547295 513.6922050807915 27.415656380840602zM423.6902749947632 28.18156778902346C422.66529210992064 52.456106641369246 423.2394838901905 76.7830245083941 423.08842578224517 101.0813092048493L444.24381417061034 100.59603049977741 444.24381417061034 28.063270311096687C437.4005468484137 28.037054899199916 430.4900572002563 27.327779487931082 423.6902749947632 28.18156778902346zM446.11498668643026 102.46720301559728C445.15007646975835 110.28252157740357 445.67380617258266 118.20404018891949 445.53904203112256 126.06884508984976L467.98965827999984 126.06884508984976C467.887240295643 118.46583164408625 468.3042950318754 110.82531703433463 467.46552273911266 103.2572920105097 461.1787025754967 100.66724212754835 452.95705376414287 102.0856893318572 446.11498668643026 102.46720301559728zM589.0934632378865 102.96888794023565L581.1062247647282 103.79783377096348 581.1062247647282 126.06884508984976C588.6763998668015 125.9173379695795 596.322475321501 126.50498284989382 603.8253849233516 125.4212311595937 604.1894303006796 117.58208040515396 603.5338723062125 109.73195475330951 603.328017424915 101.89125836028953 598.5680550375329 102.01842383163464 593.8287299473948 102.48981769404182 589.0934632378865 102.96888794023565zM471.0014947983109 127.94347154663106C470.3583968958618 134.925336884755 470.9358958246021 141.95111908220267 471.01185662119485 148.95120395889788 478.9845108286438 148.74374299505345 487.14342743728673 149.78210126626882 494.96061976206465 148.16974981638887 494.6000628651077 142.18232589015653 498.55886637679623 130.66425309498007 492.62009984385713 128.0076457696932 485.5395208730573 127.72632227838997 478.17240296010266 126.18399084664932 471.2353179665429 127.59324193314856L471.0014947983109 127.94347154663106zM558.4129691633149 127.48582436925008C555.689536715278 131.55622471340038 557.5278104434408 137.4108446096682 557.2216185772158 142.3261566266402 557.793763897466 144.45871475956383 555.8484179995007 149.10276288828257 559.5183166194759 148.14471737927138 565.5929352852779 147.95456929449577 571.9922244014482 149.47129838886033 577.7894052595285 147.38538572861987 579.8331884748926 141.81765016860314 582.0330898217106 129.85826733679303 574.6957103404333 127.58286284055961 569.2972869663427 127.1467078108108 563.8102700065929 126.97535779971744 558.4129691633149 127.48582436925008zM538.393927351239 150.8724586186576C532.4407147102289 152.97640085071626 528.4921694031956 151.1249417029334 522.2700674583433 151.10991705975144 520.3611606375205 151.75907662858774 515.246305816358 149.52171729204386 516.2879280617818 152.82742374220018 516.6327177182502 157.06887187760972 517.7530034690692 164.33309688932533 515.0660100981747 166.35215852225846 513.9782777409166 161.5006494296953 514.3549300027536 156.47969862841992 514.1861186382667 151.54165967992216L497.7798990717795 151.54165967992216 497.7798990717795 172.26530544811666C515.6663913857841 172.21516286021003 533.5563376407501 172.61634673772508 551.4368719065965 172.56806064308515 557.6544837281989 171.69597508974996 554.1477838186483 162.71637620412926 554.93079223459 158.018420691856 554.5583710504308 155.7464615017316 555.4278143389304 152.22081672600794 554.3381823141435 150.67279492653338 549.0228262201738 150.58802658048907 543.7028936544301 150.5376767561248 538.393927351239 150.8724586186576zM754.6667580733568 174.4084758146441L654.934212813921 174.85576116914095C654.7770585001788 184.707255641344 654.6199041864367 194.55877601810428 654.4627498726945 204.41027049030728 636.8751098003721 206.4172087904661 619.0951715650256 204.9392588182453 601.4563268179509 206.3799062280834 598.791179623637 206.523158429456 595.2191138813927 205.82125718213965 596.5294527336107 209.66933598145928 596.952646849902 220.94506300908145 596.2428619823414 232.36088188209666 598.034852901622 243.50801868772723 610.3296738447475 245.09040719976733 622.8883758773214 244.15033945346002 635.2912188240139 244.33800070074344 641.7941261690252 243.44122810438685 654.7486498357716 247.34773894992034 653.2119051535359 236.57829058841511 653.6889807488246 227.81262017108904 653.7932034173338 219.03205463336704 654.0707275735796 210.25865602313988L882.8943162640604 210.24138631833304C882.8554594282449 221.91959245133083 883.0392090873896 233.597850393443 883.5341588271534 245.26607463706242 899.0075552884997 245.223064437241 914.4809517498462 245.17960522509466 929.9542618626687 245.13568836577085L929.9542618626687 205.2711652749277C914.1360757448539 205.54805045209562 898.3178896270391 205.82493562926348 882.4997035092241 206.1018380761362 882.3429809381022 195.39867084167955 882.1866901096004 184.69546043296097 882.0308310237189 173.9922759287995 839.5760249088995 173.95657081411142 797.1212187940802 174.26086301280773 754.6667580733568 174.4084758146441zM133.60499895777843 175.01895987956553C130.677740818759 180.33557666198615 132.76341170313202 187.7025305127452 132.09389978718093 193.79544643079007L132.09389978718093 209.58600102091393C168.86948576260295 211.4067632684026 205.69621596881052 209.5918209114338 242.49452887575842 209.81290767237087 282.03217099401786 209.75933704806002 321.578024856913 209.45418136412334 361.10976937098087 210.21982509188175 365.70408074985596 215.50421660513283 363.09088946245356 226.6346449713628 364.37243971675866 234.36894271306787 363.3868490285806 241.2704348450209 366.20726813881254 245.69100435868685 373.53729072584224 243.7772361159609 388.8145378799927 244.00297706234338 404.0925449011546 244.1757000149689 419.3702583373349 244.36632301662664 419.9026142577102 256.04817305733866 419.7849125845993 267.78309290092204 421.1138768134516 279.4097921393335 426.62475187039195 283.39183203883954 436.5337199201921 279.4457131253316 443.7146445107719 280.75093151007457 454.11461617278746 280.84015543995906 464.50422601191883 281.3448884674958 474.8975402027314 281.6861551041835 475.0090765912263 296.01653024833286 474.4762889282308 310.3974538184516 476.0105726775315 324.6704503683802 480.8485250518213 324.40580077706795 487.8198990442751 323.9698184443672 486.7450239822457 331.0274718820359 487.5859377184046 343.17260765874835 486.68080658492147 355.48904163743964 488.5692056312862 367.52796009473764 495.2722084110419 369.2572878901267 503.04080378649326 368.2606704954294 510.1561466730692 368.67773386651436 520.2675588374675 368.71305041284427 530.3790573503896 368.6963333385912 540.490469514788 368.70819762579356 540.5800992827354 339.83134288639474 540.9999258065895 310.95141413954036 540.675255356221 282.07645043281786 534.1611227030852 279.51533594026034 526.1398629114575 281.1837793913529 519.0243991369479 280.6386784288302 506.6180936144418 280.62696956897116 494.21173628282133 280.6351467741972 481.8054221254629 280.632703110967L481.8054221254629 244.3887736328755 421.0937748770565 243.9345803964559C420.7561262435257 230.81621040535472 420.67791175045556 217.6928840089739 420.4979700612208 204.57174223025115L364.37142943902745 205.7806215667292 364.37142943902745 174.45683098810323C287.449953707197 174.6143134262367 210.52195002694953 174.28545507245266 133.60499895777843 175.01895987956553zM97.98623279369417 206.3392965172301C92.47572040055479 207.02502468599485 81.32879083138192 204.2578567105347 84.47647084770335 213.4859580134732 84.63832252115293 223.6347418190734 84.66840634692647 233.78497627987738 84.75073102974062 243.9345803964559 70.7127578925282 245.31300505987494 56.58992142589494 245.06287929030523 42.502125190314814 245.22980825696808 41.771875722558036 263.91557704884235 41.377366585950824 282.6143067541742 42.19751350207957 301.30494560280397 43.8301136808455 307.1740116071427 39.2406291844639 319.1697126281615 45.800319318880156 320.9951722353578 58.43659686544635 321.68870631069524 71.0916724856948 321.92496450730505 83.73872632806047 322.34594810138117 84.06224834305914 296.36290871764345 84.44305396890212 270.3805514872455 84.60221156840191 244.3956815147982 99.11191532726525 244.24198977686987 113.62166226039068 244.08828940408907 128.13136601925402 243.9345803964559 130.25528066492194 231.34377398264607 129.4715123819688 218.4584845624702 130.00743449638668 205.72886426142313 126.72426501100324 205.27885892841917 122.45069522465303 205.8099368906388 118.7957348993358 205.73803447467557 111.85833905108944 205.90503252015756 104.92182395778826 206.1095662690373 97.98623279369417 206.3392965172301zM563.1716363228364 244.6426382935359L541.3505008141681 245.4741745799847C541.5067052941457 257.04975549216783 541.6623916829794 268.6253709437607 541.8176463291927 280.2009604907963 559.9018767632355 280.40052056469153 578.0162428321662 281.42461405973654 596.0816492879698 280.62579522904423 596.9214750327257 268.2752967576215 595.7960083704646 255.87165076965564 595.5497423799194 243.5028377762852 584.7544499051706 243.80410777664034 573.9635612051478 244.24353541545005 563.1716363228364 244.6426382935359zM930.81774710301 283.654901452162L930.81774710301 322.079994647356 975.7189796007648 322.079994647356C975.8246701941827 382.6101286633901 975.4478452352975 443.1436820809762 976.0388145337873 503.67113065791295 975.6472239772924 509.3926270346774 975.6539591621671 516.7626030837775 983.5003631926257 514.4977503771812 993.9725394904386 514.577968156009 1004.4929846131866 514.9447248769916 1014.9367522465922 514.1130677026091 1016.9335618648817 507.1501904049203 1015.8109447039138 499.43426762912964 1016.2328435923447 492.1592576867622 1016.4770372183133 435.1765110048034 1016.1324202588929 378.19145018240056 1015.1578044681195 321.21650940701454L975.1283556963714 321.21650940701454C974.0073791573601 295.90350003037213 973.9295791372052 270.5631354413157 973.9920091200819 245.22980825696808L930.81774710301 245.22980825696808 930.81774710301 283.654901452162zM14.592555251998874 320.9816414216416L0.27856042285890226 321.25709321331055C0.44584341847019004 384.34867848114607 8.432471076957881e-8 447.44680033225086 0.9844596068380156 510.53240164737076 3.430506056267575 515.9648808793406 14.334053675597886 512.281874553417 20.212790714628397 513.6023248177995 26.99665025228967 513.7008743882798 33.78058750362254 513.7951497068202 40.564464310988626 513.8920154810817 40.63143622622948 449.52286062589894 40.66370466966106 385.1532394886865 40.99620693115935 320.78476678684376 32.1943651171153 320.6842312003108 23.392911871429476 320.8175533214195 14.592555251998874 320.9816414216416zM41.784568955591055 553.2781677487757C42.10224517551262 566.3797861262143 42.05098005679355 579.5170146349647 43.05475574413333 592.5831524038775 56.588349882757484 593.554771900867 70.20552939264678 592.7797075491364 83.77585619339516 592.7826174943964 83.90694188773136 566.7338841535735 84.038485229245 540.685073099079 84.17046894823119 514.6363397582561 69.83518920791676 514.6370737207103 55.49986629334029 514.637367305692 41.16458655302591 514.6372032434964L41.784568955591055 553.2781677487757zM932.3288462736076 515.2321445740915C929.7267335018386 521.3337644233591 931.4035354900576 528.9672502632543 930.8472782982298 535.6789483393802 930.9446794333402 554.4544677871355 930.5131958587418 573.264897943158 931.4783133118714 592.0167060862136 944.1872617762646 593.8475106670475 957.1865139784608 593.8249046234554 970.0314613682077 593.8693741133329 977.1109178081953 592.4219569792106 972.4442118267699 580.9245905600975 973.9539294209827 575.383873453251 974.0221447549699 555.1351013929824 973.9803520693373 534.8860702871415 973.9920091200819 514.6372032434964 960.1052667878629 514.7908863465724 946.1992687347841 514.5277219498735 932.3288462736076 515.2321445740915zM97.33861886343806 593.8472947957373L84.60221156840191 594.1236100726467 84.60221156840191 641.3856112174949C99.58337826849169 641.9339675193737 114.5690005524217 642.4318272043973 129.53021210860715 643.4027127389325 129.3769262087418 626.8171990971406 129.2240893212013 610.231625011382 129.07170144598587 593.6461027347378 118.49343735154463 593.5753746587014 107.91498329035056 593.6071163761364 97.33861886343806 593.8472947957373zM884.1895441245725 617.8236894642981L884.1895441245725 642.4330188140291 929.0907766223271 642.4330188140291 929.0907766223271 593.2143601145672 884.1895441245725 593.2143601145672 884.1895441245725 617.8236894642981zM847.9231640302322 643.2438314547096L837.1295985259641 643.7282466745412C836.4705002420116 658.2643558120543 836.9481802769684 672.8133049750911 837.7409460761261 687.3342513117838L881.6284469017199 687.3342513117838 881.1673457833775 642.8647614341997C870.0844263750711 642.7892064756699 858.9986574654714 642.7502114822161 847.9231640302322 643.2438314547096zM130.79780844142846 644.1617162651926C130.2785602270015 658.542372154887 131.20463951241527 672.9465493825281 131.49118708942262 687.3342513117838L175.09114732998273 687.3342513117838C175.25216142274917 672.8719701623199 175.793860253425 658.4033423963396 175.4831696290978 643.9441179846266 161.35444419312546 642.7761592136883 147.05438601576452 643.2740879775312 132.87740038970952 643.8199488070654L131.39739532261677 643.98113559688 130.79780844142846 644.1617162651926zM812.5202691762332 688.3151705448116C805.9158159669577 688.8464643783414 798.8435264544652 688.3480261582066 792.5574402533035 689.8313988177367 791.1223277838561 702.5748435174817 792.078292293438 715.5044210956347 791.8851306451737 728.3324441746712 792.4105614139215 730.4106804511249 790.3713546703312 735.0629662290365 794.0641356491752 733.9624542902213L835.8628656783832 733.9624542902213C835.7089926085545 718.5636629536403 835.5555512813459 703.1648025382402 835.4026280452812 687.7659939319544 827.784270466797 687.4874422282727 820.1379359665253 688.1158954210456 812.5202691762332 688.3151705448116zM176.27412210925047 703.9563421883564C176.41253879327724 713.9618910622888 176.65405561500074 723.9665764509808 177.1220646152659 733.9624542902213L222.6527778532294 733.9624542902213C222.70532956495663 718.9954055738111 222.75742362950643 704.0282877785817 222.80906868173122 689.0612217924667L176.06170474012652 689.0612217924667 176.27412210925047 703.9563421883564zM244.56285234165307 735.4726899755785L221.8963647826904 735.7179197838354C221.75926059622896 750.10928289051 222.2605742222139 764.4946016005024 223.02753044753763 778.863686787976 237.81597587683564 779.0261083616844 252.66788747129874 778.3170142823159 267.39426558152104 779.9456337941239 267.9269323565828 793.2699881893086 267.7576806146235 806.6459790018657 269.1127998114058 819.9186106311538 274.37948124237755 824.1028010602764 284.07591966997245 820.1866364497558 291.0588298252371 821.3395619426598 298.227423846585 821.3010505009405 305.3766844334016 821.8537674032832 312.52950257940824 822.2434582922492L312.994057638712 859.5995567599005C327.2415554694933 859.753084435633 341.4890878396841 859.907043853986 355.7365770356131 860.0615213634832L355.7365770356131 895.4903207746922 396.7521259518313 895.3124428151818C396.9063962248707 909.1687904669409 397.0606751327625 923.0251381186999 397.21495404065433 936.881485770459L440.3581305890739 936.881485770459C440.5107084310422 950.7585570679862 439.97385375256476 964.6651595607332 440.77789666896103 978.5190031052953 444.893085992528 982.6182265867681 453.9020347414678 979.287073226579 459.91017367861593 980.3912118034036 468.21596049178856 980.4281689716902 476.52181638378045 980.4550233626646 484.8276204666579 980.4874904077017 485.3637411826811 993.7503646537739 485.0706052132899 1007.0799863089248 486.50285954659194 1020.2809486632648 491.05833135935643 1023.999979593415 499.59193148348834 1021.4026159904681 505.68055587988874 1022.335439095609 514.4161511062937 1022.3722235668474 523.151944934304 1022.3542630738484 531.8875660652662 1022.3665245642612 531.806139407102 1008.2352432119776 531.973137452584 994.0960177954826 533.0170047596328 979.997894276428 547.230230861225 980.3929387738842 561.443543311341 980.7875515287203 575.6567694129334 981.1817325409361 578.1587178968225 966.715591612448 575.5233609433005 951.8124408038229 577.8077111466239 937.3132283906298L618.6678327195806 937.3132283906298C619.1805702552955 923.3535215556019 619.6937395336304 909.393814720574 620.2074269031093 895.43419423407 632.2107352290957 895.2396510094211 644.2952111676742 895.9526307723711 656.2294406744331 894.5905691542564 658.5465169683653 888.7276770693861 657.3005941150768 881.8747128079406 657.8278382028292 875.607018842398L658.0885243968883 860.0312993800711C671.8832192024869 859.8646467286852 685.7148711763722 860.4795345683324 699.4783941647944 859.464507668311 703.4688185059844 854.9870776515686 700.941310858981 845.9909430235954 701.9941584125294 839.7393962320474L702.4259010326999 821.6062061848772 744.3049351892597 821.1433780960541 744.3049351892597 778.5951428782299C730.2453231119242 779.0704915030377 716.1334701775482 778.9078108837574 702.124544683821 780.1718669270934 700.6122366338867 792.2927819428143 702.0571928350743 804.6633305415177 700.2530267739049 816.7300186841452 694.5706894527899 819.7733724137286 686.6577107103011 817.908589688687 680.0828750447694 818.6020546852053 672.7937643884269 818.6428975370734 665.5045673835607 818.666729729707 658.2154567272183 818.7005783511282 657.5484143790546 830.4005443121827 656.9515733809307 842.1119946269334 657.0929259147746 853.834929295381 642.4962260179469 855.5884951214664 627.7332188638292 855.301386279053 613.0551786573612 855.941833281814L613.0551786573612 895.1656503243239C601.3318122462936 895.6338320216369 589.5888447202702 895.7900365016148 577.8862883034949 896.6387561443464 577.0674452500791 909.7386907255664 576.9497522118206 922.873510110496 576.5142102565924 935.991232487667 562.1728429453335 937.7684578093376 547.6496256424588 937.4458597235462 533.2656885088511 938.7846072401715 533.3252689904347 952.1678513287475 533.7732451331239 965.5467779911219 534.0462791661198 978.9271725784047 517.6079379486919 979.238977098692 501.16978669801676 979.8186347405331 484.7291831492589 979.813108434995 484.18517881299147 965.7781056870092 484.2014468749195 951.7244516578321 483.96413522631644 937.6802096177748 475.32706366583443 936.0534034249715 466.3786020579804 937.349149376628 457.6197618089054 937.3023484766013L441.49447716536326 937.7976436104611C441.15364227129567 924.5234577077406 440.12495503477214 911.2083426046274 441.0789680677109 897.9585069856842 441.62165990641313 893.7680994628313 437.50196318989174 895.2425868592384 434.82274118616033 895.0704079023142 423.2980799986001 894.9701572659105 411.67779645552446 895.988120015749 400.230296309041 894.7957332473616 398.6705915542648 888.4649185107503 399.60199854361144 881.1162273728246 399.0447915180191 874.3910589269494 398.85600773992326 867.7335877239168 398.66769887870964 861.0761165208843 398.4790964325142 854.4186453178518 384.51140235901323 854.6368480380861 370.55854296194116 855.3909296984763 356.60006227595454 855.9142017541232 356.7340579155507 843.3821814154757 356.06638522316143 830.8635450980537 355.4576713029828 818.35086682879 341.5121169910441 818.8623091366443 327.54106395995814 818.9826789791479 313.6256798223169 820.0616901354784 311.09622933352273 812.9986399150577 312.30447832577534 804.6749875922624 311.73067511386364 797.1244999536686 311.68189683263677 791.3255921251077 311.7096924225233 785.5262525539265 311.69882977819975 779.7271720283175 297.9517475487535 779.2683159716 284.11974154591974 780.3645968327376 270.4233718046387 779.019977616478 268.61633897247145 771.9495877715141 269.8562692381921 764.2877105369165 269.55988656429724 756.9916056501276 269.2139484724594 749.8144890294574 270.5912678747708 742.1559793872973 268.6696332815053 735.2663170031369 260.6978598290016 734.9548578769458 252.57965654944064 735.5497992075409 244.56285234165307 735.4726899755785zM754.2652374365983 735.4718264903382C748.3028718520405 734.7810382980651 742.4576812145973 736.4690655944086 744.6621590331889 743.6864206272783 744.7599919109197 755.4535657400313 744.5903170611926 767.2768373934065 745.6804671771237 778.9940730592676 759.2887355193324 780.2265255428068 773.0836030219792 779.7557533897728 786.7466163284258 779.2394755645726 791.8690698197034 776.2089014165464 788.3214407097606 765.7340483144883 789.7196823594455 759.7344665160721 789.9380577767278 751.431883233141 790.1350187600498 743.128781859066 790.3442412337844 734.8259395305628 778.3170143666406 734.9879293616508 766.2884922716363 735.1053633543372 754.2652374365983 735.4718264903382z" fill-rule="nonzero"></path></svg>