<?xml version="1.0"?>
<!-- Created with xTool Creative Space (https://www.xtool.com/pages/software) -->
<svg xmlns="http://www.w3.org/2000/svg" xmlns:xlink="http://www.w3.org/1999/xlink" xmlns:xcs="https://www.xtool.com/pages/software" version="1.1" preserveAspectRatio="xMinYMin meet" width="151.93970402114928mm" height="135.0073947110286mm" viewBox="-3086.557628096831 306.02406374786216 151.93970402114928 135.0073947110286" xcs:version="1.1.10"><style></style>
<path transform="matrix(0.246909,0,0,0.246909,-3135.600255,305.531877)" stroke="#000000" fill="none" vector-effect="non-scaling-stroke" data-view-type="laser" d="M342.97033430986437 3.2547794265869356C323.77588403518837 5.1206599171583775 305.1713179165896 11.08216233664956 288.16066316710317 20.106254600308944 270.6601313150494 28.33654037205406 255.19932346224846 40.40596651917508 242.37597252182331 54.835865973544514 220.3674844509478 78.97349089014159 204.7203412919863 109.32258337346087 200.43042225191925 141.88939383911912 193.82821255202384 185.60254556461103 205.97186274725664 230.1198153692058 226.46759172094357 268.61196906294475 240.6942471271218 295.4115661454062 257.99392508745086 320.47225979958483 277.0339357250309 344.0623935379753 299.641876652703 373.06395456471347 325.42754675244 399.41399228527604 351.2905497186657 425.48972725188315 369.2206314470634 443.6216480040625 388.28247648696004 460.56010549352226 407.6235741656568 477.158046435019 422.66733201444583 490.5136916804408 438.9550371064589 502.37670036216997 454.54900735889123 515.0717418895736 470.16117025496965 526.944117400699 486.22447518412093 538.3149637964827 503.05316312288085 548.3874545900151 509.9225212570377 550.5385146614353 515.107384321939 543.4092270115345 520.8248646859539 540.6766160322584 547.6389480545675 523.4206553256802 572.2800885003268 503.0822810109959 597.2466455190737 483.3208549379987 616.7363527910526 467.46919190408363 634.5782248260678 449.7602319482591 653.2755467802475 433.01258323348196 684.2180602052262 403.33311407890113 713.3375948332389 371.70987440240805 740.2786956384059 338.35395700923954 762.1003396873864 310.3735903328607 781.291923389273 280.1904199275005 796.2538991276101 247.98561319344577 804.8411014736139 227.64211942200546 810.9383421708205 206.0664757674685 813.1993009905875 184.06514201628698 815.3537525002375 160.40433716507295 813.2878821272047 136.1638224724706 805.1140315025716 113.74464738169036 797.9585813291849 91.51664443397425 786.4736372615325 70.444895826687 769.698857040918 53.998729820819904 745.9345648745821 29.89069116535012 715.767156582137 11.063743597121402 682.087429511713 5.098090703225353 654.6899380190702 7.885603281465592e-9 625.9860968197776 1.1143700861782122 599.212791458449 8.926079706708094 569.1204792982318 19.26752770155764 539.693454270731 35.70871959802116 520.8507849638519 62.06063875931579 515.8376740207239 68.26917515442534 512.7294208832492 75.8191222675967 507.7545847429983 81.98598434674614 502.0329054554611 81.4806519756753 500.2658853892839 73.06842361776239 496.3431218369883 69.18296588599287 482.6262884201087 50.32884643766232 465.27572273662906 33.897481637211854 444.5950957806027 22.907009263442262 426.79059416493726 12.742755841239102 407.2202756361809 5.378966387463834 386.7123536345729 3.3863187807797885 372.2029734028358 1.6893722883095847 357.4864731935021 1.5639375229301322 342.97033430986437 3.2547794265869356Z" fill-rule="nonzero"></path><path transform="matrix(0.246909,0,0,0.246909,-3135.600255,305.531877)" stroke="none" fill="#000000" data-view-type="laser" d="M668.3869072977475 16.970724609644435C694.0802818285204 20.270028767389363 718.746292821297 30.28807082763001 739.5290262925946 45.74001249191633 756.2649664706266 57.03624724664752 769.0489928772936 73.11084889504474 779.6219630552873 90.09577716310349 791.7224531616214 111.84914833057991 799.7202719924298 136.38875557562568 799.4829520648836 161.4646622527202 799.8679610524782 175.4581966548746 799.5878444044149 189.5887451615069 796.0012369795008 203.20977044839884 790.0019442483081 230.6001560704653 777.9591893404072 256.312433831942 763.8793105358966 280.4109603106629 740.5582470467641 317.03483528251087 713.8250737044864 351.4921060910527 683.7888010235878 382.86163388855624 663.5310137411224 404.3802529317174 642.7104899581229 425.4187492946483 620.3221527306738 444.7359777080906 596.5874952745825 466.93399065203295 571.2536939446819 487.40697276502254 545.1674778189745 506.767643887216 532.0013493717669 515.6218816195403 519.8245519052655 526.0021858066782 506.0006459385643 533.8397995554003 499.8877400266779 532.3256031343908 495.10508538610736 526.3724985619444 489.5647672953271 523.0552682306998 468.2006524880852 508.2784488699959 447.40514459945587 492.64884429159355 427.1823295050207 476.3469274584276 403.7069878758508 456.5427854134427 380.79080558736825 436.06552362840154 359.21774588576807 414.18808234569036 317.0507669988798 372.9534905766621 277.5258880648005 328.3065547837536 247.50942299813357 277.3088279117076 237.9394060777355 260.70621970521853 228.6977853510558 243.73556777713594 223.21665593223577 225.27396692962276 216.21603298888567 205.09954442878342 211.14940999540534 183.83562239666895 212.750758304064 162.3359065842115 213.34392085042987 140.24872099670227 219.22969729916463 118.50549184450313 228.50583802211054 98.53019521686184 239.55938307209863 76.02725967666208 256.96192658387406 56.939542807984935 276.97131524057636 42.03576253469822 295.77491840899097 28.185952439804623 318.46427000388053 21.2225384187455 341.1661214711021 16.992882006078162 347.8396644217613 15.655718660656305 354.75276403422777 16.29844465429261 361.5297216263325 15.852276730623373 389.0374025620273 15.041141604326128 417.09912338165304 21.202997274660333 440.4516949469096 36.1318418914347 457.918603111372 46.991348225569254 473.33013821160796 61.23278061260521 485.5279141460154 77.77777474345493 492.2616874246627 88.38335117757072 497.1288050268573 100.05868412755348 503.782403090785 110.69477543088328 506.3858971717466 116.43817607279624 508.6236811636111 110.2671392946832 510.2704666696941 107.22904855429766 521.0911733355107 86.9591732169996 531.7982668206341 65.55646061276309 550.338694382428 51.14359102321828 565.3987795838369 38.137821080302444 582.817690822497 27.66606110890507 602.060630589004 22.246462069394454 616.4557516518137 17.95067261124899 631.4795000150478 15.984155228639167 646.4394570401528 15.214977038154473 653.7800635911725 15.35656958424238 661.1138065172037 15.977428876150384 668.3869072977475 16.970724609644435Z" fill-rule="nonzero"></path></svg>