<svg id="visual" viewBox="0 0 2560 1440" width="2560" height="1440" xmlns="http://www.w3.org/2000/svg" xmlns:xlink="http://www.w3.org/1999/xlink" version="1.1"><rect x="0" y="0" width="2560" height="1440" fill="#0c0c0e"></rect><defs><linearGradient id="grad1_0" x1="43.8%" y1="100%" x2="100%" y2="0%"><stop offset="14.444444444444446%" stop-color="#3cfa9e" stop-opacity="1"></stop><stop offset="85.55555555555554%" stop-color="#3cfa9e" stop-opacity="1"></stop></linearGradient></defs><defs><linearGradient id="grad1_1" x1="43.8%" y1="100%" x2="100%" y2="0%"><stop offset="14.444444444444446%" stop-color="#3cfa9e" stop-opacity="1"></stop><stop offset="85.55555555555554%" stop-color="#00d1ae" stop-opacity="1"></stop></linearGradient></defs><defs><linearGradient id="grad1_2" x1="43.8%" y1="100%" x2="100%" y2="0%"><stop offset="14.444444444444446%" stop-color="#00a5ac" stop-opacity="1"></stop><stop offset="85.55555555555554%" stop-color="#00d1ae" stop-opacity="1"></stop></linearGradient></defs><defs><linearGradient id="grad1_3" x1="43.8%" y1="100%" x2="100%" y2="0%"><stop offset="14.444444444444446%" stop-color="#00a5ac" stop-opacity="1"></stop><stop offset="85.55555555555554%" stop-color="#007a95" stop-opacity="1"></stop></linearGradient></defs><defs><linearGradient id="grad1_4" x1="43.8%" y1="100%" x2="100%" y2="0%"><stop offset="14.444444444444446%" stop-color="#00516d" stop-opacity="1"></stop><stop offset="85.55555555555554%" stop-color="#007a95" stop-opacity="1"></stop></linearGradient></defs><defs><linearGradient id="grad1_5" x1="43.8%" y1="100%" x2="100%" y2="0%"><stop offset="14.444444444444446%" stop-color="#00516d" stop-opacity="1"></stop><stop offset="85.55555555555554%" stop-color="#1d2c3d" stop-opacity="1"></stop></linearGradient></defs><defs><linearGradient id="grad1_6" x1="43.8%" y1="100%" x2="100%" y2="0%"><stop offset="14.444444444444446%" stop-color="#0c0c0e" stop-opacity="1"></stop><stop offset="85.55555555555554%" stop-color="#1d2c3d" stop-opacity="1"></stop></linearGradient></defs><defs><linearGradient id="grad2_0" x1="0%" y1="100%" x2="56.3%" y2="0%"><stop offset="14.444444444444446%" stop-color="#3cfa9e" stop-opacity="1"></stop><stop offset="85.55555555555554%" stop-color="#3cfa9e" stop-opacity="1"></stop></linearGradient></defs><defs><linearGradient id="grad2_1" x1="0%" y1="100%" x2="56.3%" y2="0%"><stop offset="14.444444444444446%" stop-color="#00d1ae" stop-opacity="1"></stop><stop offset="85.55555555555554%" stop-color="#3cfa9e" stop-opacity="1"></stop></linearGradient></defs><defs><linearGradient id="grad2_2" x1="0%" y1="100%" x2="56.3%" y2="0%"><stop offset="14.444444444444446%" stop-color="#00d1ae" stop-opacity="1"></stop><stop offset="85.55555555555554%" stop-color="#00a5ac" stop-opacity="1"></stop></linearGradient></defs><defs><linearGradient id="grad2_3" x1="0%" y1="100%" x2="56.3%" y2="0%"><stop offset="14.444444444444446%" stop-color="#007a95" stop-opacity="1"></stop><stop offset="85.55555555555554%" stop-color="#00a5ac" stop-opacity="1"></stop></linearGradient></defs><defs><linearGradient id="grad2_4" x1="0%" y1="100%" x2="56.3%" y2="0%"><stop offset="14.444444444444446%" stop-color="#007a95" stop-opacity="1"></stop><stop offset="85.55555555555554%" stop-color="#00516d" stop-opacity="1"></stop></linearGradient></defs><defs><linearGradient id="grad2_5" x1="0%" y1="100%" x2="56.3%" y2="0%"><stop offset="14.444444444444446%" stop-color="#1d2c3d" stop-opacity="1"></stop><stop offset="85.55555555555554%" stop-color="#00516d" stop-opacity="1"></stop></linearGradient></defs><defs><linearGradient id="grad2_6" x1="0%" y1="100%" x2="56.3%" y2="0%"><stop offset="14.444444444444446%" stop-color="#1d2c3d" stop-opacity="1"></stop><stop offset="85.55555555555554%" stop-color="#0c0c0e" stop-opacity="1"></stop></linearGradient></defs><g transform="translate(2560, 1440)"><path d="M-1296 0C-1282.6 -120 -1269.2 -239.9 -1194.9 -320.2C-1120.5 -400.4 -985.2 -440.8 -945.7 -546C-906.2 -651.2 -962.7 -821 -916.4 -916.4C-870.1 -1011.8 -721.2 -1032.6 -599.5 -1038.4C-477.8 -1044.1 -383.4 -1034.7 -288.1 -1075.1C-192.7 -1115.5 -96.3 -1205.7 0 -1296L0 0Z" fill="#191c26"></path><path d="M-1110.9 0C-1099.4 -102.8 -1087.9 -205.7 -1024.2 -274.4C-960.4 -343.2 -844.4 -377.9 -810.6 -468C-776.8 -558.1 -825.2 -703.7 -785.5 -785.5C-745.8 -867.2 -618.2 -885.1 -513.9 -890C-409.6 -894.9 -328.7 -886.9 -246.9 -921.5C-165.2 -956.1 -82.6 -1033.5 0 -1110.9L0 0Z" fill="#183e56"></path><path d="M-925.7 0C-916.1 -85.7 -906.6 -171.4 -853.5 -228.7C-800.3 -286 -703.7 -314.9 -675.5 -390C-647.3 -465.1 -687.6 -586.5 -654.6 -654.6C-621.5 -722.7 -515.1 -737.6 -428.2 -741.7C-341.3 -745.8 -273.9 -739 -205.8 -767.9C-137.6 -796.8 -68.8 -861.2 0 -925.7L0 0Z" fill="#006583"></path><path d="M-740.6 0C-732.9 -68.6 -725.3 -137.1 -682.8 -182.9C-640.3 -228.8 -562.9 -251.9 -540.4 -312C-517.9 -372.1 -550.1 -469.2 -523.7 -523.7C-497.2 -578.2 -412.1 -590.1 -342.6 -593.4C-273 -596.6 -219.1 -591.2 -164.6 -614.3C-110.1 -637.4 -55.1 -689 0 -740.6L0 0Z" fill="#008fa3"></path><path d="M-555.4 0C-549.7 -51.4 -543.9 -102.8 -512.1 -137.2C-480.2 -171.6 -422.2 -188.9 -405.3 -234C-388.4 -279.1 -412.6 -351.9 -392.7 -392.7C-372.9 -433.6 -309.1 -442.6 -256.9 -445C-204.8 -447.5 -164.3 -443.4 -123.5 -460.7C-82.6 -478.1 -41.3 -516.7 0 -555.4L0 0Z" fill="#00bbb0"></path><path d="M-370.3 0C-366.5 -34.3 -362.6 -68.6 -341.4 -91.5C-320.1 -114.4 -281.5 -126 -270.2 -156C-258.9 -186 -275.1 -234.6 -261.8 -261.8C-248.6 -289.1 -206.1 -295 -171.3 -296.7C-136.5 -298.3 -109.6 -295.6 -82.3 -307.2C-55.1 -318.7 -27.5 -344.5 0 -370.3L0 0Z" fill="#00e6a8"></path><path d="M-185.1 0C-183.2 -17.1 -181.3 -34.3 -170.7 -45.7C-160.1 -57.2 -140.7 -63 -135.1 -78C-129.5 -93 -137.5 -117.3 -130.9 -130.9C-124.3 -144.5 -103 -147.5 -85.6 -148.3C-68.3 -149.2 -54.8 -147.8 -41.2 -153.6C-27.5 -159.4 -13.8 -172.2 0 -185.1L0 0Z" fill="#3cfa9e"></path></g><g transform="translate(0, 0)"><path d="M1296 0C1279.4 107.2 1262.8 214.5 1246 333.9C1229.3 453.3 1212.4 584.9 1122.4 648C1032.3 711.1 869.2 705.9 782.1 782.1C694.9 858.3 683.8 1016 606 1049.6C528.2 1083.3 383.6 992.9 271.5 1013.3C159.4 1033.6 79.7 1164.8 0 1296L0 0Z" fill="#191c26"></path><path d="M1110.9 0C1096.6 91.9 1082.4 183.8 1068 286.2C1053.7 388.5 1039.2 501.3 962 555.4C884.9 609.6 745 605 670.3 670.3C595.7 735.7 586.1 870.8 519.4 899.7C452.7 928.5 328.8 851 232.7 868.5C136.6 886 68.3 998.4 0 1110.9L0 0Z" fill="#183e56"></path><path d="M925.7 0C913.9 76.6 902 153.2 890 238.5C878.1 323.8 866 417.8 801.7 462.9C737.4 508 620.8 504.2 558.6 558.6C496.4 613 488.4 725.7 432.9 749.7C377.3 773.8 274 709.2 193.9 723.8C113.8 738.3 56.9 832 0 925.7L0 0Z" fill="#006583"></path><path d="M740.6 0C731.1 61.3 721.6 122.6 712 190.8C702.5 259 692.8 334.2 641.4 370.3C589.9 406.4 496.7 403.3 446.9 446.9C397.1 490.4 390.8 580.6 346.3 599.8C301.8 619 219.2 567.4 155.1 579C91.1 590.7 45.5 665.6 0 740.6L0 0Z" fill="#008fa3"></path><path d="M555.4 0C548.3 46 541.2 91.9 534 143.1C526.8 194.3 519.6 250.7 481 277.7C442.4 304.8 372.5 302.5 335.2 335.2C297.8 367.8 293.1 435.4 259.7 449.8C226.4 464.3 164.4 425.5 116.4 434.3C68.3 443 34.2 499.2 0 555.4L0 0Z" fill="#00bbb0"></path><path d="M370.3 0C365.5 30.6 360.8 61.3 356 95.4C351.2 129.5 346.4 167.1 320.7 185.1C295 203.2 248.3 201.7 223.4 223.4C198.6 245.2 195.4 290.3 173.1 299.9C150.9 309.5 109.6 283.7 77.6 289.5C45.5 295.3 22.8 332.8 0 370.3L0 0Z" fill="#00e6a8"></path><path d="M185.1 0C182.8 15.3 180.4 30.6 178 47.7C175.6 64.8 173.2 83.6 160.3 92.6C147.5 101.6 124.2 100.8 111.7 111.7C99.3 122.6 97.7 145.1 86.6 149.9C75.5 154.8 54.8 141.8 38.8 144.8C22.8 147.7 11.4 166.4 0 185.1L0 0Z" fill="#3cfa9e"></path></g></svg>