<svg id="visual" viewBox="0 0 2560 1440" width="2560" height="1440" xmlns="http://www.w3.org/2000/svg" xmlns:xlink="http://www.w3.org/1999/xlink" version="1.1"><rect x="0" y="0" width="2560" height="1440" fill="#cfe1ef"></rect><path d="M0 1023L32.8 999.5C65.7 976 131.3 929 197 940C262.7 951 328.3 1020 394 1028.8C459.7 1037.7 525.3 986.3 591 962.7C656.7 939 722.3 943 788 966.5C853.7 990 919.3 1033 985 1038C1050.7 1043 1116.3 1010 1181.8 1007.3C1247.3 1004.7 1312.7 1032.3 1378.2 1031.5C1443.7 1030.7 1509.3 1001.3 1575 989.2C1640.7 977 1706.3 982 1772 987.8C1837.7 993.7 1903.3 1000.3 1969 998.3C2034.7 996.3 2100.3 985.7 2166 993C2231.7 1000.3 2297.3 1025.7 2363 1037.2C2428.7 1048.7 2494.3 1046.3 2527.2 1045.2L2560 1044L2560 1441L2527.2 1441C2494.3 1441 2428.7 1441 2363 1441C2297.3 1441 2231.7 1441 2166 1441C2100.3 1441 2034.7 1441 1969 1441C1903.3 1441 1837.7 1441 1772 1441C1706.3 1441 1640.7 1441 1575 1441C1509.3 1441 1443.7 1441 1378.2 1441C1312.7 1441 1247.3 1441 1181.8 1441C1116.3 1441 1050.7 1441 985 1441C919.3 1441 853.7 1441 788 1441C722.3 1441 656.7 1441 591 1441C525.3 1441 459.7 1441 394 1441C328.3 1441 262.7 1441 197 1441C131.3 1441 65.7 1441 32.8 1441L0 1441Z" fill="#140b0b"></path><path d="M0 1135L32.8 1120.2C65.7 1105.3 131.3 1075.7 197 1067.2C262.7 1058.7 328.3 1071.3 394 1077.7C459.7 1084 525.3 1084 591 1065.2C656.7 1046.3 722.3 1008.7 788 1006.5C853.7 1004.3 919.3 1037.7 985 1041.7C1050.7 1045.7 1116.3 1020.3 1181.8 1005C1247.3 989.7 1312.7 984.3 1378.2 993.8C1443.7 1003.3 1509.3 1027.7 1575 1046.5C1640.7 1065.3 1706.3 1078.7 1772 1065.2C1837.7 1051.7 1903.3 1011.3 1969 1006.7C2034.7 1002 2100.3 1033 2166 1050.7C2231.7 1068.3 2297.3 1072.7 2363 1081.5C2428.7 1090.3 2494.3 1103.7 2527.2 1110.3L2560 1117L2560 1441L2527.2 1441C2494.3 1441 2428.7 1441 2363 1441C2297.3 1441 2231.7 1441 2166 1441C2100.3 1441 2034.7 1441 1969 1441C1903.3 1441 1837.7 1441 1772 1441C1706.3 1441 1640.7 1441 1575 1441C1509.3 1441 1443.7 1441 1378.2 1441C1312.7 1441 1247.3 1441 1181.8 1441C1116.3 1441 1050.7 1441 985 1441C919.3 1441 853.7 1441 788 1441C722.3 1441 656.7 1441 591 1441C525.3 1441 459.7 1441 394 1441C328.3 1441 262.7 1441 197 1441C131.3 1441 65.7 1441 32.8 1441L0 1441Z" fill="#4f4a62"></path><path d="M0 1026L32.8 1032.7C65.7 1039.3 131.3 1052.7 197 1070.3C262.7 1088 328.3 1110 394 1135.3C459.7 1160.7 525.3 1189.3 591 1184C656.7 1178.7 722.3 1139.3 788 1128.7C853.7 1118 919.3 1136 985 1139.5C1050.7 1143 1116.3 1132 1181.8 1125.2C1247.3 1118.3 1312.7 1115.7 1378.2 1114C1443.7 1112.3 1509.3 1111.7 1575 1123.7C1640.7 1135.7 1706.3 1160.3 1772 1160.7C1837.7 1161 1903.3 1137 1969 1130.2C2034.7 1123.3 2100.3 1133.7 2166 1143.3C2231.7 1153 2297.3 1162 2363 1144.2C2428.7 1126.3 2494.3 1081.7 2527.2 1059.3L2560 1037L2560 1441L2527.2 1441C2494.3 1441 2428.7 1441 2363 1441C2297.3 1441 2231.7 1441 2166 1441C2100.3 1441 2034.7 1441 1969 1441C1903.3 1441 1837.7 1441 1772 1441C1706.3 1441 1640.7 1441 1575 1441C1509.3 1441 1443.7 1441 1378.2 1441C1312.7 1441 1247.3 1441 1181.8 1441C1116.3 1441 1050.7 1441 985 1441C919.3 1441 853.7 1441 788 1441C722.3 1441 656.7 1441 591 1441C525.3 1441 459.7 1441 394 1441C328.3 1441 262.7 1441 197 1441C131.3 1441 65.7 1441 32.8 1441L0 1441Z" fill="#45a1b6"></path><path d="M0 1168L32.8 1184C65.7 1200 131.3 1232 197 1233.2C262.7 1234.3 328.3 1204.7 394 1204C459.7 1203.3 525.3 1231.7 591 1224.7C656.7 1217.7 722.3 1175.3 788 1154.7C853.7 1134 919.3 1135 985 1152.7C1050.7 1170.3 1116.3 1204.7 1181.8 1221.3C1247.3 1238 1312.7 1237 1378.2 1235.7C1443.7 1234.3 1509.3 1232.7 1575 1220.5C1640.7 1208.3 1706.3 1185.7 1772 1185.2C1837.7 1184.7 1903.3 1206.3 1969 1198.8C2034.7 1191.3 2100.3 1154.7 2166 1143.5C2231.7 1132.3 2297.3 1146.7 2363 1149.5C2428.7 1152.3 2494.3 1143.7 2527.2 1139.3L2560 1135L2560 1441L2527.2 1441C2494.3 1441 2428.7 1441 2363 1441C2297.3 1441 2231.7 1441 2166 1441C2100.3 1441 2034.7 1441 1969 1441C1903.3 1441 1837.7 1441 1772 1441C1706.3 1441 1640.7 1441 1575 1441C1509.3 1441 1443.7 1441 1378.2 1441C1312.7 1441 1247.3 1441 1181.8 1441C1116.3 1441 1050.7 1441 985 1441C919.3 1441 853.7 1441 788 1441C722.3 1441 656.7 1441 591 1441C525.3 1441 459.7 1441 394 1441C328.3 1441 262.7 1441 197 1441C131.3 1441 65.7 1441 32.8 1441L0 1441Z" fill="#45a1b6"></path><path d="M0 1202L32.8 1203.3C65.7 1204.7 131.3 1207.3 197 1224.5C262.7 1241.7 328.3 1273.3 394 1284.5C459.7 1295.7 525.3 1286.3 591 1281.5C656.7 1276.7 722.3 1276.3 788 1265.8C853.7 1255.3 919.3 1234.7 985 1235.2C1050.7 1235.7 1116.3 1257.3 1181.8 1267C1247.3 1276.7 1312.7 1274.3 1378.2 1265C1443.7 1255.7 1509.3 1239.3 1575 1227.7C1640.7 1216 1706.3 1209 1772 1209.5C1837.7 1210 1903.3 1218 1969 1226.2C2034.7 1234.3 2100.3 1242.7 2166 1246.3C2231.7 1250 2297.3 1249 2363 1249.3C2428.7 1249.7 2494.3 1251.3 2527.2 1252.2L2560 1253L2560 1441L2527.2 1441C2494.3 1441 2428.7 1441 2363 1441C2297.3 1441 2231.7 1441 2166 1441C2100.3 1441 2034.7 1441 1969 1441C1903.3 1441 1837.7 1441 1772 1441C1706.3 1441 1640.7 1441 1575 1441C1509.3 1441 1443.7 1441 1378.2 1441C1312.7 1441 1247.3 1441 1181.8 1441C1116.3 1441 1050.7 1441 985 1441C919.3 1441 853.7 1441 788 1441C722.3 1441 656.7 1441 591 1441C525.3 1441 459.7 1441 394 1441C328.3 1441 262.7 1441 197 1441C131.3 1441 65.7 1441 32.8 1441L0 1441Z" fill="#4f4a62"></path><path d="M0 1349L32.8 1343C65.7 1337 131.3 1325 197 1331.2C262.7 1337.3 328.3 1361.7 394 1357.3C459.7 1353 525.3 1320 591 1305.7C656.7 1291.3 722.3 1295.7 788 1297.2C853.7 1298.7 919.3 1297.3 985 1311.8C1050.7 1326.3 1116.3 1356.7 1181.8 1368.8C1247.3 1381 1312.7 1375 1378.2 1359.2C1443.7 1343.3 1509.3 1317.7 1575 1316.2C1640.7 1314.7 1706.3 1337.3 1772 1337.3C1837.7 1337.3 1903.3 1314.7 1969 1315C2034.7 1315.3 2100.3 1338.7 2166 1349.5C2231.7 1360.3 2297.3 1358.7 2363 1359.2C2428.7 1359.7 2494.3 1362.3 2527.2 1363.7L2560 1365L2560 1441L2527.2 1441C2494.3 1441 2428.7 1441 2363 1441C2297.3 1441 2231.7 1441 2166 1441C2100.3 1441 2034.7 1441 1969 1441C1903.3 1441 1837.7 1441 1772 1441C1706.3 1441 1640.7 1441 1575 1441C1509.3 1441 1443.7 1441 1378.2 1441C1312.7 1441 1247.3 1441 1181.8 1441C1116.3 1441 1050.7 1441 985 1441C919.3 1441 853.7 1441 788 1441C722.3 1441 656.7 1441 591 1441C525.3 1441 459.7 1441 394 1441C328.3 1441 262.7 1441 197 1441C131.3 1441 65.7 1441 32.8 1441L0 1441Z" fill="#140b0b"></path></svg>